<?xml version="1.0" standalone="no"?>
<!DOCTYPE svg PUBLIC "-//W3C//DTD SVG 1.1//EN" "http://www.w3.org/Graphics/SVG/1.1/DTD/svg11.dtd" >
<svg>
<metadata>
Created by FontForge 20090622 at Sat Mar 12 21:38:21 2016
 By deploy user
Font data copyright Google 2014
</metadata>
<defs>
<font id="RobotoCondensed-Light" horiz-adv-x="1123" >
  <font-face 
    font-family="Roboto Condensed"
    font-weight="300"
    font-stretch="normal"
    units-per-em="2048"
    panose-1="0 0 0 0 0 0 0 0 0 0"
    ascent="1536"
    descent="-512"
    x-height="1082"
    cap-height="1456"
    bbox="-876 -555 2027 2163"
    underline-thickness="100"
    underline-position="-100"
    unicode-range="U+0002-U+FFFD"
  />
<missing-glyph horiz-adv-x="460" 
 />
    <glyph glyph-name="fi" unicode="fi" horiz-adv-x="969" 
d="M207 0v982h-150v100h150v113q0 87 21.5 154.5t61.5 113.5t97 70t128 24q57 0 115 -15t118 -44l-19 -105q-43 22 -91.5 37t-114.5 15q-103 0 -153.5 -63.5t-50.5 -186.5v-113h207v-100h-207v-982h-112zM807 0h-112v1082h112v-1082z" />
    <glyph glyph-name=".notdef" horiz-adv-x="460" 
 />
    <glyph glyph-name="NULL" horiz-adv-x="0" 
 />
    <glyph glyph-name="NULL" horiz-adv-x="0" 
 />
    <glyph glyph-name="nonmarkingreturn" unicode="&#xd;" horiz-adv-x="460" 
 />
    <glyph glyph-name="space" unicode=" " horiz-adv-x="460" 
 />
    <glyph glyph-name="quotedbl" unicode="&#x22;" horiz-adv-x="588" 
d="M243 1396l-20 -315h-80l3 309v146h97v-140zM479 1396l-20 -315h-81l4 313v142h97v-140z" />
    <glyph glyph-name="numbersign" unicode="#" horiz-adv-x="1108" 
d="M634 410h-255l-65 -410h-91l65 410h-211v95h226l70 437h-233v98h248l67 416h91l-67 -416h255l67 416h92l-67 -416h188v-98h-204l-70 -437h211v-95h-226l-65 -410h-91zM394 505h255l70 437h-255z" />
    <glyph glyph-name="dollar" unicode="$" horiz-adv-x="996" 
d="M769 359q0 55 -13.5 99t-45 81t-82 69t-125.5 64q-80 31 -143.5 67t-108 85.5t-68 115t-23.5 154.5q0 81 21.5 148t62 116.5t98 79.5t128.5 37v203h94v-204q146 -17 226.5 -131t80.5 -316h-110q0 73 -16 135.5t-47 108.5t-77.5 71.5t-106.5 25.5q-62 0 -108 -21.5
t-76 -58.5t-45 -86.5t-15 -105.5q0 -54 12 -97.5t42.5 -80.5t82.5 -70t133 -66q79 -32 142.5 -68t107.5 -84.5t67.5 -113.5t23.5 -155q0 -83 -23 -150t-65 -115.5t-102 -77.5t-133 -36v-190h-92v189q-67 6 -130 31.5t-112 77.5t-78.5 132.5t-29.5 196.5h111q0 -96 25.5 -160
t65.5 -102.5t89.5 -54t98.5 -15.5q63 0 111.5 21t82.5 58t51.5 86.5t17.5 106.5z" />
    <glyph glyph-name="percent" unicode="%" horiz-adv-x="1309" 
d="M111 1176q0 62 17 116.5t48 95.5t75.5 65t100.5 24t100.5 -24t76 -65t48.5 -95.5t17 -116.5v-77q0 -61 -17 -115.5t-48 -95t-75.5 -64.5t-99.5 -24q-56 0 -101 24t-76.5 64.5t-48.5 95t-17 115.5v77zM199 1099q0 -40 9.5 -78t28.5 -67.5t48.5 -47.5t68.5 -18t67.5 18
t47 47.5t28 67.5t9.5 78v77q0 40 -9.5 78t-28.5 68t-48 48t-68 18t-67.5 -18t-47.5 -48t-28.5 -68t-9.5 -78v-77zM723 357q0 61 17 116t48 95.5t75.5 64.5t99.5 24q56 0 101 -24t76.5 -64.5t48.5 -95.5t17 -116v-78q0 -62 -17 -116.5t-48.5 -95t-76 -64.5t-99.5 -24
q-56 0 -100.5 24t-76 64.5t-48.5 95t-17 116.5v78zM810 279q0 -40 9.5 -78t28.5 -68t48.5 -48t68.5 -18t68 18t47.5 47.5t28 67.5t9.5 79v78q0 42 -9.5 80.5t-28.5 67.5t-48.5 46t-68.5 17q-38 0 -67 -17t-48 -46t-28.5 -67.5t-9.5 -80.5v-78zM386 120l-67 49l597 1138
l68 -49z" />
    <glyph glyph-name="ampersand" unicode="&#x26;" horiz-adv-x="1100" 
d="M359 792q-33 47 -59.5 91t-44.5 87t-28 86t-10 88q0 77 20 138.5t57.5 104.5t90.5 66t118 23q63 0 112.5 -23t84 -62t52.5 -91t18 -110q0 -50 -14 -93.5t-36.5 -81.5t-52.5 -70.5t-61 -60.5l-109 -99l328 -458q33 67 52 149t19 176h102q0 -249 -107 -416l169 -236h-134
l-102 142q-66 -76 -152 -119t-180 -43q-89 0 -159.5 28.5t-120 80t-76 123.5t-26.5 160q0 66 18.5 121.5t50.5 105t76.5 95.5t95.5 91zM492 83q75 0 144.5 38t125.5 107l-337 472l-10 12l-36 -33q-53 -52 -84 -97.5t-48 -84t-22 -70t-5 -55.5q0 -58 16.5 -110.5t50.5 -92
t85 -63t120 -23.5zM328 1148q0 -65 29.5 -135t82.5 -148l105 96q53 46 86.5 100.5t33.5 128.5q0 35 -10.5 68t-31 58.5t-51 40.5t-70.5 15q-43 0 -75.5 -18t-54.5 -48.5t-33 -71.5t-11 -86z" />
    <glyph glyph-name="quotesingle" unicode="'" horiz-adv-x="348" 
d="M226 1397l-17 -308h-90l5 298v149h102v-139z" />
    <glyph glyph-name="parenleft" unicode="(" horiz-adv-x="596" 
d="M136 588q0 196 36.5 366.5t93 306t124.5 231t132 141.5l26 -84q-54 -47 -108 -136t-96.5 -213t-69 -278.5t-26.5 -330.5v-20q0 -176 26.5 -330.5t69 -278.5t96.5 -214.5t108 -138.5l-26 -79q-64 46 -132 139.5t-124.5 227.5t-93 304.5t-36.5 371.5v15z" />
    <glyph glyph-name="parenright" unicode=")" horiz-adv-x="607" 
d="M460 573q0 -134 -16.5 -254.5t-45.5 -226t-67 -195.5t-81 -161t-88 -123t-88 -83l-25 79q54 47 108 137t96.5 214.5t69 279.5t26.5 331v20q0 176 -27.5 331.5t-71 280.5t-96.5 215t-105 136l25 79q43 -31 88 -84t88 -125.5t81 -163t67 -196.5t45.5 -225.5t16.5 -250.5
v-15z" />
    <glyph glyph-name="asterisk" unicode="*" horiz-adv-x="869" 
d="M361 1000l-332 106l32 104l332 -123l-4 369h104l-8 -372l324 127l33 -104l-333 -114l223 -293l-85 -64l-214 304l-204 -302l-85 62z" />
    <glyph glyph-name="plus" unicode="+" horiz-adv-x="1012" 
d="M556 742h366v-115h-366v-481h-113v481h-360v115h360v464h113v-464z" />
    <glyph glyph-name="comma" unicode="," horiz-adv-x="392" 
d="M271 49q0 -45 -9.5 -90t-27.5 -86.5t-44 -78.5t-59 -67l-71 53q46 62 70 125t24 142v143h117v-141z" />
    <glyph glyph-name="hyphen" unicode="-" horiz-adv-x="529" 
d="M463 590h-404v103h404v-103z" />
    <glyph glyph-name="period" unicode="." horiz-adv-x="489" 
d="M145 73q0 36 22.5 60.5t62.5 24.5t63 -24.5t23 -60.5q0 -35 -23 -58t-63 -23t-62.5 23t-22.5 58z" />
    <glyph glyph-name="slash" unicode="/" horiz-adv-x="728" 
d="M143 -125h-100l511 1581h99z" />
    <glyph glyph-name="zero" unicode="0" horiz-adv-x="996" 
d="M876 608q0 -161 -25.5 -279.5t-74 -196t-118.5 -115t-159 -37.5q-88 0 -158 37.5t-119 115t-75.5 196t-26.5 279.5v244q0 161 26 278.5t74.5 194.5t118.5 114t158 37t158.5 -37t119.5 -114t75 -194.5t26 -278.5v-244zM764 868q0 250 -66.5 377t-200.5 127
q-132 0 -199.5 -127t-67.5 -377v-274q0 -123 17.5 -218t51 -160t84 -99t116.5 -34q67 0 116.5 34t82.5 99t49.5 160t16.5 218v274z" />
    <glyph glyph-name="one" unicode="1" horiz-adv-x="996" 
d="M609 0h-112v1309l-329 -147v114l422 185h19v-1461z" />
    <glyph glyph-name="two" unicode="2" horiz-adv-x="996" 
d="M905 0h-772v94l400 540q56 76 94.5 137t62 113.5t33.5 98.5t10 91q0 65 -16 120t-47 94.5t-77.5 61.5t-106.5 22q-63 0 -113 -25t-84.5 -70t-53 -106.5t-18.5 -134.5h-111q0 90 26 170t74.5 140t119 95t160.5 35q83 0 150 -27t113.5 -77t71.5 -123t25 -164
q0 -66 -20 -132.5t-53 -132.5t-76.5 -131l-89.5 -128l-339 -458h637v-103z" />
    <glyph glyph-name="three" unicode="3" horiz-adv-x="996" 
d="M356 794h105q69 0 120.5 22.5t86.5 60.5t52.5 89.5t17.5 109.5q0 66 -15 120.5t-46 93.5t-77.5 60.5t-110.5 21.5q-56 0 -103.5 -20.5t-82 -59.5t-54 -94t-19.5 -124h-111q0 88 27.5 162t77 127t117.5 83t148 30q81 0 147.5 -27t114 -78.5t73 -126.5t25.5 -172
q0 -49 -13 -97.5t-39 -91.5t-65 -78.5t-91 -58.5q61 -20 104.5 -55t71.5 -80.5t41 -100t13 -114.5q0 -99 -28.5 -176.5t-79.5 -131t-120.5 -81t-150.5 -27.5q-75 0 -145.5 26t-125 77.5t-87 129t-32.5 181.5h111q0 -69 20.5 -126t57 -98t88 -64t113.5 -23q127 0 197.5 79.5
t70.5 229.5q0 78 -21.5 134.5t-61 93t-94.5 53.5t-122 17h-105v104z" />
    <glyph glyph-name="four" unicode="4" horiz-adv-x="996" 
d="M757 470h187v-104h-187v-366h-111v366h-572v71l563 1019h120v-986zM207 470h439v818l-40 -81z" />
    <glyph glyph-name="five" unicode="5" horiz-adv-x="996" 
d="M201 746l60 710h615v-114h-520l-41 -488q16 13 39 27.5t52 26t62.5 19t71.5 7.5q82 0 149 -32.5t114 -93.5t73 -148t26 -196q0 -105 -22 -193.5t-67 -153t-114.5 -101t-165.5 -36.5q-74 0 -138.5 24.5t-114.5 74.5t-82 126t-39 178h106q14 -147 83 -223.5t185 -76.5
q127 0 192.5 99t65.5 280q0 76 -18 142t-52.5 114.5t-85 76t-116.5 27.5q-44 0 -77 -7.5t-59.5 -21t-49 -32.5t-44.5 -43z" />
    <glyph glyph-name="six" unicode="6" horiz-adv-x="996" 
d="M729 1466v-107h-15q-110 0 -195 -39.5t-144 -114t-92.5 -180.5t-40.5 -238q51 81 127 125t169 44q88 0 154.5 -39t110 -104.5t65.5 -152.5t22 -183q0 -105 -25 -196t-72 -157.5t-114.5 -105t-153.5 -38.5q-94 0 -167.5 42.5t-124.5 115.5t-77.5 170t-26.5 207v127
q0 185 33.5 337t105 260t182 167.5t264.5 59.5h15zM520 851q-48 0 -93 -18t-82.5 -50t-64.5 -75.5t-40 -94.5v-100q0 -101 22.5 -180.5t61 -134.5t90.5 -84.5t111 -29.5q60 0 107.5 30.5t80.5 83t50.5 123.5t17.5 151q0 76 -16 145t-48.5 121t-81.5 82.5t-115 30.5z" />
    <glyph glyph-name="seven" unicode="7" horiz-adv-x="996" 
d="M893 1386l-520 -1386h-116l517 1352h-689v104h808v-70z" />
    <glyph glyph-name="eight" unicode="8" horiz-adv-x="996" 
d="M857 1081q0 -57 -14.5 -108.5t-40.5 -94t-62.5 -76t-81.5 -55.5q52 -22 94.5 -57t73 -81.5t47 -102.5t16.5 -120q0 -99 -30.5 -175t-83 -127.5t-123.5 -77.5t-152 -26q-83 0 -154 26t-123.5 77.5t-82.5 127.5t-30 175q0 64 16 120t46 102.5t72 81.5t93 57
q-45 22 -81.5 55.5t-62 76t-39.5 94t-14 108.5q0 95 27 168.5t75 124t113.5 76.5t142.5 26q76 0 142 -26t114 -76.5t75.5 -124t27.5 -168.5zM777 386q0 69 -21 126t-58.5 97.5t-88.5 63t-111 22.5q-61 0 -112 -22.5t-88 -63t-57.5 -97.5t-20.5 -126q0 -72 20.5 -128.5
t57.5 -95.5t88.5 -59t113.5 -20q61 0 111.5 20t87.5 59t57.5 95.5t20.5 128.5zM746 1082q0 63 -19 116.5t-52 92t-78.5 60t-98.5 21.5q-54 0 -99 -20t-77.5 -57.5t-51 -91.5t-18.5 -121q0 -65 18 -117.5t51 -89t78.5 -56.5t99.5 -20q53 0 98.5 20t78.5 56.5t51.5 89
t18.5 117.5z" />
    <glyph glyph-name="nine" unicode="9" horiz-adv-x="996" 
d="M294 96q128 0 215 43t140.5 119.5t77.5 180t27 225.5q-25 -42 -57.5 -76.5t-70.5 -59t-81 -38t-90 -13.5q-87 0 -152.5 41t-109.5 109t-66 156t-22 182q0 105 25 198t72 162.5t116 110t158 40.5q99 0 172.5 -43.5t121.5 -120.5t71.5 -184t23.5 -233v-115
q0 -107 -11 -207.5t-36.5 -188.5t-68 -160.5t-106 -124.5t-150 -80.5t-199.5 -28.5h-21l1 106h20zM470 582q54 0 100 21.5t82 56.5t62 80.5t41 93.5v73q0 114 -21 200.5t-58 145t-88 88.5t-111 30q-62 0 -110.5 -32.5t-82.5 -87.5t-52 -127.5t-18 -153.5q0 -74 16.5 -144
t48.5 -124t80 -87t111 -33z" />
    <glyph glyph-name="colon" unicode=":" horiz-adv-x="412" 
d="M131 73q0 36 22.5 60.5t62.5 24.5t63 -24.5t23 -60.5q0 -35 -23 -58t-63 -23t-62.5 23t-22.5 58zM133 995q0 36 22.5 60.5t62.5 24.5t63 -24.5t23 -60.5q0 -35 -23 -58t-63 -23t-62.5 23t-22.5 58z" />
    <glyph glyph-name="semicolon" unicode=";" horiz-adv-x="381" 
d="M122 995q0 36 22.5 60.5t62.5 24.5t63 -24.5t23 -60.5q0 -35 -23 -58t-63 -23t-62.5 23t-22.5 58zM273 49q0 -45 -9.5 -90t-27.5 -86.5t-44 -78.5t-59 -67l-71 53q46 62 70 125t24 142v143h117v-141z" />
    <glyph glyph-name="less" unicode="&#x3c;" horiz-adv-x="919" 
d="M201 655l576 -298v-129l-693 379v99l693 378v-129z" />
    <glyph glyph-name="equal" unicode="=" horiz-adv-x="990" 
d="M846 828h-701v108h701v-108zM846 417h-701v108h701v-108z" />
    <glyph glyph-name="greater" unicode="&#x3e;" horiz-adv-x="933" 
d="M715 659l-589 300v127l711 -378v-99l-711 -379v126z" />
    <glyph glyph-name="question" unicode="?" horiz-adv-x="827" 
d="M333 405q0 64 7.5 112t23.5 89t43 79t66 83l60.5 74t47.5 72.5t31.5 82t11.5 104.5q0 59 -13 108t-39 84t-64 54.5t-89 19.5q-47 0 -86.5 -17t-69 -49.5t-46.5 -79t-18 -106.5h-110q1 85 27 152.5t70.5 113.5t104 70.5t128.5 24.5q76 0 135 -27t99 -76.5t61 -118.5
t21 -152q0 -66 -15 -122.5t-42 -107t-63.5 -97.5t-79.5 -95q-53 -55 -72.5 -125t-19.5 -150h-110zM321 71q0 35 19 58.5t54 23.5t54.5 -23.5t19.5 -58.5q0 -34 -19.5 -56.5t-54.5 -22.5t-54 22.5t-19 56.5z" />
    <glyph glyph-name="at" unicode="@" horiz-adv-x="1606" 
d="M1488 512q-2 -63 -11.5 -126.5t-27 -123t-44 -111t-62.5 -89.5t-82.5 -60t-103.5 -22q-81 0 -132.5 49.5t-68.5 139.5q-45 -94 -108.5 -141.5t-136.5 -47.5q-60 0 -105 32t-73 90.5t-38.5 140.5t-2.5 183q10 129 42.5 233t81.5 177t110.5 112.5t129.5 39.5q43 0 76 -8.5
t59.5 -23.5t49 -34.5l45.5 -41.5l-44 -569q-5 -80 6.5 -128t31.5 -74t44.5 -34t44.5 -8q55 0 97.5 34t72 94t46 141t19.5 176q8 189 -21 340t-98 256t-179.5 161.5t-265.5 56.5q-134 0 -246 -60.5t-194.5 -171.5t-131 -267.5t-55.5 -348.5q-8 -186 26 -340.5t106 -265.5
t181 -172.5t251 -61.5q37 0 75.5 5.5t75 16t69 25t58.5 32.5l27 -81q-29 -22 -66 -38.5t-78.5 -28t-83.5 -17t-80 -5.5q-160 0 -284.5 64.5t-209 185.5t-126 293.5t-33.5 387.5q7 210 61.5 383.5t148.5 298t224 193t289 68.5q166 0 290.5 -64t205.5 -182t118 -286.5
t30 -376.5zM589 426q-6 -77 0 -141t24 -109.5t48 -71t72 -25.5q28 0 58 11.5t58.5 39.5t54.5 75.5t47 119.5l39 525q-25 20 -56 33t-71 13q-50 0 -95 -28.5t-81.5 -87t-62 -147t-35.5 -207.5z" />
    <glyph glyph-name="A" unicode="A" 
d="M834 407h-546l-124 -407h-119l464 1456h106l464 -1456h-119zM321 514h480l-240 781z" />
    <glyph glyph-name="B" unicode="B" horiz-adv-x="1097" 
d="M172 0v1456h369q93 0 167.5 -22.5t126 -69t79 -118.5t27.5 -171q0 -112 -52 -195t-144 -120q55 -14 98.5 -46.5t74.5 -79t47.5 -104t16.5 -120.5q0 -100 -28.5 -176.5t-80 -128.5t-124.5 -78.5t-161 -26.5h-416zM286 699v-593h302q66 0 118 21t88 60t55 95t19 126
q0 62 -16.5 115t-50 92t-84.5 61.5t-121 22.5h-310zM286 804h265q130 0 202 69t72 205q0 139 -70.5 204.5t-213.5 65.5h-255v-544z" />
    <glyph glyph-name="C" unicode="C" horiz-adv-x="1158" 
d="M1045 454q-16 -245 -132 -359.5t-321 -114.5q-105 0 -189.5 41t-143.5 118t-91 187.5t-32 249.5v313q0 137 32 246t92 184.5t146 116t195 40.5q99 0 177.5 -28t135.5 -86t90 -148t41 -214h-116q-8 100 -31 170t-63.5 114t-98.5 64t-135 20q-85 0 -150 -32.5t-109.5 -93.5
t-67 -150t-22.5 -201v-315q0 -111 21.5 -201.5t64 -154.5t106 -99t148.5 -35q80 0 140 18.5t101 61.5t64.5 113.5t31.5 174.5h116z" />
    <glyph glyph-name="D" unicode="D" horiz-adv-x="1167" 
d="M172 0v1456h343q115 0 210.5 -38t163.5 -112t105.5 -183t37.5 -250v-291q0 -141 -37.5 -250t-106 -182.5t-165.5 -111.5t-216 -38h-335zM286 1348v-1242h221q98 0 174.5 31t129.5 91.5t80.5 149.5t27.5 204v294q0 117 -28 205t-80 147.5t-127 89.5t-169 30h-229z" />
    <glyph glyph-name="E" unicode="E" horiz-adv-x="1018" 
d="M851 697h-565v-591h650v-106h-764v1456h759v-108h-645v-545h565v-106z" />
    <glyph glyph-name="F" unicode="F" horiz-adv-x="1004" 
d="M846 678h-560v-678h-114v1456h758v-108h-644v-562h560v-108z" />
    <glyph glyph-name="G" unicode="G" horiz-adv-x="1215" 
d="M1059 169q-17 -22 -49 -54t-83.5 -62t-124.5 -51.5t-170 -21.5q-109 0 -198.5 37.5t-153 111.5t-98.5 183.5t-35 253.5v334q0 141 31.5 249t91.5 180.5t147 109.5t198 37q103 0 182.5 -29t135 -84t87 -135.5t38.5 -182.5h-114q-8 75 -29.5 135t-61 102t-98 64t-139.5 22
q-178 0 -266.5 -118.5t-88.5 -347.5v-336q0 -118 26 -207.5t74 -150t116.5 -91.5t154.5 -31q69 0 122 14t91 33.5t62 40t37 33.5v379h-319v107h434v-524z" />
    <glyph glyph-name="H" unicode="H" horiz-adv-x="1259" 
d="M1085 0h-115v697h-684v-697h-114v1456h114v-653h684v653h115v-1456z" />
    <glyph glyph-name="I" unicode="I" horiz-adv-x="500" 
d="M307 0h-114v1456h114v-1456z" />
    <glyph glyph-name="J" unicode="J" horiz-adv-x="987" 
d="M707 1456h115v-1023q0 -110 -28 -194.5t-78 -142t-118.5 -87t-148.5 -29.5q-83 0 -151.5 25.5t-117.5 78t-76 131.5t-27 186h114q0 -158 68.5 -236.5t189.5 -78.5q54 0 101 22t82 66t55 108.5t20 150.5v1023z" />
    <glyph glyph-name="K" unicode="K" horiz-adv-x="1124" 
d="M455 718l-169 -196v-522h-114v1456h114v-776l160 200l451 576h143l-508 -648l547 -808h-139z" />
    <glyph glyph-name="L" unicode="L" horiz-adv-x="950" 
d="M287 106h600v-106h-715v1456h115v-1350z" />
    <glyph glyph-name="M" unicode="M" horiz-adv-x="1531" 
d="M323 1456l441 -1281l443 1281h151v-1456h-114v633l10 633l-446 -1266h-88l-444 1260l10 -627v-633h-114v1456h151z" />
    <glyph glyph-name="N" unicode="N" horiz-adv-x="1262" 
d="M1088 0h-114l-687 1240v-1240h-115v1456h115l688 -1242v1242h113v-1456z" />
    <glyph glyph-name="O" unicode="O" horiz-adv-x="1208" 
d="M1075 570q0 -144 -32.5 -254.5t-93.5 -185t-148 -112.5t-196 -38q-108 0 -195 38t-149 112.5t-95.5 185t-33.5 254.5v314q0 144 33 254.5t94.5 185.5t148.5 113.5t195 38.5q109 0 196.5 -38.5t148.5 -113.5t94 -185.5t33 -254.5v-314zM960 886q0 239 -92 359t-265 120
q-169 0 -263 -120t-94 -359v-316q0 -240 95 -360.5t264 -120.5q174 0 264.5 120t90.5 361v316z" />
    <glyph glyph-name="P" unicode="P" horiz-adv-x="1104" 
d="M286 592v-592h-114v1456h423q102 0 179.5 -32t130 -89.5t79 -137.5t26.5 -176q0 -101 -26.5 -181t-79 -135t-130 -84t-179.5 -29h-309zM286 699h309q80 0 137 24.5t93.5 67.5t53.5 101.5t17 126.5q0 66 -17 126t-53.5 105t-93.5 71.5t-137 26.5h-309v-649z" />
    <glyph glyph-name="Q" unicode="Q" horiz-adv-x="1208" 
d="M1071 570q0 -195 -58 -326.5t-165 -198.5l219 -220l-78 -79l-250 252q-65 -18 -139 -18q-107 0 -194.5 38t-149 113t-95 185t-33.5 254v314q0 144 33 254.5t94.5 185.5t148.5 113.5t194 38.5q109 0 197 -38.5t149 -113.5t94 -185.5t33 -254.5v-314zM956 886
q0 239 -92 359t-266 120q-168 0 -262 -120t-94 -359v-316q0 -240 95 -360.5t263 -120.5q175 0 265.5 120t90.5 361v316z" />
    <glyph glyph-name="R" unicode="R" horiz-adv-x="1126" 
d="M625 606h-340v-606h-115v1456h399q97 0 174.5 -28t131.5 -82.5t83 -134.5t29 -184q0 -72 -18 -135t-51 -114t-79.5 -88.5t-102.5 -57.5l303 -619v-13h-122zM285 712h304q70 0 123.5 26t88.5 69.5t53 100.5t18 119q0 74 -19.5 133.5t-58 101t-95 64t-130.5 22.5h-284v-636
z" />
    <glyph glyph-name="S" unicode="S" horiz-adv-x="1059" 
d="M856 358q0 60 -15.5 106.5t-53 84.5t-100.5 70t-157 64q-92 31 -165.5 67.5t-125.5 85t-80 113t-28 150.5q0 84 30.5 153.5t85 119t130 77t166.5 27.5q98 0 176 -34t133 -93t84 -138.5t29 -170.5h-115q0 71 -20.5 131t-59.5 104t-96 68.5t-131 24.5t-129.5 -21
t-92.5 -57.5t-56 -85t-19 -103.5q0 -52 16.5 -95.5t54.5 -80.5t99.5 -69.5t150.5 -61.5q98 -32 173.5 -70.5t127 -89.5t78 -118.5t26.5 -155.5q0 -89 -31.5 -159.5t-87.5 -119.5t-133 -75t-169 -26q-82 0 -164 25t-147 77.5t-106 135t-41 198.5h114q0 -92 30.5 -155
t79.5 -102t110.5 -56t123.5 -17q70 0 126.5 19.5t96 55t61 85.5t21.5 112z" />
    <glyph glyph-name="T" unicode="T" horiz-adv-x="1067" 
d="M1005 1348h-414v-1348h-115v1348h-413v108h942v-108z" />
    <glyph glyph-name="U" unicode="U" horiz-adv-x="1168" 
d="M1018 1456v-1027q0 -123 -34.5 -208.5t-93.5 -139t-137.5 -77.5t-167.5 -24q-92 0 -171 24t-137.5 77.5t-91.5 139t-33 208.5v1027h114v-1027q0 -95 23.5 -160.5t66 -106t101 -58.5t128.5 -18t128.5 18t100.5 58.5t65.5 106t23.5 160.5v1027h115z" />
    <glyph glyph-name="V" unicode="V" horiz-adv-x="1107" 
d="M550 182l3 -16l4 16l380 1274h126l-455 -1456h-108l-455 1456h125z" />
    <glyph glyph-name="W" unicode="W" horiz-adv-x="1579" 
d="M405 396l35 -216l44 206l261 1070h102l257 -1070l43 -208l38 218l215 1060h116l-310 -1456h-108l-273 1135l-29 135l-28 -135l-279 -1135h-109l-309 1456h117z" />
    <glyph glyph-name="X" unicode="X" horiz-adv-x="1097" 
d="M549 842l335 614h136l-401 -718l413 -738h-137l-346 633l-347 -633h-136l415 738l-403 718h136z" />
    <glyph glyph-name="Y" unicode="Y" horiz-adv-x="1070" 
d="M534 664l363 792h131l-438 -908v-548h-114v548l-437 908h134z" />
    <glyph glyph-name="Z" unicode="Z" horiz-adv-x="1069" 
d="M228 106h749v-106h-882v95l720 1254h-700v107h835v-91z" />
    <glyph glyph-name="bracketleft" unicode="[" horiz-adv-x="461" 
d="M439 1560h-174v-1768h174v-104h-285v1976h285v-104z" />
    <glyph glyph-name="backslash" unicode="\" horiz-adv-x="723" 
d="M59 1456h108l510 -1581h-107z" />
    <glyph glyph-name="bracketright" unicode="]" horiz-adv-x="461" 
d="M21 1664h286v-1976h-286v104h175v1768h-175v104z" />
    <glyph glyph-name="asciicircum" unicode="^" horiz-adv-x="756" 
d="M374 1295l-185 -566h-107l252 727h81l250 -727h-106z" />
    <glyph glyph-name="underscore" unicode="_" horiz-adv-x="789" 
d="M767 -103h-746v103h746v-103z" />
    <glyph glyph-name="grave" unicode="`" horiz-adv-x="585" 
d="M438 1245h-109l-226 280h144z" />
    <glyph glyph-name="a" unicode="a" horiz-adv-x="964" 
d="M720 0q-8 27 -13 67.5t-7 82.5q-21 -34 -50 -64.5t-66.5 -54t-83.5 -37.5t-99 -14q-67 0 -121.5 19t-93.5 57t-60 95t-21 133q0 75 26 138.5t77.5 109.5t128.5 72t179 26h183v151q0 116 -57.5 166.5t-168.5 50.5q-52 0 -95.5 -16t-74.5 -44.5t-48 -68t-17 -86.5l-111 1
q0 63 25 120.5t71 101.5t111 70t144 26q73 0 133.5 -17.5t104.5 -56t68.5 -100t24.5 -149.5v-552q0 -28 2 -58t5.5 -58.5t9 -54t12.5 -44.5v-12h-118zM415 87q52 0 97.5 14.5t81.5 40t62.5 59.5t42.5 73v263h-167q-157 0 -236 -66t-79 -178q0 -107 52.5 -156.5t145.5 -49.5z
" />
    <glyph glyph-name="b" unicode="b" horiz-adv-x="996" 
d="M887 490q0 -131 -23.5 -227t-68 -159t-109 -93.5t-147.5 -30.5q-101 0 -170.5 44t-112.5 121l-5 -145h-103v1536h110v-605q43 81 111 126t168 45q84 0 149 -29t109.5 -91t68 -158.5t23.5 -232.5v-101zM776 591q0 206 -61 305t-200 99q-54 0 -96 -16t-73 -43t-52.5 -62.5
t-35.5 -73.5v-536q15 -38 38.5 -70.5t55.5 -56.5t73 -37.5t92 -13.5q134 0 196.5 98t62.5 306v101z" />
    <glyph glyph-name="c" unicode="c" horiz-adv-x="929" 
d="M490 83q46 0 89 12t76.5 41t55 77.5t24.5 121.5h107q-4 -87 -33 -153.5t-77 -111t-110 -67.5t-132 -23q-195 0 -293.5 126t-98.5 374v122q0 248 98.5 374t292.5 126q74 0 137.5 -23.5t110 -71t74.5 -120t31 -170.5h-107q-3 75 -23 128.5t-52.5 87.5t-76 49.5t-94.5 15.5
q-77 0 -130 -26.5t-86 -77.5t-48 -124.5t-15 -167.5v-122q0 -95 14.5 -169t47.5 -124.5t86.5 -77t131.5 -26.5z" />
    <glyph glyph-name="d" unicode="d" horiz-adv-x="999" 
d="M108 591q0 136 24.5 232.5t70.5 158.5t111.5 91t146.5 29q97 0 164.5 -43.5t110.5 -121.5v599h111v-1536h-104l-5 139q-43 -75 -111.5 -117t-166.5 -42q-81 0 -146 30.5t-110.5 93.5t-70.5 159t-25 227v101zM221 490q0 -208 62.5 -306t198.5 -98q49 0 88.5 12.5t71 35
t54.5 53t40 66.5v561q-15 36 -37 69t-52.5 57.5t-71 39.5t-92.5 15q-137 0 -199.5 -98.5t-62.5 -305.5v-101z" />
    <glyph glyph-name="e" unicode="e" horiz-adv-x="937" 
d="M505 -20q-90 0 -165 29.5t-129.5 90t-84.5 152.5t-30 218v123q0 136 32 232.5t85.5 158t124 90t148.5 28.5q178 0 270.5 -117.5t92.5 -359.5v-94h-643v-61q0 -99 22 -172t62 -121t96 -71.5t124 -23.5q84 0 146 28.5t113 88.5l58 -74q-22 -30 -51.5 -56t-69 -46
t-89.5 -31.5t-112 -11.5zM486 998q-59 0 -108.5 -20t-86 -63.5t-58.5 -112.5t-26 -167h531v29q-2 79 -18 141t-46.5 105t-77.5 65.5t-110 22.5z" />
    <glyph glyph-name="f" unicode="f" horiz-adv-x="615" 
d="M221 0v982h-149v100h149v133q0 166 73 254t202 88q26 0 53.5 -4t53.5 -13l-8 -102q-20 5 -42 8t-48 3q-81 0 -126.5 -60.5t-45.5 -173.5v-133h212v-100h-212v-982h-112z" />
    <glyph glyph-name="g" unicode="g" horiz-adv-x="996" 
d="M109 591q0 136 24 232.5t69.5 158.5t111 91t147.5 29q99 0 167 -45t111 -126l6 151h103v-1108q0 -106 -25.5 -182.5t-73 -126t-114.5 -73t-150 -23.5q-41 0 -85 10t-86.5 29.5t-80.5 47t-65 63.5l52 80q56 -64 121 -95.5t136 -31.5q63 0 111.5 16t81 51.5t49.5 92
t17 137.5v166q-43 -73 -111 -114t-165 -41q-81 0 -146 30.5t-110.5 93.5t-70 159t-24.5 227v101zM221 490q0 -208 63 -306t198 -98q50 0 90 13t71 36t54 54t39 68v553q-15 37 -36.5 70.5t-52 59t-71 40.5t-92.5 15q-137 0 -200 -98.5t-63 -305.5v-101z" />
    <glyph glyph-name="h" unicode="h" horiz-adv-x="985" 
d="M259 912q48 87 121.5 138.5t168.5 51.5q68 0 121.5 -22t91 -70t57.5 -123.5t20 -182.5v-704h-110v705q0 83 -14.5 139t-41.5 89.5t-65.5 48t-86.5 14.5q-50 0 -91.5 -20.5t-74.5 -54.5t-57 -78t-39 -92v-751h-111v1536h111v-624z" />
    <glyph glyph-name="i" unicode="i" horiz-adv-x="431" 
d="M272 0h-112v1082h112v-1082zM144 1394q0 34 19 58t54 24t54.5 -24t19.5 -58t-19.5 -57.5t-54.5 -23.5t-54 23.5t-19 57.5z" />
    <glyph glyph-name="j" unicode="j" horiz-adv-x="436" 
d="M267 1082v-1211q0 -150 -60.5 -229t-178.5 -79q-21 0 -45 5t-44 14l1 101q15 -5 36 -9t38 -4q69 0 105.5 49.5t36.5 151.5v1211h111zM139 1394q0 34 18.5 58t53.5 24t54.5 -24t19.5 -58t-19.5 -57.5t-54.5 -23.5t-53.5 23.5t-18.5 57.5z" />
    <glyph glyph-name="k" unicode="k" horiz-adv-x="888" 
d="M373 541l-113 -126v-415h-112v1536h112v-977l93 118l335 405h138l-380 -457l416 -625h-132z" />
    <glyph glyph-name="l" unicode="l" horiz-adv-x="431" 
d="M272 0h-112v1536h112v-1536z" />
    <glyph glyph-name="m" unicode="m" horiz-adv-x="1561" 
d="M250 1082l3 -162q46 83 118.5 132.5t171.5 49.5q97 0 167.5 -47.5t102.5 -151.5q22 43 52.5 80t69.5 63t85 41t100 15q71 0 126.5 -22.5t94 -71t58.5 -123.5t20 -180v-705h-111v706q0 85 -15.5 141t-44 89.5t-68.5 46.5t-88 13q-60 -1 -106 -26.5t-78 -65t-49.5 -88.5
t-21.5 -96v-720h-112v715q0 80 -15.5 134t-44 86.5t-68.5 46.5t-88 14q-54 0 -96 -20.5t-73 -54t-52 -77.5t-33 -91v-753h-111v1082h106z" />
    <glyph glyph-name="n" unicode="n" horiz-adv-x="986" 
d="M254 1082l3 -172q48 88 122.5 140t169.5 52q68 0 121.5 -22t91 -70t57.5 -123.5t20 -182.5v-704h-110v705q0 83 -14.5 139t-41.5 89.5t-65.5 48t-86.5 14.5q-50 0 -91.5 -20.5t-74.5 -54.5t-57 -78t-39 -92v-751h-111v1082h106z" />
    <glyph glyph-name="o" unicode="o" horiz-adv-x="1005" 
d="M106 596q0 123 29 217t81 158.5t124.5 97.5t160.5 33q89 0 162 -33t125 -97.5t80.5 -158.5t28.5 -217v-112q0 -123 -28.5 -217t-80.5 -157.5t-124.5 -96.5t-160.5 -33q-89 0 -162 33t-125 96.5t-81 157.5t-29 217v112zM218 484q0 -93 19 -167t55.5 -126t89.5 -80t121 -28
q72 0 125 28t88 80t52.5 126t17.5 167v112q0 91 -19 165.5t-55.5 127t-89.5 81t-121 28.5q-67 0 -119.5 -28.5t-89 -81t-55.5 -127t-19 -165.5v-112z" />
    <glyph glyph-name="p" unicode="p" horiz-adv-x="996" 
d="M886 490q0 -131 -23.5 -227t-67.5 -159t-109 -93.5t-147 -30.5q-98 0 -167.5 39.5t-113.5 110.5v-546h-110v1498h102l5 -148q45 79 114 123.5t167 44.5q84 0 149 -29t110 -91t68 -158.5t23 -232.5v-101zM775 591q0 208 -64.5 306t-201.5 98q-51 0 -91.5 -14.5t-71 -39.5
t-52 -57t-36.5 -68v-570q16 -35 39.5 -65t54.5 -52t70.5 -34t88.5 -12q135 0 199.5 99.5t64.5 307.5v101z" />
    <glyph glyph-name="q" unicode="q" horiz-adv-x="1003" 
d="M108 591q0 136 24 232.5t70 158.5t111.5 91t149.5 29q95 0 162.5 -42t111.5 -118l6 140h104v-1498h-112v542q-45 -69 -112 -107.5t-161 -38.5q-83 0 -149 30.5t-111.5 93.5t-69.5 159t-24 227v101zM221 490q0 -208 63.5 -307.5t199.5 -99.5q94 0 155 44.5t96 114.5v583
q-16 34 -38.5 65.5t-53 55.5t-70 38t-88.5 14q-137 0 -200.5 -99.5t-63.5 -307.5v-101z" />
    <glyph glyph-name="r" unicode="r" horiz-adv-x="619" 
d="M572 978q-17 3 -33.5 5t-36.5 2q-49 0 -88.5 -17.5t-69.5 -49t-51.5 -75.5t-33.5 -96v-747h-111v1082h109l2 -162q37 85 98 133.5t150 48.5q18 0 38 -4t29 -9z" />
    <glyph glyph-name="s" unicode="s" horiz-adv-x="914" 
d="M689 266q0 33 -12.5 62t-41 56t-75 55t-115.5 60q-74 33 -132 63.5t-97.5 66t-60.5 80t-21 105.5q0 60 22.5 112.5t64.5 91.5t102 61.5t134 22.5q79 0 142 -23.5t106.5 -65.5t66.5 -100.5t23 -127.5h-111q0 42 -15 80.5t-44 68t-71 47t-97 17.5q-57 0 -97 -15.5t-66 -41
t-38 -58t-12 -65.5t10 -58.5t36.5 -49.5t71.5 -49.5t116 -59.5q75 -33 135 -64t101.5 -68.5t64 -84.5t22.5 -112q0 -67 -24 -121t-68.5 -92t-107 -58.5t-138.5 -20.5q-88 0 -155 25.5t-112.5 68.5t-69 100t-23.5 121h112q3 -64 26.5 -105t58.5 -65t78 -33t85 -9
q55 0 97.5 14.5t71 39t43 58t14.5 71.5z" />
    <glyph glyph-name="t" unicode="t" horiz-adv-x="594" 
d="M315 1358v-276h185v-100h-185v-719q0 -56 9.5 -90.5t25.5 -53.5t36.5 -25.5t43.5 -6.5q22 0 43 3.5t37 6.5l3 -100q-18 -8 -47.5 -12.5t-61.5 -4.5q-43 0 -79.5 14t-63.5 47t-42 87.5t-15 135.5v718h-167v100h167v276h111z" />
    <glyph glyph-name="u" unicode="u" horiz-adv-x="986" 
d="M728 129q-43 -70 -112.5 -109.5t-172.5 -39.5q-67 0 -122 22.5t-94 71.5t-60.5 126.5t-21.5 188.5v693h110v-695q0 -86 16 -143.5t44 -92.5t64.5 -50t77.5 -15q58 0 102.5 15t77 42t54.5 64.5t35 82.5v792h112v-1082h-108z" />
    <glyph glyph-name="v" unicode="v" horiz-adv-x="869" 
d="M435 174l266 908h114l-337 -1082h-88l-339 1082h114z" />
    <glyph glyph-name="w" unicode="w" horiz-adv-x="1336" 
d="M376 246l9 -60l12 65l221 831h93l219 -824l16 -85l13 76l187 833h114l-265 -1082h-93l-235 860l-5 26l-4 -27l-231 -859h-94l-263 1082h113z" />
    <glyph glyph-name="x" unicode="x" horiz-adv-x="880" 
d="M438 645l237 437h131l-307 -531l319 -551h-130l-249 455l-250 -455h-130l318 551l-306 531h130z" />
    <glyph glyph-name="y" unicode="y" horiz-adv-x="857" 
d="M436 183l258 899h119l-381 -1255q-12 -37 -30 -83t-48 -86t-73.5 -67.5t-105.5 -27.5q-9 0 -20 1.5t-22.5 3.5t-21.5 4.5t-16 4.5l-1 102q10 -3 26.5 -5t24.5 -2q40 0 70.5 12.5t54 37t41.5 61t32 84.5l42 140l-340 1075h122z" />
    <glyph glyph-name="z" unicode="z" horiz-adv-x="880" 
d="M225 103h584v-103h-716v90l547 887h-532v105h667v-91z" />
    <glyph glyph-name="braceleft" unicode="{" horiz-adv-x="610" 
d="M554 -402q-82 29 -137 75.5t-88.5 106t-47.5 131t-14 149.5v225q0 58 -10.5 106t-34 81.5t-59.5 52t-87 18.5v106q51 0 87 18t59.5 51.5t34 80.5t10.5 106v227q0 79 14 150.5t47.5 132t88.5 107t137 75.5l24 -81q-55 -21 -93 -58t-61.5 -87t-34 -110.5t-10.5 -128.5v-227
q0 -53 -9 -100.5t-28.5 -87t-49.5 -71t-71 -50.5q41 -20 71 -51.5t49.5 -72t28.5 -88t9 -99.5v-225q0 -68 11 -128t35 -109t62 -85.5t93 -58.5z" />
    <glyph glyph-name="bar" unicode="|" horiz-adv-x="452" 
d="M279 -270h-101v1726h101v-1726z" />
    <glyph glyph-name="braceright" unicode="}" horiz-adv-x="610" 
d="M29 -321q55 22 93.5 58.5t62.5 85.5t35 109t11 128v225q0 53 9.5 101t29.5 88.5t51 71t74 49.5q-43 19 -74 49.5t-51 70.5t-29.5 88t-9.5 102v227q0 68 -10.5 128.5t-34.5 110.5t-62 87t-93 58l24 81q82 -29 137.5 -75.5t88.5 -107t47 -132t14 -150.5v-227q0 -59 11 -106
t34 -80.5t59 -51.5t87 -18v-106q-51 0 -87 -18.5t-59 -52t-34 -81.5t-11 -106v-225q0 -78 -14 -149.5t-47 -131t-88.5 -106t-137.5 -75.5z" />
    <glyph glyph-name="asciitilde" unicode="~" horiz-adv-x="1216" 
d="M1075 765q0 -69 -17.5 -131.5t-50.5 -109.5t-80 -74.5t-105 -27.5q-38 0 -69.5 9.5t-60.5 27.5t-58.5 45t-62.5 62l-47.5 49.5t-42.5 35.5t-42.5 21t-45.5 7q-73 0 -113.5 -59.5t-40.5 -170.5l-100 -1q0 71 17.5 133t50 108t79.5 72.5t107 26.5q37 0 68.5 -10t61.5 -28.5
t59.5 -45t61.5 -60.5q26 -30 48 -51.5t43 -35t42 -20t45 -6.5q37 0 66 16.5t49.5 47.5t31.5 74t11 96h95z" />
    <glyph glyph-name="exclamdown" unicode="&#xa1;" horiz-adv-x="427" 
d="M165 689h103l7 -1048h-116zM285 1021q0 -34 -19.5 -58t-54.5 -24t-54.5 24t-19.5 58t19.5 57.5t54.5 23.5t54.5 -23.5t19.5 -57.5z" />
    <glyph glyph-name="cent" unicode="&#xa2;" horiz-adv-x="977" 
d="M509 83q46 0 89 12t76.5 41t55 77.5t24.5 121.5h107q-3 -79 -27.5 -141t-65 -106.5t-94 -71t-114.5 -33.5v-228h-111v229q-165 19 -248.5 143t-83.5 353v122q0 228 83.5 352.5t248.5 143.5v220h111v-219q64 -8 118 -35t93.5 -74.5t63 -115.5t26.5 -157h-107
q-3 75 -23 128.5t-52.5 87.5t-76 49.5t-94.5 15.5q-77 0 -130 -26.5t-86 -77.5t-48 -124.5t-15 -167.5v-122q0 -95 14.5 -169t47.5 -124.5t86.5 -77t131.5 -26.5z" />
    <glyph glyph-name="sterling" unicode="&#xa3;" horiz-adv-x="1026" 
d="M366 644l8 -275q1 -83 -13 -150.5t-43 -112.5h626v-106h-843v106h79q22 7 37.5 34.5t25 65t13.5 81t3 82.5l-8 275h-153v107h150l-7 288q0 103 25.5 184.5t71.5 137.5t110 85.5t140 29.5q79 0 141 -28.5t105 -79.5t65 -122.5t22 -157.5h-114q0 75 -18.5 128.5t-50 87
t-72.5 49.5t-87 16q-49 0 -90 -21.5t-70.5 -63.5t-46 -103.5t-16.5 -141.5l7 -288h286v-107h-283z" />
    <glyph glyph-name="currency" unicode="&#xa4;" horiz-adv-x="1481" 
d="M1131 133q-78 -72 -178 -112.5t-213 -40.5t-213 40t-178 112l-155 -158l-85 88l158 160q-58 80 -90.5 177.5t-32.5 208.5q0 115 34.5 215.5t97.5 180.5l-167 171l85 89l167 -170q78 66 174 103t205 37t205 -37.5t174 -104.5l170 173l86 -90l-170 -174q60 -80 94.5 -179.5
t34.5 -213.5q0 -110 -32 -206.5t-89 -175.5l162 -164l-86 -89zM257 608q0 -107 38 -201t104 -163.5t154 -110t187 -40.5t186.5 40.5t153 110t103.5 163.5t38 201q0 106 -38 199.5t-103.5 163t-153 109.5t-186.5 40t-187 -40t-154 -109.5t-104 -163t-38 -199.5z" />
    <glyph glyph-name="yen" unicode="&#xa5;" horiz-adv-x="1070" 
d="M531 747l344 709h133l-377 -749h301v-91h-345v-202h345v-90h-345v-324h-115v324h-342v90h342v202h-342v91h302l-377 749h132z" />
    <glyph glyph-name="brokenbar" unicode="&#xa6;" horiz-adv-x="444" 
d="M159 -270v772h120v-772h-120zM279 698h-120v758h120v-758z" />
    <glyph glyph-name="section" unicode="&#xa7;" horiz-adv-x="1083" 
d="M964 431q0 -99 -51.5 -168.5t-142.5 -103.5q76 -47 116.5 -117.5t40.5 -179.5q0 -84 -28.5 -150.5t-80.5 -112.5t-125 -70t-163 -24q-79 0 -155.5 22t-136.5 72t-97 132.5t-37 204.5l111 2q0 -94 28.5 -157t74 -101.5t101.5 -54.5t111 -16q69 0 122 19t89 52.5t55 79.5
t19 100q0 52 -14 91.5t-49 72.5t-94.5 62t-149.5 59q-92 28 -166 61.5t-125.5 80.5t-79.5 111t-28 153q0 100 49 170t137 104q-72 48 -110.5 117t-38.5 177q0 81 28.5 147t80.5 112.5t125.5 72t164.5 25.5q93 0 167.5 -28.5t126 -83t79 -135t27.5 -184.5h-111
q0 67 -18.5 127t-55.5 104t-91 70t-124 26q-74 0 -128.5 -20t-89.5 -54t-52 -79.5t-17 -96.5q0 -56 13.5 -97t48 -74t94.5 -61.5t153 -60.5q94 -29 168 -61.5t125 -77.5t77.5 -107.5t26.5 -151.5zM522 727q-68 20 -121 43q-47 -8 -81 -27t-56 -47.5t-33 -65t-11 -77.5
q0 -58 14.5 -99.5t51.5 -74.5t101 -62.5t163 -63.5q29 -9 55 -18.5l51 -19.5q47 7 84 26.5t62 47.5t38 63.5t13 75.5q0 54 -16 95t-54.5 75.5t-102 65t-158.5 63.5z" />
    <glyph glyph-name="dieresis" unicode="&#xa8;" horiz-adv-x="881" 
d="M143 1395q0 35 21.5 58.5t60.5 23.5q38 0 60.5 -23.5t22.5 -58.5q0 -34 -22.5 -57t-60.5 -23q-39 0 -60.5 23t-21.5 57zM580 1394q0 35 22 58.5t60 23.5q39 0 61 -23.5t22 -58.5q0 -34 -22 -57t-61 -23q-38 0 -60 23t-22 57z" />
    <glyph glyph-name="copyright" unicode="&#xa9;" horiz-adv-x="1637" 
d="M1121 606q0 -79 -22 -138t-63 -98t-99 -58.5t-130 -19.5q-76 0 -137.5 28t-105 79t-67 122.5t-23.5 157.5v98q0 86 23.5 157t67 122t105 79.5t137.5 28.5q72 0 130 -19.5t99.5 -58.5t63.5 -98t22 -137h-99q0 115 -55 168t-161 53q-57 0 -100.5 -22.5t-73 -62t-45 -93
t-15.5 -116.5v-99q0 -63 15.5 -117t45 -93.5t73 -61.5t100.5 -22q105 0 160 52t55 169h99zM192 729q0 -93 22.5 -178.5t63 -159t98 -133.5t127 -102.5t149 -66t165.5 -23.5q85 0 164.5 23.5t149 66t126.5 102.5t98 133.5t63.5 159t22.5 178.5q0 139 -49.5 259.5t-134.5 209
t-198.5 139.5t-241.5 51q-86 0 -165.5 -23t-149 -65.5t-127 -102t-98 -132.5t-63 -158t-22.5 -178zM107 729q0 106 25.5 202.5t71.5 179.5t111 150.5t144 115t169.5 73.5t188.5 26t188.5 -26t169 -73.5t143.5 -115t111 -150.5t71.5 -179.5t25.5 -202.5t-25.5 -202.5
t-71.5 -180t-111 -151t-143.5 -116t-169 -74.5t-188.5 -26t-188.5 26t-169.5 74.5t-144 116t-111 151t-71.5 180t-25.5 202.5z" />
    <glyph glyph-name="ordfeminine" unicode="&#xaa;" horiz-adv-x="802" 
d="M560 705q-5 21 -9.5 44t-7.5 47q-27 -42 -73.5 -73.5t-110.5 -31.5q-101 0 -155 59.5t-54 158.5q0 110 70 170.5t208 60.5h112v61q0 85 -31.5 131t-97.5 46q-72 0 -113.5 -35t-41.5 -107l-99 7q0 51 18 93.5t51.5 73.5t80.5 48.5t104 17.5q51 0 93 -17.5t72.5 -52t47 -86
t16.5 -120.5v-314q0 -49 5.5 -93t16.5 -88h-102zM379 788q23 0 47 8.5t45.5 22t39 31.5t29.5 37v170h-111q-89 0 -134 -37.5t-45 -106.5q0 -57 30.5 -91t98.5 -34z" />
    <glyph glyph-name="guillemotleft" unicode="&#xab;" horiz-adv-x="828" 
d="M232 537l229 -389h-93l-248 380v19l248 379h93zM495 537l229 -389h-93l-248 380v19l248 379h93z" />
    <glyph glyph-name="logicalnot" unicode="&#xac;" horiz-adv-x="981" 
d="M810 385h-112v283h-574v109h686v-392z" />
    <glyph glyph-name="registered" unicode="&#xae;" horiz-adv-x="1642" 
d="M102 729q0 106 25.5 202.5t71.5 179.5t111 150.5t144 115t169.5 73.5t188.5 26t188.5 -26t169.5 -73.5t144 -115t111 -150.5t71.5 -179.5t25.5 -202.5t-25.5 -202.5t-71.5 -180t-111 -151t-144 -116t-169.5 -74.5t-188.5 -26t-188.5 26t-169.5 74.5t-144 116t-111 151
t-71.5 180t-25.5 202.5zM187 729q0 -93 22.5 -178.5t63.5 -159t98 -133.5t126.5 -102.5t149 -66t165.5 -23.5t165.5 23.5t149 66t126.5 102.5t97.5 133.5t63 159t22.5 178.5t-22.5 178t-63 158t-97.5 132.5t-126.5 102t-149 65.5t-165.5 23t-165.5 -23t-149 -65.5
t-126.5 -102t-98 -132.5t-63.5 -158t-22.5 -178zM650 666v-345h-98v839h258q147 0 226 -61.5t79 -186.5q0 -68 -36.5 -117t-103.5 -80q36 -13 60 -33.5t39 -47t21.5 -58.5t6.5 -67v-45q0 -38 4 -71t13 -56v-16h-102q-5 13 -8 33t-4.5 41t-1.5 40v30v43q0 83 -37 120.5
t-128 37.5h-188zM650 758h181q37 0 71 10t59.5 29t40.5 47.5t15 65.5q0 42 -10.5 72t-34.5 49.5t-64 28.5t-98 9h-160v-311z" />
    <glyph glyph-name="macron" unicode="&#xaf;" horiz-adv-x="784" 
d="M681 1357h-570v99h570v-99z" />
    <glyph glyph-name="macron" unicode="&#x2c9;" horiz-adv-x="784" 
d="M681 1357h-570v99h570v-99z" />
    <glyph glyph-name="degree" unicode="&#xb0;" horiz-adv-x="774" 
d="M143 1226q0 51 19.5 96.5t53 79.5t78 54t94.5 20t94 -20t77 -54t52 -79.5t19 -96.5q0 -52 -19 -97t-52 -78.5t-77 -52.5t-94 -19t-94.5 19t-78 52.5t-53 78.5t-19.5 97zM233 1226q0 -33 12 -61.5t33 -49.5t49 -32.5t61 -11.5t61 11.5t48 32.5t31.5 49.5t11.5 61.5
q0 34 -11.5 63t-31.5 50t-48 33t-61 12t-61 -12t-49 -33t-33 -50t-12 -63z" />
    <glyph glyph-name="plusminus" unicode="&#xb1;" horiz-adv-x="954" 
d="M538 830h325v-103h-325v-438h-101v438h-344v103h344v437h101v-437zM830 0h-701v104h701v-104z" />
    <glyph glyph-name="twosuperior" unicode="&#xb2;" horiz-adv-x="664" 
d="M583 665h-484v76l242 283q61 71 87 121.5t26 91.5q0 62 -33 100t-96 38q-37 0 -64.5 -12t-45.5 -33.5t-27 -51t-9 -63.5h-97q0 51 16.5 96.5t47.5 79.5t76 54t101 20q52 0 94.5 -15.5t72 -45t45.5 -71.5t16 -95q0 -38 -12 -74t-33 -71t-49.5 -70.5t-61.5 -72.5l-174 -196
h362v-89z" />
    <glyph glyph-name="threesuperior" unicode="&#xb3;" horiz-adv-x="664" 
d="M244 1107h66q37 0 65 10.5t46.5 28.5t28 42.5t9.5 52.5t-8 52.5t-24.5 42.5t-42 28.5t-60.5 10.5q-29 0 -54.5 -9t-44 -26t-29 -41t-10.5 -54h-97q0 50 18.5 90.5t50 69.5t74 44.5t91.5 15.5q52 0 95 -14.5t73.5 -43t47.5 -70t17 -94.5q0 -57 -31.5 -104t-90.5 -71
q68 -21 101.5 -69t33.5 -119q0 -54 -18.5 -96t-51.5 -71t-78 -44t-97 -15q-46 0 -90 13.5t-78.5 42t-56 71.5t-21.5 103h98q0 -31 11 -57t31 -45t48 -29.5t61 -10.5q70 0 108 38t38 104q0 76 -44.5 108.5t-118.5 32.5h-66v82z" />
    <glyph glyph-name="acute" unicode="&#xb4;" horiz-adv-x="576" 
d="M315 1525h145l-231 -280h-105z" />
    <glyph glyph-name="mu" unicode="&#xb5;" horiz-adv-x="1001" 
d="M265 1082v-632q0 -112 17.5 -183t46.5 -112t68 -56.5t82 -15.5q57 0 100 15.5t73.5 43.5t50.5 68t32 89v783h112v-1082h-97l-9 148q-38 -79 -101 -123.5t-154 -44.5q-69 0 -125.5 27.5t-95.5 93.5v-517h-110v1498h110z" />
    <glyph glyph-name="paragraph" unicode="&#xb6;" horiz-adv-x="862" 
d="M586 0v520h-86q-101 0 -178 35t-129 97.5t-79 148.5t-27 187q0 100 27 186t79 148.5t129 98t178 35.5h198v-1456h-112z" />
    <glyph glyph-name="periodcentered" unicode="&#xb7;" horiz-adv-x="467" 
d="M154 717q0 36 20 60.5t56 24.5t56.5 -24.5t20.5 -60.5q0 -35 -20.5 -58.5t-56.5 -23.5t-56 23.5t-20 58.5z" />
    <glyph glyph-name="cedilla" unicode="&#xb8;" horiz-adv-x="460" 
d="M233 0l-10 -64q25 -4 49.5 -14.5t44 -30.5t31 -50.5t11.5 -75.5t-16.5 -81.5t-48 -63t-77.5 -41t-106 -14.5l-6 79q31 0 60.5 7t52.5 21t37 36.5t14 54.5q0 29 -9 48.5t-27 31.5t-45.5 18.5t-64.5 10.5l25 128h85z" />
    <glyph glyph-name="onesuperior" unicode="&#xb9;" horiz-adv-x="610" 
d="M415 670h-98v660l-192 -69v92l277 107h13v-790z" />
    <glyph glyph-name="ordmasculine" unicode="&#xba;" horiz-adv-x="816" 
d="M131 1132q0 75 19 138t55 109t87 71.5t114 25.5q64 0 115 -25.5t86.5 -71.5t54.5 -109t19 -138v-99q0 -75 -19 -138t-54.5 -108.5t-86.5 -71t-114 -25.5q-64 0 -115 25.5t-87 71t-55 108.5t-19 138v99zM231 1033q0 -52 10.5 -97t32 -78t55 -52t78.5 -19q44 0 76.5 19
t54.5 52t32.5 78t10.5 97v99q0 51 -11 96t-32.5 78t-54.5 52.5t-77 19.5t-77 -19.5t-54.5 -52.5t-32.5 -78t-11 -96v-99z" />
    <glyph glyph-name="guillemotright" unicode="&#xbb;" horiz-adv-x="824" 
d="M209 944l248 -384v-19l-248 -380h-95l229 389l-229 394h95zM482 944l248 -384v-19l-248 -380h-95l229 389l-229 394h95z" />
    <glyph glyph-name="onequarter" unicode="&#xbc;" horiz-adv-x="1289" 
d="M402 664h-98v660l-192 -69v92l277 107h13v-790zM372 128l-66 49l597 1138l67 -49zM1096 276h104v-90h-104v-186h-96v186h-332l-3 68l330 535h101v-513zM767 276h233v376l-24 -45z" />
    <glyph glyph-name="onehalf" unicode="&#xbd;" horiz-adv-x="1347" 
d="M335 128l-66 49l597 1138l67 -49zM391 664h-98v660l-192 -69v92l277 107h13v-790zM1233 0h-484v76l242 283q61 71 87 121.5t26 91.5q0 62 -33 100t-96 38q-37 0 -64.5 -12t-45.5 -33.5t-27 -51t-9 -63.5h-97q0 51 16.5 96.5t47.5 79.5t76 54t101 20q52 0 94.5 -15.5
t72 -45t45.5 -71.5t16 -95q0 -38 -12 -74t-33 -71t-49.5 -70.5t-61.5 -72.5l-174 -196h362v-89z" />
    <glyph glyph-name="threequarters" unicode="&#xbe;" horiz-adv-x="1376" 
d="M490 128l-66 49l597 1138l67 -49zM1188 276h104v-90h-104v-186h-96v186h-332l-3 68l330 535h101v-513zM859 276h233v376l-24 -45zM284 1107h66q37 0 65 10.5t46.5 28.5t28 42.5t9.5 52.5t-8 52.5t-24.5 42.5t-42 28.5t-60.5 10.5q-29 0 -54.5 -9t-44 -26t-29 -41
t-10.5 -54h-97q0 50 18.5 90.5t50 69.5t74 44.5t91.5 15.5q52 0 95 -14.5t73.5 -43t47.5 -70t17 -94.5q0 -57 -31.5 -104t-90.5 -71q68 -21 101.5 -69t33.5 -119q0 -54 -18.5 -96t-51.5 -71t-78 -44t-97 -15q-46 0 -90 13.5t-78.5 42t-56 71.5t-21.5 103h98q0 -31 11 -57
t31 -45t48 -29.5t61 -10.5q70 0 108 38t38 104q0 76 -44.5 108.5t-118.5 32.5h-66v82z" />
    <glyph glyph-name="questiondown" unicode="&#xbf;" horiz-adv-x="834" 
d="M489 687q-1 -64 -6.5 -108t-20 -80t-38.5 -70.5t-62 -79.5l-61 -75.5t-51.5 -77.5t-35.5 -90.5t-13 -113.5q0 -128 55 -197t159 -69q46 0 85.5 17.5t68 50t45 79.5t16.5 107h111q-1 -88 -26 -156t-69 -114t-103 -69.5t-128 -23.5q-77 0 -137 26t-101.5 74.5t-63.5 117.5
t-22 155q0 72 17 133t45.5 115t66 103t79.5 96q26 27 41.5 54.5t23.5 57.5t10.5 64t2.5 74h112zM501 1021q0 -35 -19 -58.5t-54 -23.5t-54.5 23.5t-19.5 58.5q0 34 19.5 57t54.5 23t54 -23t19 -57z" />
    <glyph glyph-name="AE" unicode="&#xc6;" horiz-adv-x="1614" 
d="M1560 0h-697l-14 388h-493l-191 -388h-136l740 1456h740v-104h-583l19 -542h495v-104h-491l21 -603h590v-103zM412 503h433l-29 821z" />
    <glyph glyph-name="multiply" unicode="&#xd7;" horiz-adv-x="944" 
d="M97 185l299 363l-288 350l73 82l285 -347l286 347l72 -82l-288 -350l299 -363l-73 -81l-296 359l-296 -359z" />
    <glyph glyph-name="Oslash" unicode="&#xd8;" horiz-adv-x="1208" 
d="M1075 570q0 -144 -32.5 -254.5t-93.5 -185t-148 -112.5t-196 -38q-160 0 -272 82l-77 -146h-93l107 203q-66 75 -102 187.5t-36 263.5v314q0 144 33 254.5t94.5 185.5t148.5 113.5t195 38.5q98 0 178.5 -31t140.5 -92l81 153h94l-119 -224q48 -74 72.5 -173.5
t24.5 -224.5v-314zM246 570q0 -221 82 -342l538 1019q-91 118 -263 118q-169 0 -263 -120t-94 -359v-316zM960 886q0 84 -11.5 152.5t-33.5 122.5l-529 -999q86 -73 219 -73q174 0 264.5 120t90.5 361v316z" />
    <glyph glyph-name="Thorn" unicode="&#xde;" horiz-adv-x="1059" 
d="M282 1456v-303h265q96 0 170 -31.5t124.5 -87t76.5 -131.5t26 -165q0 -90 -26 -166t-76.5 -131.5t-124.5 -86.5t-170 -31h-265v-323h-111v1456h111zM282 1049v-622h265q76 0 130.5 27t89 71t50.5 99.5t16 111.5q0 58 -16 114.5t-50.5 100.5t-89 71t-130.5 27h-265z" />
    <glyph glyph-name="germandbls" unicode="&#xdf;" horiz-adv-x="1051" 
d="M256 0h-111v1127q0 102 21.5 180t61.5 130.5t97 79.5t128 27q61 0 114.5 -20t93.5 -59t63 -96.5t23 -132.5q0 -51 -7.5 -89t-19.5 -69.5t-25 -59t-25 -56.5t-19.5 -62t-7.5 -76q0 -49 22.5 -88t56 -74.5t73 -70.5t73 -76t56 -91.5t22.5 -116.5q0 -81 -26 -142t-70 -102.5
t-101 -62t-120 -20.5q-36 0 -74 6.5t-73 17.5t-64 25.5t-45 30.5l30 103q15 -14 38.5 -28t52 -26t60 -19.5t62.5 -7.5q53 0 94 18t68.5 48.5t42 71t14.5 86.5q0 52 -22.5 93t-56 77.5t-73 71t-73 75t-56 89.5t-22.5 114q0 68 17 116.5t37 91t37 88t17 107.5q0 48 -14.5 87.5
t-38.5 67t-56.5 42.5t-68.5 15q-48 0 -86 -18t-65 -56t-41 -97.5t-14 -142.5v-1127z" />
    <glyph glyph-name="ae" unicode="&#xe6;" horiz-adv-x="1494" 
d="M1082 -20q-116 0 -200 53.5t-135 148.5q-19 -36 -50.5 -72.5t-76.5 -65t-102.5 -46.5t-129.5 -18t-127.5 22t-93.5 63t-57.5 99t-19.5 130q0 78 23.5 140.5t70 106.5t116 67.5t160.5 23.5h211v88q0 131 -51.5 204.5t-154.5 73.5q-56 0 -101 -18t-76 -49.5t-47.5 -74
t-16.5 -91.5l-110 13q0 70 25 129.5t71 102.5t110.5 67.5t144.5 24.5q103 0 177.5 -51t109.5 -153q51 96 129 150t174 54q86 0 152.5 -32.5t112.5 -92.5t69.5 -146t23.5 -194v-101h-631v-26q0 -89 17.5 -167t54 -135.5t93 -91t135.5 -33.5q48 0 87.5 10t73 26.5t60.5 37.5
t50 44l42 -90q-17 -20 -44 -43t-65.5 -42.5t-89 -32.5t-114.5 -13zM406 82q41 0 81.5 13.5t75.5 35t63 48t45 53.5v302h-209q-66 0 -114.5 -20t-81 -53.5t-48.5 -77.5t-16 -93q0 -93 51 -150.5t153 -57.5zM1055 998q-58 0 -105 -27.5t-81.5 -76.5t-55.5 -115t-28 -143h518
v31q0 69 -14.5 129t-45 105t-77.5 71t-111 26z" />
    <glyph glyph-name="eth" unicode="&#xf0;" horiz-adv-x="1042" 
d="M699 1303q101 -125 155 -293.5t54 -385.5v-89q0 -123 -28 -225.5t-77.5 -175.5t-118.5 -113.5t-150 -40.5q-87 0 -159 37.5t-124 103.5t-81 154.5t-29 190.5q0 116 27 208.5t75.5 157t116.5 99t151 34.5q81 0 151.5 -37t119.5 -100q-20 132 -64.5 232.5t-108.5 176.5
l-188 -138l-46 74l173 128q-63 57 -135 99t-151 72l36 106q202 -71 343 -209l163 120l46 -75zM797 626q0 15 -0.5 30t-1.5 30q-14 33 -36.5 64t-55.5 55t-75.5 39t-94.5 15q-70 0 -122.5 -29t-87.5 -81t-52.5 -124.5t-17.5 -158.5q0 -71 18.5 -139.5t55 -122t89.5 -86.5
t122 -33q60 0 108 34t81.5 94t51.5 142.5t18 179.5v91z" />
    <glyph glyph-name="divide" unicode="&#xf7;" horiz-adv-x="1019" 
d="M919 642h-839v119h839v-119zM430 1088q0 36 20 60.5t56 24.5t56.5 -24.5t20.5 -60.5q0 -35 -20.5 -58.5t-56.5 -23.5t-56 23.5t-20 58.5zM430 291q0 35 20 59.5t56 24.5t56.5 -24.5t20.5 -59.5t-20.5 -59t-56.5 -24t-56 24t-20 59z" />
    <glyph glyph-name="oslash" unicode="&#xf8;" horiz-adv-x="1002" 
d="M104 596q0 123 29 217t81 158.5t124.5 97.5t160.5 33q102 0 182 -44l64 156h83l-83 -201q71 -63 110.5 -167t39.5 -250v-112q0 -123 -28.5 -217t-80.5 -157.5t-124.5 -96.5t-160.5 -33q-91 0 -166 35l-64 -155h-83l80 195q-78 61 -121 168.5t-43 260.5v112zM216 484
q0 -106 24.5 -187.5t72.5 -133.5l326 794q-29 20 -64 30.5t-76 10.5q-67 0 -119.5 -28.5t-89 -81t-55.5 -127t-19 -165.5v-112zM784 596q0 97 -21.5 174.5t-63.5 130.5l-324 -788q55 -30 126 -30q72 0 125 28t88 80t52.5 126t17.5 167v112z" />
    <glyph glyph-name="thorn" unicode="&#xfe;" horiz-adv-x="1012" 
d="M890 490q0 -131 -23.5 -227t-67.5 -159t-109 -93.5t-147 -30.5q-97 0 -166.5 39.5t-113.5 108.5v-128h-1v-416h-110v416h-1v1536h112v-596q44 77 112 119.5t165 42.5q84 0 149 -29t110 -91t68 -158.5t23 -232.5v-101zM779 591q0 208 -64.5 306t-201.5 98q-51 0 -91 -14.5
t-70 -38.5t-52 -56t-37 -67v-575q16 -35 39.5 -64.5t54.5 -51t70 -33.5t88 -12q135 0 199.5 99.5t64.5 307.5v101z" />
    <glyph glyph-name="Hbar" unicode="&#x126;" horiz-adv-x="1230" 
d="M1069 1125h119v-99h-119v-1026h-115v697h-684v-697h-114v1026h-114v99h114v331h114v-331h684v331h115v-331zM270 803h684v223h-684v-223z" />
    <glyph glyph-name="dotlessi" unicode="&#x131;" horiz-adv-x="431" 
d="M270 0h-111v1082h111v-1082z" />
    <glyph glyph-name="kgreenlandic" unicode="&#x138;" horiz-adv-x="978" 
d="M377 494h-110v-494h-112v1082h112v-479h105l365 479h135l-401 -526l441 -556h-141z" />
    <glyph glyph-name="Lslash" unicode="&#x141;" horiz-adv-x="952" 
d="M284 820l251 95v-110l-251 -95v-604h600v-106h-715v666l-129 -48v110l129 48v680h115v-636z" />
    <glyph glyph-name="lslash" unicode="&#x142;" horiz-adv-x="488" 
d="M299 861l148 69v-112l-148 -69v-749h-112v697l-144 -66v112l144 66v727h112v-675z" />
    <glyph glyph-name="Eng" unicode="&#x14a;" horiz-adv-x="1242" 
d="M1077 1456v-1542q0 -171 -69 -261t-191 -90q-26 0 -48.5 4.5t-46.5 14.5l10 104q7 -3 18 -5.5l22.5 -5t23 -3.5t20.5 -1q70 0 108 63.5t38 179.5v86l-679 1235v-1235h-114v1456h114l679 -1233v1233h115z" />
    <glyph glyph-name="eng" unicode="&#x14b;" horiz-adv-x="1001" 
d="M249 1082l9 -178q44 93 115.5 145.5t171.5 52.5q72 0 128 -25t95 -79t59.5 -137.5t20.5 -200.5v-749q0 -170 -68.5 -259t-189.5 -89q-28 0 -52 4.5t-51 14.5l12 106q7 -3 18.5 -6t24.5 -5t26 -3.5t22 -1.5q70 0 108.5 61.5t38.5 177.5v748q0 97 -15.5 162t-44.5 103.5
t-69.5 54.5t-89.5 16q-52 0 -93.5 -16t-73 -44t-53.5 -66.5t-37 -83.5v-785h-111v1082h99z" />
    <glyph glyph-name="OE" unicode="&#x152;" horiz-adv-x="1653" 
d="M1533 0h-710q-60 -8 -124.5 -14.5t-133.5 -6.5q-101 0 -184.5 43.5t-143.5 122.5t-93.5 189t-33.5 242v304q0 132 33 242t92.5 188.5t143 122t184.5 43.5q69 0 134.5 -6t125.5 -14h705v-108h-645v-545h565v-106h-565v-591h650v-106zM565 83q52 0 104 3.5t100 10.5v1261
q-96 15 -206 15q-78 0 -141.5 -33.5t-108 -97t-68.5 -154.5t-24 -206v-306q0 -114 24.5 -205t69.5 -155t108.5 -98.5t141.5 -34.5z" />
    <glyph glyph-name="oe" unicode="&#x153;" horiz-adv-x="1624" 
d="M99 556q0 118 28 218t80.5 173t127 114t167.5 41q61 0 114.5 -18.5t98 -52t79.5 -81.5t59 -108q25 60 61 108t78.5 82t91.5 52t101 18q86 0 153.5 -33t113.5 -94t70 -146t24 -190v-103h-634v-26q0 -89 20 -167t57.5 -135.5t90.5 -91t120 -33.5q98 0 162.5 32.5
t107.5 86.5l48 -85q-23 -29 -53.5 -54t-70 -43.5t-88 -29t-106.5 -10.5t-110.5 18t-96.5 51t-80 80.5t-61 106.5q-49 -118 -138 -187t-211 -69q-93 0 -168 40.5t-127.5 113t-80.5 172.5t-28 218v32zM211 524q0 -89 18.5 -168.5t55 -140.5t91.5 -96.5t127 -35.5t126 35.5
t90.5 96.5t55 140.5t18.5 168.5v32q0 87 -18.5 167t-55 141t-91 97.5t-126.5 36.5t-126.5 -36.5t-91 -97.5t-55 -141t-18.5 -167v-32zM1185 998q-54 0 -100 -27.5t-81 -75.5t-57.5 -113.5t-30.5 -141.5h519v29q0 67 -16.5 127t-48 105t-78 71t-107.5 26z" />
    <glyph glyph-name="longs" unicode="&#x17f;" horiz-adv-x="437" 
d="M159 0v1215q0 166 70 254t195 88q29 0 58 -5t58 -14l-15 -98q-18 6 -38 9.5t-48 3.5q-81 0 -125 -62.5t-44 -175.5v-1215h-111z" />
    <glyph glyph-name="florin" unicode="&#x192;" horiz-adv-x="607" 
d="M525 982h-198v-1071q0 -170 -68.5 -259t-190.5 -89q-26 0 -47.5 4.5t-45.5 14.5l12 101q6 -3 16.5 -6t22 -5t23 -3.5t19.5 -1.5q71 0 109.5 64t38.5 180v1071h-150v100h150v133q0 166 69.5 254t194.5 88q29 0 58 -5t58 -14l-14 -101q-20 6 -41 9.5t-49 3.5
q-81 0 -123 -61t-42 -174v-133h198v-100z" />
    <glyph glyph-name="Ohorn" unicode="&#x1a0;" horiz-adv-x="1237" 
d="M1077 570q0 -144 -32.5 -254.5t-93.5 -185t-148 -112.5t-196 -38q-108 0 -195 38t-149 112.5t-95.5 185t-33.5 254.5v314q0 144 33 254.5t94.5 185.5t148.5 113.5t195 38.5q124 0 218.5 -48.5t156.5 -144.5q43 7 72.5 29t47.5 58t25.5 85.5t7.5 111.5h102
q0 -158 -50.5 -252.5t-159.5 -120.5q52 -130 52 -310v-314zM962 886q0 239 -92 359t-265 120q-169 0 -263 -120t-94 -359v-316q0 -240 95 -360.5t264 -120.5q174 0 264.5 120t90.5 361v316z" />
    <glyph glyph-name="ohorn" unicode="&#x1a1;" horiz-adv-x="1006" 
d="M104 596q0 123 29 217t81 158.5t124.5 97.5t160.5 33q94 0 168.5 -36t127.5 -107q42 5 67.5 23.5t39.5 49t19 72.5t5 94h93q0 -132 -40 -214t-138 -104q26 -58 40 -128.5t14 -155.5v-112q0 -123 -28.5 -217t-80.5 -157.5t-124.5 -96.5t-160.5 -33q-89 0 -162 33
t-125 96.5t-81 157.5t-29 217v112zM216 484q0 -93 19 -167t55.5 -126t89.5 -80t121 -28q72 0 125 28t88 80t52.5 126t17.5 167v112q0 91 -19 165.5t-55.5 127t-89.5 81t-121 28.5q-67 0 -119.5 -28.5t-89 -81t-55.5 -127t-19 -165.5v-112z" />
    <glyph glyph-name="Uhorn" unicode="&#x1af;" horiz-adv-x="1217" 
d="M1018 1456v-210q55 5 91 26.5t57 59t29.5 91t8.5 121.5h98q0 -92 -15.5 -163.5t-49.5 -121t-88 -77.5t-131 -32v-721q0 -123 -34.5 -208.5t-93.5 -139t-137.5 -77.5t-167.5 -24q-92 0 -171 24t-137.5 77.5t-91.5 139t-33 208.5v1027h114v-1027q0 -95 23.5 -160.5t66 -106
t101 -58.5t128.5 -18t128.5 18t100.5 58.5t65.5 106t23.5 160.5v1027h115z" />
    <glyph glyph-name="uhorn" unicode="&#x1b0;" horiz-adv-x="1059" 
d="M1071 1179q0 -74 -11 -131.5t-38 -97t-72 -61.5t-112 -25v-864h-108l-2 129q-43 -70 -112.5 -109.5t-172.5 -39.5q-67 0 -122 22.5t-94 71.5t-60.5 126.5t-21.5 188.5v693h110v-695q0 -86 16 -143.5t44 -92.5t64.5 -50t77.5 -15q58 0 102.5 15t77 42t54.5 64.5t35 82.5
v792h112v-133q49 3 77.5 19t43.5 44.5t19 70.5t4 96h89z" />
    <glyph glyph-name="uni0237" unicode="&#x237;" horiz-adv-x="440" 
d="M280 1082v-1171q0 -170 -68 -259t-190 -89q-25 0 -46.5 4.5t-46.5 14.5l11 101q14 -6 39.5 -11t42.5 -5q71 0 109 64t38 180v1171h111z" />
    <glyph glyph-name="schwa" unicode="&#x259;" horiz-adv-x="930" 
d="M444 1102q87 0 160.5 -39.5t126.5 -110t83 -168t30 -213.5v-54q0 -119 -31 -217.5t-83.5 -170t-122 -110.5t-147.5 -39q-87 0 -154 33t-113.5 93.5t-70.5 145.5t-24 190v103h635v26q0 89 -20 167t-57.5 136t-91 91.5t-120.5 33.5q-98 0 -162 -33t-108 -87l-46 85
q23 29 53.5 54t69.5 44t87 29.5t106 10.5zM460 83q54 0 100 27t81 75t57.5 113.5t30.5 142.5h-520v-29q0 -68 16.5 -128t48.5 -104.5t78.5 -70.5t107.5 -26z" />
    <glyph glyph-name="circumflex" unicode="&#x2c6;" horiz-adv-x="793" 
d="M630 1268v-10h-100l-138 182l-138 -182h-98v12l201 256h69z" />
    <glyph glyph-name="caron" unicode="&#x2c7;" horiz-adv-x="754" 
d="M375 1328l141 193h98v-12l-201 -262h-77l-200 263v11h98z" />
    <glyph glyph-name="breve" unicode="&#x2d8;" horiz-adv-x="865" 
d="M716 1490q0 -57 -20 -104t-57 -81.5t-91 -53.5t-121 -19t-120.5 19t-91 53.5t-57.5 81.5t-20 104h102q0 -35 10 -65.5t32 -54t58 -37t87 -13.5q50 0 85.5 14t58 37t33 54t10.5 65h102z" />
    <glyph glyph-name="dotaccent" unicode="&#x2d9;" horiz-adv-x="459" 
d="M148 1381q0 35 22 58.5t60 23.5q39 0 61 -23.5t22 -58.5q0 -34 -22 -57t-61 -23q-38 0 -60 23t-22 57z" />
    <glyph glyph-name="ring" unicode="&#x2da;" horiz-adv-x="635" 
d="M117 1395q0 40 15 75t41 61t61 41t76 15q40 0 75.5 -15t61.5 -41t41 -61t15 -75t-15 -74.5t-41 -59.5t-61.5 -39t-75.5 -14q-41 0 -76 14t-61 39t-41 59.5t-15 74.5zM194 1395q0 -24 8.5 -45t24 -36.5t36.5 -24.5t47 -9q25 0 46.5 9t37.5 24.5t24.5 36.5t8.5 45
q0 25 -8.5 47t-24.5 38t-37.5 25t-46.5 9q-26 0 -47 -9t-36.5 -25t-24 -38t-8.5 -47z" />
    <glyph glyph-name="ogonek" unicode="&#x2db;" horiz-adv-x="477" 
d="M317 0l-55 -53t-48 -55.5t-33.5 -59.5t-12.5 -65q0 -35 15 -59.5t55 -24.5q31 0 52.5 11t35.5 21l12 -85q-19 -15 -48.5 -29.5t-74.5 -14.5q-64 0 -105 42.5t-41 127.5q0 75 51 149.5t145 132.5z" />
    <glyph glyph-name="tilde" unicode="&#x2dc;" horiz-adv-x="800" 
d="M682 1486q0 -48 -13 -88t-35.5 -68t-52.5 -43.5t-65 -15.5q-44 0 -72.5 17t-52 38t-48 38t-60.5 17q-38 0 -64 -31.5t-26 -86.5l-81 3q0 48 12.5 87.5t35 67.5t53 43.5t65.5 15.5q39 0 67.5 -17t54 -37.5t51 -37.5t60.5 -17q38 0 64.5 33t26.5 88z" />
    <glyph glyph-name="hungarumlaut" unicode="&#x2dd;" horiz-adv-x="688" 
d="M547 1535h131l-233 -303h-109zM282 1535h125l-192 -303h-98z" />
    <glyph glyph-name="uni02F3" unicode="&#x2f3;" horiz-adv-x="559" 
d="M146 -231q0 31 10.5 57t29 45.5t42.5 30.5t51 11t50.5 -11t41.5 -30.5t28 -45.5t10 -57q0 -30 -10 -56t-28 -44.5t-41.5 -29t-50.5 -10.5t-51 10.5t-42.5 29t-29 44.5t-10.5 56zM209 -231q0 -30 20.5 -50.5t49.5 -20.5t48.5 20t19.5 51q0 32 -19.5 53.5t-48.5 21.5
t-49.5 -21.5t-20.5 -53.5z" />
    <glyph glyph-name="gravecomb" unicode="&#x300;" horiz-adv-x="40" 
d="M-377 1242h-85l-120 293h114z" />
    <glyph glyph-name="acutecomb" unicode="&#x301;" horiz-adv-x="40" 
d="M-383 1536h110l-138 -292h-79z" />
    <glyph glyph-name="tildecomb" unicode="&#x303;" horiz-adv-x="40" 
d="M-132 1486q0 -48 -13 -88t-35.5 -68t-52.5 -43.5t-65 -15.5q-44 0 -72.5 17t-52 38t-48 38t-60.5 17q-38 0 -64 -31.5t-26 -86.5l-81 3q0 48 12.5 87.5t35 67.5t53 43.5t65.5 15.5q39 0 67.5 -17t54 -37.5t51 -37.5t60.5 -17q38 0 64.5 33t26.5 88z" />
    <glyph glyph-name="hook" unicode="&#x309;" horiz-adv-x="40" 
d="M-509 1234v126q71 7 103.5 26.5t32.5 67.5q0 26 -14 44t-37 29t-52 16t-60 5l6 78q117 0 182.5 -46.5t65.5 -127.5q0 -39 -12 -67t-31.5 -46.5t-46 -28.5t-54.5 -14l-1 -62h-82z" />
    <glyph glyph-name="uni030F" unicode="&#x30f;" horiz-adv-x="40" 
d="M-438 1252h-110l-254 266h140zM-231 1252h-98l-210 266h129z" />
    <glyph glyph-name="dotbelow" unicode="&#x323;" horiz-adv-x="247" 
d="M-672 -232q0 35 22 58.5t60 23.5q39 0 61 -23.5t22 -58.5q0 -34 -22 -57t-61 -23q-38 0 -60 23t-22 57z" />
    <glyph glyph-name="tonos" unicode="&#x384;" horiz-adv-x="519" 
d="M273 1588h118l-109 -305h-83z" />
    <glyph glyph-name="dieresistonos" unicode="&#x385;" horiz-adv-x="873" 
d="M418 1664h122l-65 -252h-88zM142 1395q0 35 19 58.5t54 23.5t54.5 -23.5t19.5 -58.5q0 -34 -19.5 -57t-54.5 -23t-54 23t-19 57zM577 1394q0 35 19 58.5t54 23.5t54.5 -23.5t19.5 -58.5q0 -34 -19.5 -57t-54.5 -23t-54 23t-19 57z" />
    <glyph glyph-name="anoteleia" unicode="&#x387;" horiz-adv-x="467" 
d="M154 717q0 36 20 60.5t56 24.5t56.5 -24.5t20.5 -60.5q0 -35 -20.5 -58.5t-56.5 -23.5t-56 23.5t-20 58.5z" />
    <glyph glyph-name="Gamma" unicode="&#x393;" horiz-adv-x="990" 
d="M914 1348h-626v-1348h-114v1456h740v-108z" />
    <glyph glyph-name="Delta" unicode="&#x394;" horiz-adv-x="1241" 
d="M679 1456l499 -1456h-1123l517 1456h107zM211 106h812l-399 1188z" />
    <glyph glyph-name="Delta" unicode="&#x2206;" horiz-adv-x="1241" 
d="M679 1456l499 -1456h-1123l517 1456h107zM211 106h812l-399 1188z" />
    <glyph glyph-name="Theta" unicode="&#x398;" horiz-adv-x="1201" 
d="M831 675h-460v103h460v-103zM1067 570q0 -144 -32.5 -254.5t-93.5 -185t-148 -112.5t-196 -38q-108 0 -195 38t-149 112.5t-95.5 185t-33.5 254.5v314q0 144 33 254.5t94.5 185.5t148.5 113.5t195 38.5q109 0 196.5 -38.5t148.5 -113.5t94 -185.5t33 -254.5v-314z
M952 886q0 239 -92 359t-265 120q-169 0 -263 -120t-94 -359v-316q0 -240 95 -360.5t264 -120.5q174 0 264.5 120t90.5 361v316z" />
    <glyph glyph-name="Lambda" unicode="&#x39b;" horiz-adv-x="1157" 
d="M575 1262l-377 -1262h-124l447 1456h108l448 -1456h-124z" />
    <glyph glyph-name="Xi" unicode="&#x39e;" horiz-adv-x="1006" 
d="M118 106h776v-106h-776v106zM198 787h609v-107h-609v107zM127 1456h746v-107h-746v107z" />
    <glyph glyph-name="Pi" unicode="&#x3a0;" horiz-adv-x="1259" 
d="M1081 0h-114v1348h-676v-1348h-114v1456h904v-1456z" />
    <glyph glyph-name="Sigma" unicode="&#x3a3;" horiz-adv-x="1006" 
d="M620 742l-408 -635h710v-107h-848v94l426 663l-426 604v95h804v-107h-659l401 -572v-35z" />
    <glyph glyph-name="Phi" unicode="&#x3a6;" horiz-adv-x="1270" 
d="M694 1268q108 0 197.5 -40.5t154 -112.5t100 -170.5t35.5 -213.5q0 -116 -35.5 -214.5t-100 -170.5t-154 -113t-197.5 -41v-192h-115v192h-1q-108 0 -197.5 40.5t-153.5 112.5t-99.5 170t-35.5 214q0 115 35.5 214t99.5 171t153.5 113t197.5 41h1v188h115v-188zM578 1161
q-88 0 -157 -32t-117 -89.5t-73 -137t-25 -173.5q0 -95 25 -174t73 -136t117 -88.5t157 -31.5h1v862h-1zM694 1161v-862h2q87 0 156 32t117 89t73 136.5t25 174.5q0 94 -25 173t-73 136t-117 89t-156 32h-2z" />
    <glyph glyph-name="Psi" unicode="&#x3a8;" horiz-adv-x="1234" 
d="M666 496q73 8 133.5 41.5t104 90t67.5 134.5t24 176v518h114v-518q0 -126 -33 -224.5t-91.5 -168.5t-140 -110t-178.5 -47v-388h-115v388q-95 8 -174.5 48.5t-137 110t-89.5 168t-32 223.5v518h114v-518q0 -96 23.5 -174t65.5 -134t100.5 -90t129.5 -43v959h115v-960z
" />
    <glyph glyph-name="Omega" unicode="&#x3a9;" horiz-adv-x="1170" 
d="M647 121q54 22 103 68t86 119.5t59 177.5t22 243v117q0 118 -23.5 214.5t-68 165t-107.5 106t-141 37.5t-140.5 -37.5t-106.5 -106t-67.5 -165t-23.5 -214.5v-117q0 -140 22.5 -244t60.5 -177.5t87.5 -119t104.5 -67.5v-121h-394v106h240q-51 45 -94.5 108t-75 142
t-49.5 172.5t-18 200.5v115q0 142 33 258.5t92.5 199.5t143 128.5t185.5 45.5q101 0 185 -45.5t144 -128.5t93 -199.5t33 -258.5v-115q0 -107 -18 -201t-49.5 -173t-74.5 -141.5t-94 -107.5h241v-106h-390v121z" />
    <glyph glyph-name="Omega" unicode="&#x2126;" horiz-adv-x="1170" 
d="M647 121q54 22 103 68t86 119.5t59 177.5t22 243v117q0 118 -23.5 214.5t-68 165t-107.5 106t-141 37.5t-140.5 -37.5t-106.5 -106t-67.5 -165t-23.5 -214.5v-117q0 -140 22.5 -244t60.5 -177.5t87.5 -119t104.5 -67.5v-121h-394v106h240q-51 45 -94.5 108t-75 142
t-49.5 172.5t-18 200.5v115q0 142 33 258.5t92.5 199.5t143 128.5t185.5 45.5q101 0 185 -45.5t144 -128.5t93 -199.5t33 -258.5v-115q0 -107 -18 -201t-49.5 -173t-74.5 -141.5t-94 -107.5h241v-106h-390v121z" />
    <glyph glyph-name="alpha" unicode="&#x3b1;" horiz-adv-x="1009" 
d="M846 1082v-807q0 -55 6.5 -91t17.5 -57t25.5 -29.5t31.5 -8.5q11 0 21 2.5t19 5.5l15 -94q-22 -15 -43 -19.5t-43 -4.5q-64 0 -103 43t-52 144q-44 -88 -113 -137.5t-168 -49.5q-83 0 -148 38.5t-109.5 108t-68 167.5t-23.5 217v21q0 128 23.5 233t68 180t109.5 116.5
t149 41.5q98 0 166 -51.5t112 -142.5l12 174h95zM223 510q0 -92 15 -170.5t46.5 -135.5t80.5 -89.5t117 -32.5q50 0 89.5 17.5t70.5 48t53.5 72.5t39.5 92v436q-16 49 -38.5 94.5t-53 80t-70.5 55t-90 20.5q-68 0 -117.5 -36.5t-81 -100t-46.5 -148.5t-15 -182v-21z" />
    <glyph glyph-name="beta" unicode="&#x3b2;" horiz-adv-x="1059" 
d="M521 1476q79 0 143 -28.5t109 -79.5t69.5 -121.5t24.5 -154.5q0 -100 -43.5 -182t-124.5 -128q58 -20 102.5 -56t74.5 -85t45.5 -109t15.5 -127q0 -102 -28 -181t-78 -133t-119.5 -82.5t-152.5 -28.5q-37 0 -75.5 7t-75.5 22t-70.5 38t-60.5 54v-499h-111v1461
q0 88 28 163.5t76.5 131t113 87t137.5 31.5zM517 825q64 0 109.5 19.5t74.5 55t42.5 85.5t13.5 112q0 51 -14.5 100.5t-44 88.5t-73.5 62.5t-104 23.5q-51 0 -95.5 -23t-77.5 -64.5t-52 -98t-19 -123.5v-830q38 -68 110 -109t163 -41q67 0 118.5 22.5t86.5 64.5t53 100.5
t18 130.5q0 67 -17 125.5t-51 101.5t-83.5 67.5t-114.5 24.5h-120v105h77z" />
    <glyph glyph-name="gamma" unicode="&#x3b3;" horiz-adv-x="886" 
d="M719 1082h114l-332 -1048v-449h-111v452l-333 1045h115l261 -843l14 -70l15 71z" />
    <glyph glyph-name="delta" unicode="&#x3b4;" horiz-adv-x="1001" 
d="M204 1288q0 61 22 111.5t62 87t97 56.5t127 20q66 0 124 -15t117 -51l-7 -105q-46 26 -103 45.5t-132 19.5q-42 0 -78 -11t-62 -32t-41 -52t-15 -71q0 -32 10.5 -62t36 -57.5t69 -52t109.5 -46.5q91 -31 159 -84t113.5 -123t68 -154t22.5 -176v-32q0 -114 -28 -210
t-80.5 -165.5t-126.5 -109t-167 -39.5t-168 39.5t-127.5 109t-80.5 165.5t-28 210v32q0 99 25 181t66 143t93.5 100t108.5 51l-1 8q-97 46 -141 117t-44 152zM209 504q0 -85 18.5 -161.5t55.5 -134t91.5 -91.5t126.5 -34t126 34t90.5 91.5t55 134t18.5 161.5v32
q0 79 -22.5 149t-60.5 125.5t-89 92.5t-109 49q-74 0 -130 -34.5t-94 -92t-57.5 -133t-19.5 -156.5v-32z" />
    <glyph glyph-name="epsilon" unicode="&#x3b5;" horiz-adv-x="973" 
d="M108 297q0 98 47.5 163t140.5 95q-82 35 -127 98t-45 141q0 75 25.5 132t72 96t113 59t147.5 20q74 0 140 -22t115.5 -62.5t78.5 -98t29 -129.5h-110q0 46 -19.5 84.5t-54 66t-80.5 43t-99 15.5q-64 0 -110.5 -16.5t-76.5 -44t-44.5 -64.5t-14.5 -78q0 -43 13.5 -78.5
t43 -60.5t75 -39t110.5 -14h158v-102h-158q-126 0 -191.5 -49t-65.5 -157q0 -47 17.5 -85.5t50.5 -67t81.5 -44t111.5 -15.5q60 0 109.5 18t84.5 48.5t54 72t19 88.5h111q0 -85 -33 -147.5t-86.5 -103t-121 -60t-137.5 -19.5q-81 0 -150 21.5t-118.5 62.5t-77.5 99.5
t-28 133.5z" />
    <glyph glyph-name="zeta" unicode="&#x3b6;" horiz-adv-x="894" 
d="M803 1456v-80l-325 -501q-52 -77 -89 -143t-60.5 -127.5t-34.5 -120.5t-11 -120q0 -50 11.5 -88t35.5 -66.5t61.5 -49.5t88.5 -38l95 -31q46 -15 83.5 -30t64 -37t40.5 -54t14 -81q0 -44 -14.5 -86.5t-35.5 -79.5t-46 -65.5t-46 -44.5l-62 58q19 18 36.5 40.5t31 48
t21.5 54.5t8 61q0 45 -32.5 71t-100.5 47l-75 23q-78 24 -133.5 54.5t-90 71.5t-50.5 94.5t-16 124.5q0 53 11 115.5t37 134.5t68 152.5t104 170.5l284 418h-589v104h716z" />
    <glyph glyph-name="eta" unicode="&#x3b7;" horiz-adv-x="1001" 
d="M253 1082l6 -163q45 86 116.5 134.5t169.5 48.5q72 0 128 -22t95 -71.5t59.5 -129t20.5 -194.5v-1100h-111v1100q0 91 -15.5 151.5t-44.5 96.5t-69.5 50.5t-89.5 14.5q-54 0 -96 -18.5t-73.5 -50.5t-52.5 -75.5t-34 -94.5v-759h-112v1082h103z" />
    <glyph glyph-name="theta" unicode="&#x3b8;" horiz-adv-x="1024" 
d="M890 617q0 -156 -25.5 -275t-74.5 -199.5t-119 -121.5t-159 -41q-88 0 -158 41t-119 121.5t-75.5 199.5t-26.5 275v226q0 156 26 274t75 198t119 120.5t158 40.5q89 0 159.5 -40.5t119 -120.5t74.5 -198t26 -274v-226zM245 775h533v84q0 119 -17 214t-50.5 161.5
t-83.5 102t-116 35.5t-116 -35.5t-83 -102t-50 -161.5t-17 -214v-84zM778 671h-533v-68q0 -118 17 -214t50.5 -164t83.5 -105t116 -37q67 0 117 37t83 105t49.5 164t16.5 214v68z" />
    <glyph glyph-name="iota" unicode="&#x3b9;" horiz-adv-x="564" 
d="M286 1082v-809q0 -56 9.5 -90.5t25.5 -53.5t36.5 -25.5t43.5 -6.5q22 0 43 3.5t37 6.5l3 -102q-18 -6 -48 -10.5t-62 -4.5q-43 0 -79.5 13.5t-63 46.5t-41.5 87.5t-15 135.5v809h111z" />
    <glyph glyph-name="lambda" unicode="&#x3bb;" horiz-adv-x="988" 
d="M233 1518q50 0 85 -20t59 -51t39.5 -69.5t26.5 -75.5l341 -1067q21 -69 43.5 -103.5t61.5 -34.5q8 0 18.5 1t17.5 3l6 -101q-9 -5 -25.5 -8t-33.5 -3q-41 0 -70.5 14t-52 41t-40 65.5t-33.5 88.5l-215 677l-278 -875h-124l347 1047l-70 211q-11 37 -22.5 66t-26 49
t-33.5 30.5t-44 10.5q-7 0 -19.5 -1t-20.5 -3l-3 97q10 5 31 8t35 3z" />
    <glyph glyph-name="xi" unicode="&#x3be;" horiz-adv-x="884" 
d="M774 1331q-48 19 -99.5 30t-106.5 11q-73 0 -125.5 -18t-86.5 -49.5t-50.5 -73t-16.5 -89.5q0 -54 17 -98t53 -75t93 -48t137 -17h111v-105h-111q-80 0 -146.5 -20.5t-114 -63.5t-74 -110.5t-26.5 -160.5q0 -78 22 -135.5t61 -99t91.5 -69.5t113.5 -47l82 -24
q50 -15 87.5 -30.5t62 -37.5t37 -52t12.5 -74q0 -42 -14.5 -81.5t-36 -73.5t-45.5 -60.5t-43 -41.5l-65 60l33.5 36t31.5 41.5t23.5 49.5t9.5 60q0 40 -30 63.5t-101 45.5l-56 17q-84 25 -154.5 58.5t-122.5 85.5t-81 128t-29 185q0 79 19.5 144t55.5 115.5t87 86.5t114 57
q-51 19 -91.5 48.5t-68 66.5t-42 80.5t-14.5 91.5q0 82 28 145t79 106t123 65t161 22q60 0 118.5 -12t103.5 -32z" />
    <glyph glyph-name="pi" unicode="&#x3c0;" horiz-adv-x="1065" 
d="M973 977h-152v-704q0 -56 9.5 -90.5t25.5 -53.5t36.5 -25.5t43.5 -6.5q22 0 43 3.5t37 6.5l3 -102q-18 -6 -48 -10.5t-62 -4.5q-43 0 -79.5 13.5t-63 46.5t-41.5 87.5t-15 135.5v704h-387v-977h-110v977h-151v105h911v-105z" />
    <glyph glyph-name="rho" unicode="&#x3c1;" horiz-adv-x="1001" 
d="M887 510q0 -119 -23 -216.5t-67 -167.5t-108.5 -108t-147.5 -38q-94 0 -163 38t-116 107v-541h-112v1014h1l-1 8q0 122 29 214.5t79 155t116.5 94.5t142.5 32q90 0 159.5 -41.5t116 -116.5t70.5 -180t24 -233v-21zM776 531q0 97 -15 182t-46.5 148.5t-80.5 100t-117 36.5
q-69 0 -117.5 -37t-79 -95.5t-44.5 -130t-14 -140.5v-332q16 -39 39.5 -72t54.5 -57t70 -37.5t88 -13.5q67 0 116.5 32t82 89t48 135.5t15.5 170.5v21z" />
    <glyph glyph-name="sigma1" unicode="&#x3c2;" horiz-adv-x="961" 
d="M501 1102q72 0 134.5 -25t109 -74t73 -121.5t26.5 -167.5h-105q0 67 -17 120t-48.5 89.5t-75.5 55.5t-97 19q-71 0 -123.5 -36t-86.5 -96.5t-50.5 -139.5t-16.5 -164v-42q0 -170 85 -275t241 -151q51 -15 90.5 -31t66.5 -40t41 -58.5t14 -85.5q0 -36 -14 -74.5t-34 -74
t-43.5 -63.5t-43.5 -43l-60 59q17 17 33 36.5t28 42t19.5 48.5t7.5 57q0 28 -7 47t-23 33t-42.5 24.5t-64.5 20.5q-95 24 -170.5 67.5t-128 108.5t-80.5 152.5t-28 199.5v42q0 114 26.5 212.5t76.5 171t122.5 114.5t164.5 42z" />
    <glyph glyph-name="sigma" unicode="&#x3c3;" horiz-adv-x="999" 
d="M973 977h-260q91 -67 140.5 -180t49.5 -259v-33q0 -109 -28 -204.5t-80.5 -167t-126.5 -112.5t-167 -41t-168 40.5t-127.5 113t-80.5 172.5t-28 218v32q0 114 28 210t80.5 166.5t127 110t166.5 39.5h474v-105zM208 524q0 -89 18.5 -168.5t55.5 -140.5t92 -96.5t127 -35.5
t126 35.5t91 96.5t55.5 140.5t18.5 168.5v32q0 83 -18.5 159.5t-55.5 134.5t-92 92.5t-127 34.5t-126 -34.5t-91 -92.5t-55.5 -134.5t-18.5 -159.5v-32z" />
    <glyph glyph-name="tau" unicode="&#x3c4;" horiz-adv-x="923" 
d="M836 978h-333v-704q0 -56 9 -92.5t24.5 -57.5t36.5 -29.5t46 -8.5q23 0 43 5t38 12l25 -91q-32 -20 -64.5 -26t-65.5 -6q-50 0 -88 16t-63.5 52t-39 93t-13.5 138v699h-306v104h751v-104z" />
    <glyph glyph-name="upsilon" unicode="&#x3c5;" horiz-adv-x="963" 
d="M259 1082v-676q0 -88 15 -149.5t41 -100t62.5 -56t78.5 -17.5q70 0 122 40t86 104.5t51 146.5t17 167q-2 150 -29.5 285t-69.5 256h119q18 -49 34 -104.5t28.5 -121.5t20 -143t7.5 -170q0 -117 -23.5 -219.5t-71 -179t-119.5 -120.5t-168 -44q-71 0 -129 24.5t-98.5 76.5
t-62.5 133t-22 194v674h111z" />
    <glyph glyph-name="phi" unicode="&#x3c6;" horiz-adv-x="1226" 
d="M552 -18q-119 9 -203 57.5t-137 125t-77 177t-24 213.5q0 90 15.5 169.5t44 146t68.5 119.5t90 92l59 -89q-41 -36 -71.5 -85t-51.5 -106t-31.5 -120.5t-11.5 -127.5q0 -81 16.5 -160.5t54.5 -144t101.5 -109t157.5 -55.5v788q0 51 14.5 90t39.5 65.5t59 40t72 13.5
q79 0 148.5 -40t121 -111.5t81 -170t29.5 -215.5q0 -106 -26.5 -204t-82 -174.5t-141 -126t-204.5 -59.5v-459h-111v460zM663 85q91 10 156 53t106.5 106.5t61 141.5t19.5 158q-1 84 -19.5 162.5t-53 138.5t-84 96t-112.5 36q-33 0 -53.5 -28t-20.5 -72v-792z" />
    <glyph glyph-name="psi" unicode="&#x3c8;" horiz-adv-x="1221" 
d="M658 1082v-996q98 10 164 56t106 114t57 151.5t17 169.5q-2 140 -34.5 266t-80.5 239h120q19 -46 38 -98t34 -113.5t24.5 -134t9.5 -158.5q0 -119 -24.5 -224t-79 -185t-141 -129.5t-210.5 -57.5v-426h-110v427q-99 9 -178.5 49t-135.5 114.5t-86.5 185.5t-30.5 261v489
h112v-491q0 -125 23.5 -216.5t66 -152.5t101 -94t128.5 -42v996h110z" />
    <glyph glyph-name="omega" unicode="&#x3c9;" horiz-adv-x="1458" 
d="M367 1082q-53 -124 -87.5 -261t-36.5 -290q0 -88 12 -169t38.5 -143t67.5 -99t99 -37q45 0 84 21.5t67.5 69t44.5 122t16 181.5v293h112v-293q0 -107 16 -181.5t44.5 -122t67.5 -69t85 -21.5q58 0 99 37t67.5 98.5t38.5 142.5t12 170q-2 153 -37 290t-88 261h121
q21 -50 41.5 -107t36.5 -124t26 -146t10 -173q0 -114 -18.5 -214.5t-58 -175.5t-100.5 -118.5t-145 -43.5q-100 0 -170 61t-104 188q-34 -127 -104 -188t-170 -61q-84 0 -145 43.5t-100 118.5t-57.5 175.5t-18.5 214.5q0 94 9.5 173t25.5 146t36.5 124t42.5 107h120z" />
    <glyph glyph-name="uni03D1" unicode="&#x3d1;" horiz-adv-x="1029" 
d="M979 673q-27 -12 -62.5 -21.5t-72.5 -12.5v-211q0 -115 -25 -199.5t-71 -139.5t-111.5 -82t-145.5 -27t-146.5 29.5t-114 86.5t-74 140.5t-26.5 191.5v329l111 2v-331q0 -171 67.5 -256.5t182.5 -85.5q58 0 103 19t76 60t47 106t16 157v213q-102 12 -180.5 54.5t-132 108
t-81 150t-27.5 181.5v19q0 79 20 141t55 104.5t82 65t101 22.5q65 0 116 -26.5t86 -77.5t53.5 -124.5t18.5 -166.5v-347q35 4 68 12t59 17zM424 1133q0 -70 18 -134.5t55.5 -116t96 -86.5t139.5 -47v343q0 288 -163 288q-30 0 -56.5 -13t-46.5 -40.5t-31.5 -70.5t-11.5 -102
v-21z" />
    <glyph glyph-name="uni03D2" unicode="&#x3d2;" horiz-adv-x="961" 
d="M682 1260q21 59 43 98.5t47 63.5t54 34.5t64 10.5q53 0 97 -27l-26 -97q-6 5 -21 9.5t-33 4.5q-16 0 -32 -4.5t-32 -19.5t-31.5 -42.5t-30.5 -73.5l-239 -622v-595h-115v600l-239 617q-16 46 -31.5 73.5t-31.5 42.5t-31.5 19.5t-31.5 4.5q-19 0 -34.5 -4.5t-21.5 -9.5
l-24 96q20 13 44 20.5t52 7.5q34 0 63 -10t54.5 -33.5t48.5 -63t44 -99.5l183 -487l13 -57l16 61z" />
    <glyph glyph-name="uni03D6" unicode="&#x3d6;" horiz-adv-x="1392" 
d="M1340 977h-138q31 -87 52 -194.5t21 -250.5q0 -114 -18 -214.5t-55 -175.5t-94.5 -118.5t-136.5 -43.5q-100 0 -169.5 61t-103.5 187q-34 -126 -103.5 -187t-169.5 -61q-80 0 -137 43.5t-94.5 118.5t-55 175.5t-17.5 214.5q0 143 21 250.5t52 194.5h-124v105h1270v-105z
M1164 531q-2 121 -25 232t-59 214h-765q-36 -103 -59 -214t-24 -232q0 -88 11 -169t35 -143t61.5 -99t90.5 -37q46 0 85 21.5t67 69t44 122t16 181.5v269h112v-269q0 -107 16 -181.5t44 -122t67 -69t86 -21.5q52 0 89.5 37t61.5 98.5t35 142.5t11 170z" />
    <glyph glyph-name="uni0402" unicode="&#x402;" horiz-adv-x="1322" 
d="M1007 1348h-468v-528q32 15 67 27t70.5 20.5t69.5 13.5t63 5q95 0 173 -27.5t133.5 -84.5t86 -144t30.5 -206q0 -86 -24.5 -164.5t-74.5 -138.5t-126.5 -96t-180.5 -36l-1 101q77 0 132.5 27t91 72.5t52 106t16.5 127.5q0 90 -22 156.5t-62 109.5t-97 64t-128 21
q-70 0 -137 -17t-132 -47v-710h-116v1348h-360v108h944v-108z" />
    <glyph glyph-name="uni0404" unicode="&#x404;" horiz-adv-x="1180" 
d="M1047 454q-10 -111 -43.5 -198.5t-90.5 -149t-136.5 -94t-182.5 -32.5q-105 0 -190.5 47t-146.5 133.5t-94 207.5t-33 269v180q0 148 33 269.5t94.5 208t149 134t196.5 47.5q99 0 177 -32.5t134 -93.5t89.5 -149.5t43.5 -200.5h-115q-9 88 -33 156.5t-64 115.5
t-97.5 71.5t-134.5 24.5q-85 0 -151.5 -39.5t-112.5 -111.5t-70 -173t-24 -225v-29h504v-107h-504v-46q0 -120 22.5 -221t67 -174.5t109.5 -114.5t150 -41q80 0 139 23t100 69t64.5 115t33.5 161h116z" />
    <glyph glyph-name="uni0409" unicode="&#x409;" horiz-adv-x="1892" 
d="M1074 1456v-606h301q100 0 176 -32t127.5 -88.5t77.5 -134.5t26 -170t-26 -170t-77.5 -134.5t-127.5 -88.5t-176 -32h-416v1348h-460l-13 -551q-6 -211 -27 -362t-65 -247.5t-116 -142t-180 -45.5h-36v106h33q71 0 121 33t82.5 112.5t50 212.5t23.5 333l16 659h686z
M1074 743v-637h301q78 0 133.5 27t91 71.5t52 102.5t16.5 120q0 60 -16.5 117t-52 101t-91 71t-133.5 27h-301z" />
    <glyph glyph-name="uni040A" unicode="&#x40a;" horiz-adv-x="1897" 
d="M289 787h675v669h115v-628h301q100 0 176 -30.5t127.5 -85.5t77.5 -130.5t26 -165.5t-26 -166t-77.5 -131.5t-127.5 -87t-176 -31.5h-416v680h-675v-680h-114v1456h114v-669zM1079 722v-612h301q78 0 133.5 25.5t91 68t52 98.5t16.5 116q0 59 -16.5 114t-52 97t-91 67.5
t-133.5 25.5h-301z" />
    <glyph glyph-name="uni040B" unicode="&#x40b;" horiz-adv-x="1426" 
d="M1009 1348h-464v-535q69 22 142.5 36t163.5 14q97 0 173.5 -24t129 -77.5t80.5 -139t28 -208.5v-414h-116v414q0 94 -19 159.5t-56 106t-92 58.5t-128 18q-81 0 -156.5 -13.5t-149.5 -36.5v-706h-115v1348h-363v108h942v-108z" />
    <glyph glyph-name="uni040F" unicode="&#x40f;" horiz-adv-x="1256" 
d="M174 1456h115v-1350h675v1350h115v-1456h-390v-354h-116v354h-399v1456z" />
    <glyph glyph-name="uni0411" unicode="&#x411;" horiz-adv-x="1120" 
d="M906 1348h-625v-522h301q100 0 176.5 -30t128 -84t77.5 -129.5t26 -167.5t-26.5 -168.5t-78 -131t-127.5 -85t-176 -30.5h-416v1456h740v-108zM281 718v-612h301q78 0 133.5 25t91 68t52 99.5t16.5 118.5q0 60 -16.5 114.5t-52 96t-91 66t-133.5 24.5h-301z" />
    <glyph glyph-name="uni0414" unicode="&#x414;" horiz-adv-x="1294" 
d="M1084 106h136l-1 -459h-115v353h-913v-353h-115v459h85q14 17 34 47.5t42 77.5t44.5 112t41.5 150.5t32.5 194t18.5 241.5l23 527h687v-1350zM489 929q-6 -150 -24.5 -277.5t-45.5 -231t-61 -182t-70 -132.5h682v1242h-463z" />
    <glyph glyph-name="uni0416" unicode="&#x416;" horiz-adv-x="1563" 
d="M979 691h-137v-691h-115v691h-140l-403 -691h-144l447 754l-417 702h138l373 -657h146v657h115v-657h142l373 657h137l-416 -701l447 -755h-143z" />
    <glyph glyph-name="uni0417" unicode="&#x417;" horiz-adv-x="1063" 
d="M526 796q82 0 140 20t95 57t54 88.5t17 114.5q0 62 -18 115.5t-56 93t-96.5 62t-139.5 22.5q-62 0 -115.5 -21t-94 -59.5t-63.5 -93t-23 -121.5h-114q0 93 33 167.5t89 126.5t130.5 80t157.5 28q97 0 175.5 -26t134 -77t85.5 -126.5t30 -174.5q0 -108 -57 -194.5
t-162 -131.5q118 -38 177.5 -127t59.5 -223q0 -99 -33 -176.5t-92 -131t-140 -81t-178 -27.5q-78 0 -154.5 25t-137.5 76.5t-98.5 131.5t-37.5 191h114q0 -68 23 -126.5t64.5 -101t99 -67t127.5 -24.5q78 0 139.5 22t103.5 62t64 97t22 126q0 156 -83.5 226t-241.5 70h-145
v108h145z" />
    <glyph glyph-name="uni0418" unicode="&#x418;" horiz-adv-x="1262" 
d="M970 1456h114v-1456h-114v1240l-679 -1240h-115v1456h115v-1239z" />
    <glyph glyph-name="uni041B" unicode="&#x41b;" horiz-adv-x="1250" 
d="M1074 1456v-1456h-115v1348h-501l-21 -551q-7 -211 -25.5 -362t-57.5 -247.5t-102.5 -142t-159.5 -45.5h-37v106h32q61 0 103.5 33t69.5 112.5t42 212.5t22 333l25 659h725z" />
    <glyph glyph-name="uni0423" unicode="&#x423;" horiz-adv-x="1120" 
d="M581 535l337 921h134l-461 -1207q-18 -43 -40.5 -90.5t-56 -87.5t-82.5 -66t-119 -26q-19 0 -44.5 3t-35.5 8l9 102q5 -2 14 -3t19.5 -2t20.5 -1.5t18 -0.5q39 0 68 16.5t50.5 43.5t38 61.5t31.5 71.5l42 107l-454 1071h130z" />
    <glyph glyph-name="uni0424" unicode="&#x424;" horiz-adv-x="1327" 
d="M722 1308h22q111 0 203.5 -43.5t159 -120.5t103.5 -182.5t37 -229.5t-37 -230t-103.5 -183.5t-159 -121.5t-203.5 -44h-22v-213h-112v213h-22q-111 0 -203.5 43.5t-159 121t-103 183t-36.5 229.5t36.5 229.5t103 183t159 121.5t203.5 44h22v209h112v-209zM722 1205v-949
h24q92 0 164.5 35.5t122.5 98.5t76.5 150.5t26.5 191.5q0 103 -26.5 190t-76.5 150t-122.5 98t-164.5 35h-24zM588 1205q-93 0 -166 -35.5t-123 -99t-76.5 -150.5t-26.5 -190q0 -104 26.5 -191t76.5 -150t123 -98t166 -35h22v949h-22z" />
    <glyph glyph-name="uni0426" unicode="&#x426;" horiz-adv-x="1273" 
d="M170 1456h115v-1350h675v1350h114v-1348h122l-9 -459h-105v351h-912v1456z" />
    <glyph glyph-name="uni0427" unicode="&#x427;" horiz-adv-x="1191" 
d="M1016 1456v-1456h-115v659q-75 -25 -154.5 -40.5t-175.5 -15.5q-98 0 -174 24t-128.5 77.5t-80 138.5t-27.5 208v405h115v-405q0 -95 19 -160t56 -105t92 -58t128 -18q87 0 168.5 14.5t161.5 41.5v690h115z" />
    <glyph glyph-name="uni0428" unicode="&#x428;" horiz-adv-x="1637" 
d="M287 1456v-1350h476v1350h114v-1350h474v1350h115v-1456h-1294v1456h115z" />
    <glyph glyph-name="uni0429" unicode="&#x429;" horiz-adv-x="1671" 
d="M287 1456v-1350h476v1350h114v-1350h474v1350h115v-1352h118l-9 -455h-101v351h-1302v1456h115z" />
    <glyph glyph-name="uni042A" unicode="&#x42a;" horiz-adv-x="1367" 
d="M16 1456h511v-630h301q100 0 176.5 -30t128 -84t77.5 -129.5t26 -167.5t-26.5 -168.5t-78 -131t-127.5 -85t-176 -30.5h-415v1352h-397v104zM527 718v-612h301q78 0 133.5 25t91 68t52 99.5t16.5 118.5q0 60 -16.5 114.5t-52 96t-91 66t-133.5 24.5h-301z" />
    <glyph glyph-name="uni042B" unicode="&#x42b;" horiz-adv-x="1486" 
d="M289 826h301q100 0 176.5 -30t128 -84t77.5 -129.5t26 -167.5t-26.5 -168.5t-78 -131t-127.5 -85t-176 -30.5h-415v1456h114v-630zM289 718v-612h301q78 0 133.5 25t91 68t52 99.5t16.5 118.5q0 60 -16.5 114.5t-52 96t-91 66t-133.5 24.5h-301zM1304 0h-114v1456h114
v-1456z" />
    <glyph glyph-name="uni042C" unicode="&#x42c;" horiz-adv-x="1098" 
d="M281 826h301q100 0 176.5 -30t128 -84t77.5 -129.5t26 -167.5t-26.5 -168.5t-78 -131t-127.5 -85t-176 -30.5h-415v1456h114v-630zM281 718v-612h301q78 0 133.5 25t91 68t52 99.5t16.5 118.5q0 60 -16.5 114.5t-52 96t-91 66t-133.5 24.5h-301z" />
    <glyph glyph-name="uni042D" unicode="&#x42d;" horiz-adv-x="1180" 
d="M254 454q10 -92 34 -161t64.5 -115t99.5 -69t139 -23q85 0 150 41t109.5 114.5t67.5 174.5t23 221v41h-506v107h506v34q0 124 -24.5 225t-70.5 173t-112.5 111.5t-150.5 39.5q-77 0 -134.5 -24.5t-97.5 -71.5t-64 -115.5t-33 -156.5h-115q10 112 43.5 200.5t89.5 149.5
t134 93.5t177 32.5q108 0 195.5 -47.5t149 -134t94.5 -208t33 -269.5v-180q0 -148 -33 -269t-93.5 -207.5t-146.5 -133.5t-191 -47q-102 0 -182 32.5t-136.5 94t-90 149t-43.5 198.5h115z" />
    <glyph glyph-name="uni042E" unicode="&#x42e;" horiz-adv-x="1601" 
d="M1473 570q0 -144 -32.5 -254.5t-93.5 -185t-148 -112.5t-196 -38q-108 0 -195 38t-149 112.5t-95.5 185t-33.5 254.5v114h-224v-684h-114v1456h114v-669h224v97q0 144 33 254.5t94.5 185.5t148.5 113.5t195 38.5q109 0 196.5 -38.5t148.5 -113.5t94 -185.5t33 -254.5
v-314zM1358 886q0 239 -92 359t-265 120q-169 0 -263 -120t-94 -359v-316q0 -240 95 -360.5t264 -120.5q174 0 264.5 120t90.5 361v316z" />
    <glyph glyph-name="uni042F" unicode="&#x42f;" horiz-adv-x="1100" 
d="M823 0v592h-337l-266 -592h-123l288 628q-118 48 -180.5 147.5t-62.5 241.5q0 106 29 187.5t83 137.5t131.5 85t174.5 29h378v-1456h-115zM257 1018q0 -70 18.5 -128.5t53.5 -101t87 -66t120 -23.5h287v649h-263q-75 0 -132 -22.5t-95 -65.5t-57 -104t-19 -138z" />
    <glyph glyph-name="uni0431" unicode="&#x431;" horiz-adv-x="987" 
d="M521 1011q89 0 160.5 -36.5t121.5 -101t77 -153.5t27 -194v-32q0 -112 -28 -206t-80 -162.5t-127 -107t-168 -38.5t-167.5 38.5t-127 107t-80.5 162.5t-28 206v32v8v65q0 175 29.5 311.5t83 234t129 155t167.5 75.5q61 12 104 27.5t70.5 37t40.5 49.5t13 64h94
q0 -76 -23 -126t-63 -81.5t-95 -49t-118 -29.5q-62 -12 -115.5 -43.5t-96 -85.5t-72.5 -130.5t-43 -177.5q54 81 133.5 131t181.5 50zM503 907q-72 0 -126 -31.5t-90.5 -84t-55 -121.5t-18.5 -144v-32q0 -83 18.5 -157.5t55 -130.5t91 -89.5t126.5 -33.5t126.5 33.5
t91.5 89.5t55.5 130.5t18.5 157.5v32q0 76 -18.5 145t-55.5 121.5t-92 83.5t-127 31z" />
    <glyph glyph-name="uni0432" unicode="&#x432;" horiz-adv-x="1006" 
d="M160 0v1082h338q83 0 150 -17.5t114 -53t72 -90t25 -128.5q0 -81 -42 -144.5t-122 -92.5q46 -10 83 -33.5t62.5 -57.5t39.5 -76.5t14 -88.5q0 -75 -24 -131t-68.5 -93.5t-107 -56.5t-139.5 -19h-395zM270 497v-395h285q111 0 170 51.5t59 148.5q0 90 -59 142.5t-170 52.5
h-285zM270 599h235q121 0 182 48t61 142q0 98 -63 143.5t-187 45.5h-228v-379z" />
    <glyph glyph-name="uni0433" unicode="&#x433;" horiz-adv-x="764" 
d="M718 977h-451v-977h-112v1082h563v-105z" />
    <glyph glyph-name="uni0434" unicode="&#x434;" horiz-adv-x="1036" 
d="M130 103l51 79.5t50.5 110t41 162t22.5 235.5l15 392h546v-979h99v-421h-111v318h-673v-318h-108l1 421h66zM406 690q-4 -112 -17.5 -202t-34 -162t-46.5 -126.5t-55 -96.5h492v865h-328z" />
    <glyph glyph-name="uni0436" unicode="&#x436;" horiz-adv-x="1359" 
d="M848 498h-118v-498h-111v498h-118l-321 -498h-140l368 557l-328 525h134l286 -474h119v474h111v-474h119l287 474h136l-330 -526l369 -556h-142z" />
    <glyph glyph-name="uni0437" unicode="&#x437;" horiz-adv-x="911" 
d="M459 605q60 0 101 13.5t66.5 38.5t37 60t11.5 78q0 41 -12 78t-38.5 64.5t-68.5 44t-102 16.5q-46 0 -87.5 -15.5t-72.5 -43t-49.5 -66t-18.5 -84.5h-110q0 72 27.5 129.5t74 98t107.5 62.5t129 22q77 0 138.5 -20t104.5 -59t66 -96t23 -132q0 -78 -40 -141t-116 -98
q87 -30 130 -95.5t43 -162.5q0 -75 -25.5 -133.5t-71.5 -99t-110 -62t-142 -21.5q-63 0 -126.5 19.5t-113.5 60t-81.5 102.5t-31.5 147h111q0 -47 18 -88.5t50 -72t76.5 -48.5t97.5 -18q59 0 103.5 15.5t74 44t44.5 67t15 85.5q0 108 -57.5 156t-174.5 48h-142v106h142z" />
    <glyph glyph-name="uni0438" unicode="&#x438;" horiz-adv-x="1012" 
d="M744 1082h111v-1082h-111v885l-477 -885h-111v1082h111v-886z" />
    <glyph glyph-name="uni043A" unicode="&#x43a;" horiz-adv-x="938" 
d="M401 494h-133v-494h-112v1082h112v-479h131l328 479h138l-373 -523l412 -559h-145z" />
    <glyph glyph-name="uni043B" unicode="&#x43b;" horiz-adv-x="1013" 
d="M856 1082v-1082h-111v977h-360l-12 -372q-6 -156 -21.5 -270t-47 -188.5t-82.5 -110.5t-129 -36h-38l2 110h31q45 0 76 25t51 82.5t30.5 152.5t15.5 235l17 477h578z" />
    <glyph glyph-name="uni043C" unicode="&#x43c;" horiz-adv-x="1301" 
d="M655 165l352 917h137v-1082h-111v869l-339 -869h-78l-346 891v-891h-110v1082h145z" />
    <glyph glyph-name="uni043D" unicode="&#x43d;" horiz-adv-x="1012" 
d="M855 0h-111v495h-476v-495h-112v1082h112v-484h476v484h111v-1082z" />
    <glyph glyph-name="uni043F" unicode="&#x43f;" horiz-adv-x="1012" 
d="M855 0h-111v977h-476v-977h-112v1082h699v-1082z" />
    <glyph glyph-name="uni0442" unicode="&#x442;" horiz-adv-x="859" 
d="M805 978h-326v-978h-111v978h-314v104h751v-104z" />
    <glyph glyph-name="uni0444" unicode="&#x444;" horiz-adv-x="1287" 
d="M111 531q0 128 21.5 233t63 180t102.5 116.5t141 41.5q45 0 80.5 -10.5t64.5 -30.5v475h111v-479q29 21 66 33t85 12q80 0 141.5 -41.5t103 -116.5t63 -180t21.5 -233v-21q0 -119 -21.5 -217t-63 -167.5t-102.5 -108t-140 -38.5q-48 0 -86 11t-67 31v-437h-111v435
q-29 -18 -65 -29t-81 -11q-78 0 -139 38.5t-103 108t-63.5 167.5t-21.5 217v21zM1065 531q0 97 -14.5 182t-44.5 148.5t-76 100t-110 36.5q-45 0 -75 -11t-50 -28v-842q21 -14 52 -24.5t75 -10.5q63 0 109 32.5t75.5 89.5t44 135.5t14.5 170.5v21zM223 510
q0 -92 13.5 -170.5t42 -135.5t74 -89.5t108.5 -32.5q42 0 72 10.5t51 25.5v844q-20 15 -49.5 25.5t-71.5 10.5q-64 0 -109.5 -36.5t-74.5 -100t-42.5 -148.5t-13.5 -182v-21z" />
    <glyph glyph-name="uni0446" unicode="&#x446;" horiz-adv-x="1027" 
d="M156 1082h112v-979h476v979h111v-979h95l-9 -424h-101v321h-684v1082z" />
    <glyph glyph-name="uni0447" unicode="&#x447;" horiz-adv-x="959" 
d="M803 0h-112v450q-52 -22 -111 -36t-121 -14q-84 0 -148.5 21t-109 69t-67.5 126t-23 191v275h111v-275q0 -86 14.5 -144.5t44 -93.5t74 -50t104.5 -15q63 2 122 16t110 34v528h112v-1082z" />
    <glyph glyph-name="uni0448" unicode="&#x448;" horiz-adv-x="1410" 
d="M268 1082v-979h390v979h111v-979h388v979h111v-1082h-1112v1082h112z" />
    <glyph glyph-name="uni0449" unicode="&#x449;" horiz-adv-x="1428" 
d="M263 1082v-979h390v979h111v-979h388v979h111v-978h113l-9 -425h-101v321h-1115v1082h112z" />
    <glyph glyph-name="uni044A" unicode="&#x44a;" horiz-adv-x="1121" 
d="M49 1082h396v-392h255q81 0 143.5 -26t105 -71.5t64 -108.5t21.5 -137t-21.5 -137.5t-64 -110t-105 -73t-143.5 -26.5h-365v978h-286v104zM445 586v-483h255q60 0 102.5 20t69.5 54t39 77t12 90q0 45 -12 88t-39 77.5t-69.5 55.5t-102.5 21h-255z" />
    <glyph glyph-name="uni044B" unicode="&#x44b;" horiz-adv-x="1340" 
d="M270 690h255q81 0 143.5 -26t105 -71.5t64 -108.5t21.5 -137t-21.5 -137.5t-64 -110t-105 -73t-143.5 -26.5h-365v1082h110v-392zM270 586v-483h255q60 0 102.5 20t69.5 54t39 77t12 90q0 45 -12 88t-39 77.5t-69.5 55.5t-102.5 21h-255zM1170 0h-111v1082h111v-1082z
" />
    <glyph glyph-name="uni044C" unicode="&#x44c;" horiz-adv-x="963" 
d="M270 690h255q81 0 143.5 -26t105 -71.5t64 -108.5t21.5 -137t-21.5 -137.5t-64 -110t-105 -73t-143.5 -26.5h-365v1082h110v-392zM270 586v-483h255q60 0 102.5 20t69.5 54t39 77t12 90q0 45 -12 88t-39 77.5t-69.5 55.5t-102.5 21h-255z" />
    <glyph glyph-name="uni044D" unicode="&#x44d;" horiz-adv-x="961" 
d="M455 998q-44 0 -86 -16t-75.5 -48t-54 -80t-20.5 -111h-108q0 79 29 145.5t77 113.5t110 73.5t128 26.5q92 0 164.5 -42t122.5 -114.5t76 -171t26 -212.5v-42q0 -114 -26 -212.5t-76 -171.5t-122.5 -114.5t-164.5 -41.5q-72 0 -134.5 26.5t-109 76.5t-73.5 121.5
t-27 161.5h108q0 -67 18.5 -119.5t51 -89t75.5 -55.5t91 -19q69 0 120 33.5t85.5 90.5t52.5 131.5t20 156.5h-398v104h397q-3 80 -21.5 152.5t-52.5 127t-84.5 87t-118.5 32.5z" />
    <glyph glyph-name="uni044E" unicode="&#x44e;" horiz-adv-x="1440" 
d="M531 487h-260v-487h-111v1082h111v-491h260v5q0 123 29 217t81 158.5t124.5 97.5t160.5 33q89 0 162 -33t125 -97.5t80.5 -158.5t28.5 -217v-112q0 -123 -28.5 -217t-80.5 -157.5t-124.5 -96.5t-160.5 -33q-89 0 -162 33t-125 96.5t-81 157.5t-29 217v3zM643 484
q0 -93 19 -167t55.5 -126t89.5 -80t121 -28q72 0 125 28t88 80t52.5 126t17.5 167v112q0 91 -19 165.5t-55.5 127t-89.5 81t-121 28.5q-67 0 -119.5 -28.5t-89 -81t-55.5 -127t-19 -165.5v-112z" />
    <glyph glyph-name="uni044F" unicode="&#x44f;" horiz-adv-x="976" 
d="M817 1082v-1082h-111v435h-270l-223 -435h-122l230 451q-95 32 -145 113.5t-50 193.5q0 70 21.5 129t63.5 102.5t103.5 68t140.5 24.5h362zM237 756q0 -41 11 -80t34 -69.5t60 -49t88 -18.5h276v439h-251q-58 0 -99 -18.5t-67.5 -49.5t-39 -71t-12.5 -83z" />
    <glyph glyph-name="uni0452" unicode="&#x452;" horiz-adv-x="986" 
d="M516 1234h-257v-322q48 87 121.5 138.5t168.5 51.5q68 0 121.5 -22t91 -70t57.5 -123.5t20 -182.5v-269h1v-524q0 -170 -68.5 -259t-189.5 -89q-28 0 -52 4.5t-51 14.5l12 100q7 -3 18.5 -5.5t24.5 -5t26 -3.5t22 -1q70 0 108.5 63.5t38.5 180.5v794q0 83 -14.5 139
t-41.5 89.5t-65.5 48t-86.5 14.5q-50 0 -91.5 -20.5t-74.5 -54.5t-57 -78t-39 -92v-751h-111v1234h-150v104h150v198h111v-198h257v-104z" />
    <glyph glyph-name="uni0454" unicode="&#x454;" horiz-adv-x="961" 
d="M501 83q46 0 89 12t76.5 41t55 77.5t24.5 121.5h107q-4 -87 -33 -153.5t-77 -111t-110 -67.5t-132 -23q-195 0 -293.5 126t-98.5 374v122q0 248 98.5 374t292.5 126q74 0 137.5 -23.5t110 -71t74.5 -120t31 -170.5h-107q-3 75 -23 128.5t-52.5 87.5t-76 49.5t-94.5 15.5
q-77 0 -130 -26.5t-86 -77.5t-48 -124.5t-15 -167.5v-9h400v-103h-400v-10q0 -95 14.5 -169t47.5 -124.5t86.5 -77t131.5 -26.5z" />
    <glyph glyph-name="uni0459" unicode="&#x459;" horiz-adv-x="1508" 
d="M838 1082v-432h255q81 0 143.5 -24.5t104.5 -67.5t64 -102.5t22 -128.5q0 -70 -22 -129.5t-64 -103.5t-104.5 -69t-143.5 -25h-366v977h-354v-372q0 -156 -15 -270t-49 -188.5t-88.5 -110.5t-132.5 -36h-37l2 105l32 1q45 0 78.5 25.5t55 84t32.5 154t11 235.5v477h576z
M838 546v-444h255q60 0 102.5 19.5t69 51.5t39 72.5t12.5 83.5q0 41 -12.5 80t-39 69.5t-69 49t-102.5 18.5h-255z" />
    <glyph glyph-name="uni045A" unicode="&#x45a;" horiz-adv-x="1522" 
d="M268 653h476v429h111v-432h255q81 0 143 -24.5t104.5 -67.5t64 -102.5t21.5 -128.5q0 -70 -21.5 -129.5t-64 -103.5t-104.5 -69t-143 -25h-366v549h-476v-549h-112v1082h112v-429zM855 546v-444h255q60 0 102 19.5t69 51.5t39 72.5t12 83.5q0 41 -12 80t-39 69.5t-69 49
t-102 18.5h-255z" />
    <glyph glyph-name="uni045B" unicode="&#x45b;" horiz-adv-x="1002" 
d="M527 1246h-268v-334q48 87 121.5 138.5t168.5 51.5q68 0 121.5 -22t91 -70t57.5 -123.5t20 -182.5v-704h-110v705q0 83 -14.5 139t-41.5 89.5t-65.5 48t-86.5 14.5q-50 0 -91.5 -20.5t-74.5 -54.5t-57 -78t-39 -92v-751h-111v1246h-139v104h139v186h111v-186h268v-104z
" />
    <glyph glyph-name="uni045F" unicode="&#x45f;" horiz-adv-x="1012" 
d="M268 1082v-979h476v979h111v-1082h-291v-353h-111v353h-297v1082h112z" />
    <glyph glyph-name="uni0460" unicode="&#x460;" horiz-adv-x="1564" 
d="M1404 1456v-1043q0 -109 -25.5 -190.5t-70.5 -135.5t-107 -80.5t-135 -26.5q-97 0 -171 50.5t-113 153.5q-41 -103 -117 -153.5t-173 -50.5q-71 0 -132 26.5t-105.5 80.5t-69.5 135.5t-25 190.5v1043h116v-1043q0 -81 16.5 -142t45 -102t68 -62t86.5 -21q50 0 92.5 21
t73 62t48 102t17.5 142v1043h119v-1043q0 -81 17 -142t47 -102t71 -62t89 -21t89 21t71 62t47 102t17 142v1043h114z" />
    <glyph glyph-name="uni0461" unicode="&#x461;" horiz-adv-x="1439" 
d="M1277 1082v-702q0 -101 -23.5 -176t-65 -125t-98 -75t-123.5 -25q-86 0 -152.5 45t-103.5 137q-38 -92 -106 -137t-156 -45q-65 0 -120.5 25t-96 75t-63 125t-22.5 176v702h111v-702q0 -73 14 -129t39.5 -93.5t60.5 -56.5t77 -19q45 0 83 19t65.5 56.5t43.5 93.5t16 129
v702h111v-702q0 -73 15 -129t41.5 -93.5t63 -56.5t79.5 -19t79.5 19t63 56.5t41.5 93.5t15 129v702h111z" />
    <glyph glyph-name="uni0463" unicode="&#x463;" horiz-adv-x="962" 
d="M543 1082h-273v-373h254q81 0 143.5 -26.5t105 -74t64 -112t21.5 -140.5t-21.5 -141t-64 -113t-105 -75t-143.5 -27h-365v1082h-164v103h164v363h111v-363h273v-103zM270 605v-502h254q60 0 102.5 21t69.5 56t39 80t12 93q0 46 -12 91.5t-39 81t-69.5 57.5t-102.5 22
h-254z" />
    <glyph glyph-name="uni0464" unicode="&#x464;" horiz-adv-x="1578" 
d="M306 814h217v76q0 137 32 246t92 184.5t146 116t195 40.5q99 0 177.5 -28t135.5 -86t90 -148t41 -214h-116q-8 100 -31 170t-63.5 114t-98.5 64t-135 20q-85 0 -150 -32.5t-109.5 -93.5t-67 -150t-22.5 -201v-78h439v-104h-439v-133q0 -111 21.5 -201.5t64 -154.5
t106 -99t148.5 -35q80 0 140 18.5t101 61.5t64.5 113.5t31.5 174.5h116q-16 -245 -132 -359.5t-321 -114.5q-105 0 -189.5 41t-143.5 118t-91 187.5t-32 249.5v133h-217v-710h-114v1456h114v-642z" />
    <glyph glyph-name="uni0465" unicode="&#x465;" horiz-adv-x="1320" 
d="M268 602h198q0 248 98.5 374t292.5 126q74 0 137.5 -23.5t110 -71t74.5 -120t31 -170.5h-107q-3 75 -23 128.5t-52.5 87.5t-76 49.5t-94.5 15.5q-77 0 -130 -26.5t-86 -77.5t-48 -124.5t-15 -167.5h393v-104h-393v-18q0 -95 14.5 -169t47.5 -124.5t86.5 -77t131.5 -26.5
q46 0 89 12t76.5 41t55 77.5t24.5 121.5h107q-4 -87 -33 -153.5t-77 -111t-110 -67.5t-132 -23q-195 0 -293.5 126t-98.5 374v18h-198v-498h-111v1082h111v-480z" />
    <glyph glyph-name="uni0466" unicode="&#x466;" horiz-adv-x="1073" 
d="M790 472h-188v-472h-112v472h-178l-142 -472h-118l447 1456h108l443 -1456h-119zM345 582h412l-205 688z" />
    <glyph glyph-name="uni0467" unicode="&#x467;" horiz-adv-x="949" 
d="M658 345h-134v-345h-111v345h-140l-119 -345h-115l378 1082h97l379 -1082h-114zM309 449h312l-125 358l-31 121l-31 -121z" />
    <glyph glyph-name="uni0468" unicode="&#x468;" horiz-adv-x="1551" 
d="M322 582h352l269 874h108l443 -1456h-119l-141 472h-188v-472h-112v472h-178l-142 -472h-118l145 474h-319v-474h-114v1456h114v-874zM789 582h412l-205 688z" />
    <glyph glyph-name="uni0469" unicode="&#x469;" horiz-adv-x="1336" 
d="M298 449h273l221 633h97l379 -1082h-114l-121 345h-134v-345h-111v345h-140l-119 -345h-115l120 345h-236v-345h-111v1082h111v-633zM684 449h312l-125 358l-31 121l-31 -121z" />
    <glyph glyph-name="uni046A" unicode="&#x46a;" horiz-adv-x="1454" 
d="M850 780h73q90 0 160.5 -21.5t119.5 -69.5t75 -124.5t26 -185.5v-379h-115v379q0 84 -16 140t-49 90.5t-83 49t-118 14.5h-130l-8 -16v-657h-114v664l-5 9h-136q-67 0 -117 -14.5t-83 -49t-49.5 -90.5t-16.5 -140v-379h-114v379q0 109 26 185.5t75 124.5t119.5 69.5
t159.5 21.5h79l-361 676h964zM728 780h4l292 568h-589z" />
    <glyph glyph-name="uni046B" unicode="&#x46b;" horiz-adv-x="1265" 
d="M755 594q84 0 150 -22t112 -70t70.5 -124t24.5 -185v-193h-111v193q0 84 -15 141t-46 91.5t-78 49.5t-110 15h-55l-8 -15v-475h-110v482l-4 8h-62q-64 0 -111 -15t-78 -49.5t-46 -91.5t-15 -141v-193h-112v193q0 110 25 186.5t71.5 124t114 69t151.5 21.5h4l-272 488h781
zM632 594h7l205 383h-417z" />
    <glyph glyph-name="uni046C" unicode="&#x46c;" horiz-adv-x="1915" 
d="M306 781h730v-1h33l-361 676h964l-362 -676h73q90 0 160.5 -21.5t119.5 -69.5t75 -124.5t26 -185.5v-379h-115v379q0 84 -16 140t-49 90.5t-83 49t-118 14.5h-130l-8 -16v-657h-114v664l-5 9h-136q-67 0 -117 -14.5t-83 -49t-49.5 -90.5t-16.5 -140v-379h-114v379
q0 104 23 177.5t67 121.5h-394v-678h-114v1456h114v-675zM1188 780h4l292 568h-589z" />
    <glyph glyph-name="uni046D" unicode="&#x46d;" horiz-adv-x="1652" 
d="M537 0v193q0 103 21.5 176.5t63.5 121.5h-352v-491h-111v1082h111v-487h632l-271 487h781l-271 -488q84 0 150 -22t112 -70t70.5 -124t24.5 -185v-193h-111v193q0 84 -15 141t-46 91.5t-78 49.5t-110 15h-55l-8 -15v-475h-110v482l-4 8h-62q-64 0 -111 -15t-78 -49.5
t-46 -91.5t-15 -141v-193h-112zM1018 594h7l205 383h-417z" />
    <glyph glyph-name="uni046E" unicode="&#x46e;" horiz-adv-x="926" 
d="M414 1456q89 0 162.5 -25.5t126 -74t81.5 -120t29 -163.5q0 -54 -15 -103.5t-43.5 -91.5t-70 -75.5t-94.5 -54.5q120 -38 181 -126.5t61 -225.5q0 -97 -32.5 -172.5t-88.5 -127t-133 -78.5t-165 -27h-54q-77 0 -109 -34.5t-32 -92.5q0 -37 14.5 -67t36 -53.5t46.5 -40
t45 -25.5l-42 -89q-34 14 -70 40t-66 61.5t-49.5 80t-19.5 97.5q0 108 63 167t186 59h51q71 0 128 21.5t97 60.5t61.5 94t21.5 122q0 157 -84 229t-241 72h-113v105h113q81 0 139 20t95 56.5t54.5 88t17.5 114.5q0 58 -17 108.5t-52.5 87.5t-89.5 58t-129 21h-267v104h267z
M494 1719l141 193h98v-12l-201 -262h-77l-200 263v11h98z" />
    <glyph glyph-name="uni046F" unicode="&#x46f;" horiz-adv-x="873" 
d="M363 601q71 0 121 14t82 39.5t47 61.5t15 81q0 38 -14.5 71t-45 57t-77 38t-109.5 14h-247v105h247q79 0 144.5 -19t113 -56t73.5 -91t26 -123q0 -78 -46 -141.5t-131 -99.5q97 -30 146 -92.5t49 -155.5q0 -74 -29 -132.5t-80 -98.5t-119.5 -61t-147.5 -21h-38
q-77 0 -108.5 -34.5t-31.5 -92.5q0 -37 14.5 -67t36 -53.5t46.5 -40t45 -25.5l-44 -89q-33 14 -69.5 40t-66.5 61.5t-49.5 80t-19.5 97.5q0 108 63.5 167t187.5 59h34q61 0 110 14.5t83.5 41.5t53 65t18.5 85q0 104 -72 150.5t-211 46.5h-112v104h112zM398 1389l141 193h98
v-12l-201 -262h-77l-200 263v11h98z" />
    <glyph glyph-name="uni0472" unicode="&#x472;" horiz-adv-x="1201" 
d="M1067 570q0 -144 -32.5 -254.5t-93.5 -185t-148 -112.5t-196 -38q-108 0 -195 38t-149 112.5t-95.5 185t-33.5 254.5v314q0 144 33 254.5t94.5 185.5t148.5 113.5t195 38.5q109 0 196.5 -38.5t148.5 -113.5t94 -185.5t33 -254.5v-314zM238 775h714v111q0 239 -92 359
t-265 120q-169 0 -263 -120t-94 -359v-111zM952 671h-714v-101q0 -240 95 -360.5t264 -120.5q174 0 264.5 120t90.5 361v101z" />
    <glyph glyph-name="uni0473" unicode="&#x473;" horiz-adv-x="1014" 
d="M104 596q0 123 29 217t81 158.5t124.5 97.5t160.5 33q89 0 162 -33t125 -97.5t80.5 -158.5t28.5 -217v-112q0 -123 -28.5 -217t-80.5 -157.5t-124.5 -96.5t-160.5 -33q-89 0 -162 33t-125 96.5t-81 157.5t-29 217v112zM501 83q72 0 125 28t88 80t52.5 126t17.5 167v7
h-568v-7q0 -93 19 -167t55.5 -126t89.5 -80t121 -28zM216 595h568v1q0 91 -19 165.5t-55.5 127t-89.5 81t-121 28.5q-67 0 -119.5 -28.5t-89 -81t-55.5 -127t-19 -165.5v-1z" />
    <glyph glyph-name="uni0474" unicode="&#x474;" horiz-adv-x="1104" 
d="M483 260l26 -106l27 106l249 944q19 75 43 126.5t54 83.5t67 46.5t82 14.5h26l-1 -110h-9q-23 0 -44 -6t-41 -25.5t-38 -56t-34 -96.5l-328 -1181h-106l-414 1456h125z" />
    <glyph glyph-name="uni0475" unicode="&#x475;" horiz-adv-x="890" 
d="M391 273l30 -129l32 129l159 622q32 112 79.5 159t109.5 47q23 0 44.5 -5.5t37.5 -16.5l-15 -97q-5 3 -17.5 7.5t-28.5 4.5q-14 0 -28 -5t-27.5 -18t-25.5 -36t-22 -59l-255 -876h-88l-319 1082h115z" />
    <glyph glyph-name="uni047A" unicode="&#x47a;" horiz-adv-x="1201" 
d="M656 1246h-111v347h111v-347zM656 -143h-111v353h111v-353zM1067 570q0 -144 -32.5 -254.5t-93.5 -185t-148 -112.5t-196 -38q-108 0 -195 38t-149 112.5t-95.5 185t-33.5 254.5v314q0 144 33 254.5t94.5 185.5t148.5 113.5t195 38.5q109 0 196.5 -38.5t148.5 -113.5
t94 -185.5t33 -254.5v-314zM952 886q0 239 -92 359t-265 120q-169 0 -263 -120t-94 -359v-316q0 -240 95 -360.5t264 -120.5q174 0 264.5 120t90.5 361v316z" />
    <glyph glyph-name="uni047B" unicode="&#x47b;" horiz-adv-x="1002" 
d="M557 873h-111v338h111v-338zM557 -132h-111v338h111v-338zM104 596q0 123 29 217t81 158.5t124.5 97.5t160.5 33q89 0 162 -33t125 -97.5t80.5 -158.5t28.5 -217v-112q0 -123 -28.5 -217t-80.5 -157.5t-124.5 -96.5t-160.5 -33q-89 0 -162 33t-125 96.5t-81 157.5
t-29 217v112zM216 484q0 -93 19 -167t55.5 -126t89.5 -80t121 -28q72 0 125 28t88 80t52.5 126t17.5 167v112q0 91 -19 165.5t-55.5 127t-89.5 81t-121 28.5q-67 0 -119.5 -28.5t-89 -81t-55.5 -127t-19 -165.5v-112z" />
    <glyph glyph-name="uni047C" unicode="&#x47c;" horiz-adv-x="1556" 
d="M1071 1454q71 0 131.5 -28t104.5 -84.5t69 -141t25 -197.5v-573q0 -113 -25 -198t-69 -141t-104.5 -84t-131.5 -28q-98 0 -173.5 50t-116.5 152q-41 -102 -116.5 -152t-172.5 -50q-71 0 -132 28t-105.5 84t-69.5 141t-25 198v573q0 113 25 197.5t69.5 141t105.5 84.5
t132 28v-107q-47 0 -86.5 -22t-68 -65.5t-45 -107.5t-16.5 -149v-573q0 -85 16.5 -149.5t45 -108t68 -65.5t86.5 -22q50 0 92.5 21t73 62.5t48 102.5t17.5 142v468h116v-468q0 -81 17.5 -142t48.5 -102.5t73.5 -62.5t92.5 -21q46 0 85.5 22t68.5 65.5t45 108t16 149.5v573
q0 85 -16 149t-45 107.5t-68.5 65.5t-85.5 22v107zM1164 1683v-86h-28q-49 0 -88 11.5t-72.5 28.5t-61.5 37.5t-54.5 37.5t-53 28.5t-54.5 11.5q-59 0 -89.5 -41t-30.5 -103v-18h-83v31q0 51 13.5 92t39.5 70t62.5 45t83.5 16q36 0 66 -12t59 -30t57.5 -38.5t60 -38.5
t68 -30t80.5 -12h25zM707 1379q29 32 44.5 64.5t15.5 78.5v97h96v-102q0 -30 -10.5 -58.5t-26.5 -53t-35.5 -43.5t-37.5 -30z" />
    <glyph glyph-name="uni047D" unicode="&#x47d;" horiz-adv-x="1403" 
d="M964 1094q65 0 120.5 -26t96 -78.5t63 -131.5t22.5 -184v-275q0 -106 -22.5 -184.5t-63 -131t-96 -78.5t-120.5 -26q-88 0 -157 45t-107 137q-38 -92 -106 -137t-156 -45q-65 0 -120.5 26t-96 78.5t-63 131t-22.5 184.5v275q0 105 22.5 184t63 131.5t96 78.5t120.5 26
v-104q-42 0 -77 -20t-60.5 -60t-40 -99t-14.5 -137v-275q0 -78 14.5 -137.5t40 -99t60.5 -60t77 -20.5q45 0 82.5 19t65.5 56.5t43.5 93.5t15.5 129v244h111v-244q0 -73 16 -129t43.5 -93.5t65.5 -56.5t83 -19q41 0 76 20.5t60.5 60t40 99t14.5 137.5v275q0 78 -14.5 137
t-40 99t-60.5 60t-76 20v104zM1093 1356v-86h-27q-49 0 -88.5 11.5t-73 29t-61.5 37.5l-54.5 37.5t-52.5 29t-55 11.5t-51.5 -11t-37.5 -30.5t-23 -46t-8 -57.5v-18h-82v31q0 51 13.5 92t39.5 70.5t62.5 45t83.5 15.5q35 0 65.5 -12t59 -30t57 -38.5t60 -38.5t68 -30
t80.5 -12h25zM630 1041q29 32 44 65t15 78v97h97v-102q0 -30 -10.5 -58.5t-26.5 -53t-35.5 -43.5t-37.5 -30z" />
    <glyph glyph-name="uni047E" unicode="&#x47e;" horiz-adv-x="1564" 
d="M464 1697v82h644v-82h-277v-115h-103v115h-264zM1404 1456v-1043q0 -109 -25.5 -190.5t-70.5 -135.5t-107 -80.5t-135 -26.5q-97 0 -171 50.5t-113 153.5q-41 -103 -117 -153.5t-173 -50.5q-71 0 -132 26.5t-105.5 80.5t-69.5 135.5t-25 190.5v1043h116v-1043
q0 -81 16.5 -142t45 -102t68 -62t86.5 -21q50 0 92.5 21t73 62t48 102t17.5 142v1043h119v-1043q0 -81 17 -142t47 -102t71 -62t89 -21t89 21t71 62t47 102t17 142v1043h114z" />
    <glyph glyph-name="uni047F" unicode="&#x47f;" horiz-adv-x="1440" 
d="M393 1374l1 82h644l2 -82h-280v-130h-102v130h-265zM1277 1082v-702q0 -101 -23.5 -176t-65 -125t-98 -75t-123.5 -25q-86 0 -152.5 45t-103.5 137q-38 -92 -106 -137t-156 -45q-65 0 -120.5 25t-96 75t-63 125t-22.5 176v702h111v-702q0 -73 14 -129t39.5 -93.5
t60.5 -56.5t77 -19q45 0 83 19t65.5 56.5t43.5 93.5t16 129v702h111v-702q0 -73 15 -129t41.5 -93.5t63 -56.5t79.5 -19t79.5 19t63 56.5t41.5 93.5t15 129v702h111z" />
    <glyph glyph-name="uni0480" unicode="&#x480;" horiz-adv-x="1134" 
d="M657 -366h-114v347q-95 10 -171.5 63.5t-131 141t-84 206t-29.5 258.5v166q0 145 33.5 266t94.5 209t147 137t190 49q97 0 176 -31.5t135.5 -92.5t88.5 -149.5t35 -203.5h-115q-8 176 -88.5 272.5t-231.5 96.5q-80 0 -144.5 -41t-110.5 -114.5t-70.5 -174.5t-24.5 -221
v-168q0 -123 24 -227t68.5 -179t108 -117t142.5 -42h72v-451z" />
    <glyph glyph-name="uni0481" unicode="&#x481;" horiz-adv-x="943" 
d="M568 -366h-111v348q-83 10 -147 55.5t-108.5 117t-67.5 165t-23 200.5v42q0 114 26.5 212.5t76.5 171t122.5 114.5t164.5 42q72 0 134.5 -27t109 -77t73 -122t26.5 -162h-106q0 67 -19 120t-51 89.5t-75 55.5t-92 19q-71 0 -123.5 -36t-87 -96.5t-51 -139.5t-16.5 -164
v-42q0 -86 16.5 -165.5t51 -140t87 -96.5t124.5 -36h66v-448z" />
    <glyph glyph-name="uni0482" unicode="&#x482;" horiz-adv-x="1094" 
d="M508 433l243 -172l-48 -97l-244 170l-156 -334h-118l189 398l-243 171l47 96l246 -171l182 392l-243 171l48 98l245 -171l168 358h116l-201 -421l246 -171l-51 -96l-242 170z" />
    <glyph glyph-name="uni0483" unicode="&#x483;" horiz-adv-x="40" 
d="M-610 1338v-123h-103v204h433v108l102 -1v-188h-432z" />
    <glyph glyph-name="uni0484" unicode="&#x484;" horiz-adv-x="40" 
d="M-710 1396q44 0 80.5 12t68 30t60 38.5t57 38.5t58.5 30t66 12q47 0 84 -16t63 -45t39.5 -70t13.5 -92v-31h-84v18q0 62 -30.5 103t-88.5 41q-28 0 -54.5 -11.5t-53 -28.5t-54.5 -37.5t-61.5 -37.5t-73 -28.5t-87.5 -11.5h-29v86h26z" />
    <glyph glyph-name="uni0485" unicode="&#x485;" horiz-adv-x="40" 
d="M-530 1500v132h123v-139l51 -121l-51 -47z" />
    <glyph glyph-name="uni0486" unicode="&#x486;" horiz-adv-x="40" 
d="M-434 1325l-51 47l51 121l-1 139h124v-132z" />
    <glyph glyph-name="uni0488" unicode="&#x488;" horiz-adv-x="0" 
d="M-127 1267q0 41 14.5 75.5t41.5 59.5t66 39t87 14q49 0 88 -14t66.5 -39t42 -59.5t14.5 -75.5h-112q0 20 -5.5 38t-17 32t-30.5 22.5t-46 8.5t-45 -8.5t-29.5 -22.5t-16.5 -32t-5 -38h-113zM463 990q0 41 14.5 75.5t42 59.5t66.5 39t87 14q49 0 88.5 -14t67 -39t42 -59.5
t14.5 -75.5h-113q0 20 -5 38t-17 32t-31 22.5t-46 8.5q-26 0 -44.5 -8.5t-30 -22.5t-16.5 -32t-5 -38h-114zM650 487q0 41 14.5 75.5t42 59.5t66.5 39t87 14q49 0 88 -14t66.5 -39t42 -59.5t14.5 -75.5h-112q0 20 -5 38t-17 32t-31 22.5t-46 8.5q-26 0 -44.5 -8.5t-30 -22.5
t-17 -32t-5.5 -38h-113zM453 -32q0 41 14.5 75.5t42 59.5t66.5 39t87 14q49 0 88 -14t66.5 -39t42 -59.5t14.5 -75.5h-112q0 20 -5 38t-17 32t-31 22.5t-46 8.5q-26 0 -44.5 -8.5t-30 -22.5t-17 -32t-5.5 -38h-113zM-122 -316q0 41 14.5 75.5t41.5 59.5t66 39t87 14
q49 0 88 -14t66.5 -39t42 -59.5t14.5 -75.5h-112q0 20 -5.5 38t-17 32t-30.5 22.5t-46 8.5q-26 0 -44.5 -8.5t-30 -22.5t-16.5 -32t-5 -38h-113zM-700 990q0 41 14.5 75.5t42 59.5t66.5 39t88 14t88 -14t66.5 -39t42 -59.5t14.5 -75.5h-112q0 20 -5.5 38t-17 32t-30.5 22.5
t-46 8.5t-45.5 -8.5t-30 -22.5t-16.5 -32t-5 -38h-114zM-876 487q0 41 14.5 75.5t42 59.5t66.5 39t87 14q49 0 88 -14t66.5 -39t42 -59.5t14.5 -75.5h-112q0 20 -5 38t-17 32t-31 22.5t-46 8.5q-26 0 -44.5 -8.5t-30 -22.5t-17 -32t-5.5 -38h-113zM-710 -32q0 41 14.5 75.5
t42 59.5t66.5 39t87 14q49 0 88.5 -14t67 -39t42 -59.5t14.5 -75.5h-113q0 20 -5 38t-17 32t-31 22.5t-46 8.5q-26 0 -44.5 -8.5t-30 -22.5t-16.5 -32t-5 -38h-114z" />
    <glyph glyph-name="uni0489" unicode="&#x489;" horiz-adv-x="0" 
d="M191 -60l11 -14l-122 -339h-95l69 353h137zM-3 1126l-12 14l121 338h96l-70 -352h-135zM674 631l13 12l333 -124v-98l-346 71v139zM-489 433l-13 -12l-333 124v98l346 -71v-139zM434 1002l2 16l321 153l68 -68l-294 -200zM-249 21l-2 -17l-320 -153l-69 69l294 200z
M-389 860l-17 2l-148 326l65 69l198 -299zM572 161l17 -2l149 -325l-66 -71l-197 299z" />
    <glyph glyph-name="uni048D" unicode="&#x48d;" horiz-adv-x="962" 
d="M543 1352h-273v-643h254q81 0 143.5 -26.5t105 -74t64 -112t21.5 -140.5t-21.5 -141t-64 -113t-105 -75t-143.5 -27h-365v1352h-164v104h164v180h111v-180h273v-104zM270 605v-502h254q60 0 102.5 21t69.5 56t39 80t12 93q0 46 -12 91.5t-39 81t-69.5 57.5t-102.5 22
h-254z" />
    <glyph glyph-name="uni048E" unicode="&#x48e;" horiz-adv-x="1129" 
d="M1008 558l-68 -69l-286 379l69 70zM283 592v-592h-114v1456h423q102 0 179.5 -32t130 -89.5t79 -137.5t26.5 -176q0 -101 -26.5 -181t-79 -135t-130 -84t-179.5 -29h-309zM283 699h309q80 0 137 24.5t93.5 67.5t53.5 101.5t17 126.5q0 66 -17 126t-53.5 105t-93.5 71.5
t-137 26.5h-309v-649z" />
    <glyph glyph-name="uni048F" unicode="&#x48f;" horiz-adv-x="1012" 
d="M877 -23l-70 -69l-250 360l70 69zM886 490q0 -131 -23.5 -227t-67.5 -159t-109 -93.5t-147 -30.5q-98 0 -167.5 39.5t-113.5 110.5v-546h-110v1498h102l5 -148q45 79 114 123.5t167 44.5q84 0 149 -29t110 -91t68 -158.5t23 -232.5v-101zM775 591q0 208 -64.5 306
t-201.5 98q-51 0 -91.5 -14.5t-71 -39.5t-52 -57t-36.5 -68v-570q16 -35 39.5 -65t54.5 -52t70.5 -34t88.5 -12q135 0 199.5 99.5t64.5 307.5v101z" />
    <glyph glyph-name="uni0490" unicode="&#x490;" horiz-adv-x="983" 
d="M908 1352h-2v-4h-626v-1348h-114v1456h632v354h110v-458z" />
    <glyph glyph-name="uni0491" unicode="&#x491;" horiz-adv-x="796" 
d="M717 977h-454v-977h-112v1082h456v344h110v-449z" />
    <glyph glyph-name="uni0494" unicode="&#x494;" horiz-adv-x="1043" 
d="M914 1348h-626v-520h172q111 0 201 -34.5t154 -105t99 -178t35 -253.5q0 -106 -23.5 -203.5t-71.5 -172.5t-120.5 -119.5t-170.5 -44.5l-1 100q73 0 125 35.5t85.5 96t49.5 140t16 168.5q0 119 -26.5 206t-75 144t-118.5 85t-158 28h-172v-720h-114v1456h740v-108z" />
    <glyph glyph-name="uni0495" unicode="&#x495;" horiz-adv-x="898" 
d="M714 977h-451v-351h115q93 0 172.5 -27.5t137 -84.5t90.5 -143.5t33 -204.5q0 -35 -6.5 -77t-21.5 -86t-39.5 -87t-59.5 -80t-82 -65t-107 -41l-29 96q68 18 113 54t72 82.5t38 99t12 104.5q1 90 -23.5 156.5t-68 110t-103 64.5t-128.5 21h-115v-518h-112v1082h563v-105z
" />
    <glyph glyph-name="uni049C" unicode="&#x49c;" horiz-adv-x="1100" 
d="M1016 1456l-361 -701l410 -755h-145l-355 687h-74v-283h-94v283h-114v-687h-115v1456h115v-661h114v281h94v-281h78l311 661h136z" />
    <glyph glyph-name="uni049D" unicode="&#x49d;" horiz-adv-x="976" 
d="M903 1082l-291 -520l331 -562h-145l-271 494h-58v-236h-94v236h-108v-494h-112v1082h112v-479h108v240h94v-240h58l238 479h138z" />
    <glyph glyph-name="uni04A0" unicode="&#x4a0;" horiz-adv-x="1433" 
d="M771 682h-163v-682h-114v1352h-408v104h522v-667h156l464 667h144l-499 -715l536 -741h-142z" />
    <glyph glyph-name="uni04A1" unicode="&#x4a1;" horiz-adv-x="1184" 
d="M648 494h-133v-494h-112v978h-338v104h450v-479h131l328 479h138l-373 -523l412 -559h-145z" />
    <glyph glyph-name="uni04A4" unicode="&#x4a4;" horiz-adv-x="1764" 
d="M284 803h684v653h709v-104h-594v-1352h-115v697h-684v-697h-114v1456h114v-653z" />
    <glyph glyph-name="uni04A5" unicode="&#x4a5;" horiz-adv-x="1282" 
d="M263 598h476v484h461v-105h-350v-977h-111v495h-476v-495h-112v1082h112v-484z" />
    <glyph glyph-name="uni04A6" unicode="&#x4a6;" horiz-adv-x="1795" 
d="M1072 835h134q111 0 201 -34.5t154 -105t99 -178t35 -253.5q0 -106 -23.5 -203.5t-71.5 -172.5t-120.5 -119.5t-170.5 -44.5l-1 100q73 0 125 35.5t85.5 96t49.5 140t16 168.5q0 119 -26.5 206t-75 144t-118.5 85t-158 28h-134v-727h-114v1348h-676v-1348h-114v1456h904
v-621z" />
    <glyph glyph-name="uni04A7" unicode="&#x4a7;" horiz-adv-x="1512" 
d="M850 626h140q95 0 176 -27.5t140 -84.5t92.5 -143.5t33.5 -204.5q0 -35 -6.5 -77t-22 -86t-39.5 -87t-59.5 -80t-82.5 -65t-107 -41l-29 96q67 18 112 54t72 82.5t38.5 99t11.5 104.5q1 90 -24 156.5t-69 110t-105 64.5t-132 21h-140v-518h-111v977h-476v-977h-112v1082
h699v-456z" />
    <glyph glyph-name="uni04A8" unicode="&#x4a8;" horiz-adv-x="1318" 
d="M1225 -25q-90 0 -170 18t-149 52q-58 -32 -124.5 -49t-141.5 -17q-120 0 -216 53.5t-163 147.5t-103 221.5t-36 274.5v206q0 126 27.5 234.5t78 189t121 126t156.5 45.5l2 -111q-63 0 -113 -38.5t-85 -104.5t-53.5 -153.5t-18.5 -185.5v-208q0 -125 28 -232t80.5 -186.5
t127 -124.5t167.5 -45q85 0 154 27q-121 94 -187 238.5t-66 324.5v254q0 115 24 213.5t67.5 170t105.5 112t138 40.5t138 -40t106.5 -111t69 -170t24.5 -217v-263q0 -176 -54.5 -316.5t-153.5 -232.5q99 -35 219 -35v-108zM656 676q0 -165 61 -296t180 -209q49 38 87 90
t64 116t39 137t13 153v266q0 92 -15 170t-44 134.5t-70.5 88.5t-94.5 32q-52 0 -93 -33t-69 -90t-43 -134.5t-15 -166.5v-258z" />
    <glyph glyph-name="uni04A9" unicode="&#x4a9;" horiz-adv-x="1064" 
d="M992 -12q-143 0 -255 55q-46 -31 -99.5 -47.5t-113.5 -16.5q-92 0 -166.5 44t-128 120.5t-82.5 181t-29 226.5v76q0 102 20.5 188.5t58.5 150.5t91.5 100t118.5 36v-107q-38 0 -70.5 -27.5t-56.5 -76.5t-37.5 -116t-13.5 -146v-78q0 -98 20 -183t58 -147.5t92.5 -98.5
t124.5 -36q60 0 112 23q-92 77 -142 192.5t-50 258.5v105q0 96 18 176.5t51.5 138t80.5 90t106 32.5t106.5 -35t81.5 -96.5t52 -145.5t18 -181v-103q0 -128 -35.5 -235.5t-99.5 -183.5q74 -28 169 -28v-106zM555 558q0 -128 44.5 -226t126.5 -158q59 62 90 157t31 210v106
q0 72 -10 135.5t-29 110.5t-46.5 74.5t-61.5 27.5q-35 0 -62 -25t-45.5 -68.5t-28 -104t-9.5 -130.5v-109z" />
    <glyph glyph-name="uni04B4" unicode="&#x4b4;" horiz-adv-x="1543" 
d="M383 1352h-331v103h331v1h115v-1h352v-103h-352v-1246h675v1350h114v-1348h122l-9 -459h-105v351h-912v1352z" />
    <glyph glyph-name="uni04B5" unicode="&#x4b5;" horiz-adv-x="1170" 
d="M292 979h-247v103h595v-103h-236v-876h476v979h111v-979h95l-9 -424h-101v321h-684v979z" />
    <glyph glyph-name="uni04B8" unicode="&#x4b8;" horiz-adv-x="1186" 
d="M656 359h-93v691h93v-691zM1016 1456v-1456h-115v659q-75 -25 -154.5 -40.5t-175.5 -15.5q-98 0 -174 24t-128.5 77.5t-80 138.5t-27.5 208v405h115v-405q0 -95 19 -160t56 -105t92 -58t128 -18q87 0 168.5 14.5t161.5 41.5v690h115z" />
    <glyph glyph-name="uni04B9" unicode="&#x4b9;" horiz-adv-x="986" 
d="M561 236h-94v561h94v-561zM836 0h-112v450q-52 -22 -111 -36t-121 -14q-84 0 -148.5 21t-109 69t-67.5 126t-23 191v275h111v-275q0 -86 14.5 -144.5t44 -93.5t74 -50t104.5 -15q63 2 122 16t110 34v528h112v-1082z" />
    <glyph glyph-name="uni04BA" unicode="&#x4ba;" horiz-adv-x="1186" 
d="M115 0v1456h115v-660q75 26 154 41.5t176 15.5t173.5 -24t129 -77.5t80 -138.5t27.5 -208v-405h-115v405q0 94 -19 159.5t-56 105.5t-92 58t-128 18q-88 0 -169.5 -15t-160.5 -41v-690h-115z" />
    <glyph glyph-name="uni04BC" unicode="&#x4bc;" horiz-adv-x="1345" 
d="M821 -21q-122 0 -216.5 44.5t-158.5 124t-97 190.5t-33 243v151q-128 17 -195 106.5t-67 238.5h96q0 -101 40.5 -165t125.5 -80v29q0 135 35 248t95.5 194t143.5 126.5t179 45.5q108 0 192.5 -45t142.5 -128t88.5 -201t30.5 -264v-108h-792v-148q0 -103 22.5 -193.5
t69.5 -157.5t121 -105.5t177 -38.5q55 0 101.5 9.5t86.5 25t73 36.5t60 45l34 -94q-20 -21 -50.5 -44t-73.5 -41.5t-100.5 -31t-130.5 -12.5zM431 827h678v42q0 104 -20 194.5t-62 158t-106 106t-152 38.5q-80 0 -143 -39.5t-106.5 -108t-66 -160.5t-22.5 -197v-34z" />
    <glyph glyph-name="uni04BD" unicode="&#x4bd;" horiz-adv-x="1056" 
d="M609 -20q-90 0 -165 29.5t-129.5 90t-84.5 152.5t-30 218v82q-95 23 -143.5 100.5t-48.5 201.5h92q0 -76 25 -128t77 -74q7 120 41 205t87 139.5t120 80t140 25.5q178 0 270.5 -117.5t92.5 -359.5v-94h-643v-61q0 -99 22 -172t62 -121t96 -71.5t124 -23.5q84 0 146 28.5
t113 88.5l58 -74q-22 -30 -51.5 -56t-69 -46t-89.5 -31.5t-112 -11.5zM590 998q-59 0 -108.5 -20t-86 -63.5t-58.5 -112.5t-26 -167h531v29q-2 79 -18 141t-46.5 105t-77.5 65.5t-110 22.5z" />
    <glyph glyph-name="uni04C3" unicode="&#x4c3;" horiz-adv-x="1100" 
d="M283 0h-115v1456h115v-653h140l454 653h136l-461 -656q108 -2 196 -37t150.5 -105.5t96.5 -177t34 -250.5q0 -105 -23.5 -202.5t-71.5 -173t-121.5 -121t-173.5 -45.5l-1 103q73 0 125.5 36t85.5 96.5t48.5 139.5t15.5 166q0 118 -26 205t-74.5 144t-117.5 84.5
t-156 27.5h-256v-690z" />
    <glyph glyph-name="uni04C4" unicode="&#x4c4;" horiz-adv-x="953" 
d="M499 598q80 -9 147.5 -40t116 -85t75.5 -133t27 -184q0 -34 -6.5 -75t-22 -84t-39.5 -85t-59.5 -78t-82 -63t-106.5 -40l-30 95q68 18 113 53t72 80t38.5 96t12.5 101q1 91 -24 155t-70 105t-106 60t-132 19h-2l-1 -1h-153v-494h-112v1082h112v-479h105l354 479h138z" />
    <glyph glyph-name="uni04C7" unicode="&#x4c7;" horiz-adv-x="1255" 
d="M289 1456v-682h674v682h115v-1542q0 -171 -68.5 -261t-191.5 -90q-26 0 -48 4.5t-48 14.5l12 104q7 -3 17.5 -5.5l22 -5t23 -3.5t20.5 -1q70 0 108 63.5t38 179.5v753h-674v-667h-114v1456h114z" />
    <glyph glyph-name="uni04C8" unicode="&#x4c8;" horiz-adv-x="1001" 
d="M262 1082v-484h476v484h111v-1171q0 -170 -68.5 -259t-189.5 -89q-26 0 -48 4.5t-46 14.5l12 101q6 -3 16.5 -6t22.5 -5t23.5 -3.5t19.5 -1.5q70 0 108.5 64t38.5 180v584h-476v-495h-112v1082h112z" />
    <glyph glyph-name="uni04D8" unicode="&#x4d8;" horiz-adv-x="1241" 
d="M588 1476q129 0 228 -49.5t166.5 -139t102.5 -213t35 -271.5v-132q0 -153 -38 -280t-105 -218.5t-157.5 -142t-195.5 -50.5q-120 0 -214 44.5t-158.5 127t-98.5 200t-34 264.5v123h886v64q0 117 -24 219.5t-74.5 179t-129.5 121t-189 44.5q-58 0 -107 -9.5t-91 -26
t-77 -37.5t-63 -45l-34 94q21 21 53.5 44.5t77.5 43t104.5 32.5t136.5 13zM624 87q87 0 156 42.5t117.5 117t75.5 174.5t31 215h-770v-52q0 -104 23 -194.5t71 -158t121.5 -106t174.5 -38.5z" />
    <glyph glyph-name="uni04E0" unicode="&#x4e0;" horiz-adv-x="1032" 
d="M742 1348h-600v108h733l2 -97l-372 -521q192 -3 291.5 -117t99.5 -325q0 -99 -29.5 -177t-82 -131t-125 -81t-157.5 -28q-71 0 -141 25t-125 77t-89 132t-34 191h116q0 -68 19.5 -126.5t55 -101t86 -67t112.5 -24.5q67 0 119 22t88 62t54.5 97t18.5 126q0 92 -19 157.5
t-56 107.5t-92 62t-126 20h-105v104z" />
    <glyph glyph-name="uni04E1" unicode="&#x4e1;" horiz-adv-x="1032" 
d="M734 977h-592v105h730l2 -94l-367 -527q91 -4 163 -34.5t122 -86.5t76 -136t26 -183q0 -99 -29.5 -176t-82 -130.5t-124.5 -81.5t-157 -28q-71 0 -140 25t-124.5 77t-89.5 132t-34 190h113q0 -68 20 -126.5t56 -101.5t86.5 -67.5t112.5 -24.5q67 0 120 22t89 62.5
t55 97.5t19 126q0 92 -21 158t-60.5 108t-96.5 61.5t-128 19.5h-95v104z" />
    <glyph glyph-name="uni04FA" unicode="&#x4fa;" horiz-adv-x="1025" 
d="M948 1348h-626v-1348h-114v1456h740v-108zM565 753h-518v104h518v-104zM417 135v-224q0 -170 -68 -259t-190 -89q-25 0 -47 4.5t-46 14.5l11 106q14 -6 39.5 -11t42.5 -5q71 0 109 61.5t38 177.5v224h111z" />
    <glyph glyph-name="uni04FB" unicode="&#x4fb;" horiz-adv-x="747" 
d="M758 977h-451v-977h-112v1082h563v-105zM568 562h-518v104h518v-104zM407 135v-224q0 -170 -68 -259t-190 -89q-25 0 -47 4.5t-46 14.5l11 106q14 -6 39.5 -11t42.5 -5q71 0 109 61.5t38 177.5v224h111z" />
    <glyph glyph-name="uni0500" unicode="&#x500;" horiz-adv-x="1041" 
d="M792 846v610h116v-1456h-416q-100 0 -176 32t-127.5 88.5t-77.5 134.5t-26 170t26 169t77.5 133t127.5 87.5t176 31.5h300zM792 106v633h-300q-78 0 -133.5 -26.5t-91 -70t-52 -99.5t-16.5 -116q0 -62 16.5 -120t52 -102.5t91 -71.5t133.5 -27h300z" />
    <glyph glyph-name="uni0502" unicode="&#x502;" horiz-adv-x="1397" 
d="M493 0q-100 0 -176 32t-127.5 88.5t-77.5 134.5t-26 170t26 169t77.5 133t127.5 87.5t176 31.5h301v610h116v-1352l97 1q103 2 156 82.5t56 217.5q1 82 -12 172t-39 174h110q23 -84 40 -172t15 -174q-2 -102 -28.5 -178t-71 -126.5t-103 -75.5t-123.5 -25h-514zM794 106
v633h-301q-78 0 -133 -26.5t-90.5 -70t-52 -99.5t-16.5 -116q0 -62 16.5 -120t52 -102.5t90.5 -71.5t133 -27h301z" />
    <glyph glyph-name="uni0503" unicode="&#x503;" horiz-adv-x="1518" 
d="M111 531q0 128 23.5 233t68 180t109.5 116.5t149 41.5q91 0 157 -42.5t111 -117.5v618h111v-1215q-1 -129 43.5 -196t119.5 -67q63 1 112 33t82.5 90t51 140t18.5 184q2 100 -13 201t-40 201l108 1q23 -98 40.5 -199t15.5 -204q-2 -139 -31.5 -242.5t-80 -171.5
t-118.5 -102t-145 -34q-93 -2 -156.5 44t-93.5 151q-43 -91 -115.5 -143t-177.5 -52q-83 0 -148 38.5t-109.5 108t-68 167.5t-23.5 217v21zM729 809q-15 37 -37 71t-52 59.5t-69 40.5t-88 15q-68 0 -117.5 -36t-81 -99t-46.5 -147.5t-15 -181.5v-21q0 -92 15 -170
t46.5 -134.5t80.5 -88.5t117 -32q49 0 88.5 14t70.5 39t54 59.5t39 75.5q-2 17 -3 34.5t-2 37.5v464z" />
    <glyph glyph-name="uni0504" unicode="&#x504;" horiz-adv-x="1399" 
d="M629 381q0 65 -15 118.5t-44 92t-72.5 60t-101.5 21.5h-163v107h139q152 0 222.5 74t70.5 221q0 62 -17 112.5t-53 86t-93 55t-137 19.5h-302v108h302q202 0 308.5 -97t106.5 -286q0 -125 -57 -217t-166 -134q52 -19 87.5 -51.5t57.5 -76.5t31.5 -97.5t9.5 -113.5v-79
q0 -48 10.5 -88.5t30.5 -69.5t48 -45t63 -16q61 1 107.5 37t78 96.5t48.5 140.5t18 170q2 100 -13.5 201.5t-40.5 201.5h113q22 -98 40 -199t17 -204q-2 -128 -31 -230t-78.5 -173t-116 -109t-143.5 -38q-60 -2 -107.5 16t-82 57.5t-53.5 102t-22 149.5v77z" />
    <glyph glyph-name="uni0505" unicode="&#x505;" horiz-adv-x="1148" 
d="M623 213q-1 -61 22 -97.5t88 -36.5q53 1 93.5 25t68.5 67.5t42.5 106t16.5 141.5q2 78 -13 159.5t-45 159.5h113q21 -78 39.5 -158t16.5 -161q-2 -113 -29 -196t-72.5 -137.5t-105 -81.5t-125.5 -27q-53 -2 -93.5 10.5t-68 41t-42.5 74.5t-17 111v80q0 88 -51.5 135
t-151.5 47h-177l-2 102h170q55 0 96 14.5t68 40t40.5 60t13.5 75.5q0 45 -14.5 84t-44 67.5t-73.5 45t-102 16.5h-220l-5 101h225q83 0 147.5 -21.5t109 -61.5t67.5 -97.5t23 -129.5q0 -82 -41 -143.5t-120 -96.5q43 -14 72 -37t47 -53.5t26 -67.5t8 -79v-82v0z" />
    <glyph glyph-name="uni0506" unicode="&#x506;" horiz-adv-x="958" 
d="M185 658v103h138q85 0 144.5 22.5t96 62t53 93t16.5 115.5q0 70 -17.5 125.5t-54 93.5t-92.5 58.5t-132 20.5h-237v103h237q197 0 301.5 -101t104.5 -301q0 -114 -54.5 -205t-160.5 -136q60 -18 101 -50t65.5 -76t35.5 -98.5t11 -116.5v-137q0 -63 13 -118t46 -92v-25
h-114q-17 21 -28 50t-17 61t-8.5 65t-2.5 61v133q0 66 -17.5 119.5t-51.5 91t-83.5 58t-112.5 20.5h-180zM868 15q0 -45 -9.5 -90t-27.5 -86.5t-44 -78.5t-59 -67l-71 53q46 62 70 125t24 142v143h117v-141z" />
    <glyph glyph-name="uni0507" unicode="&#x507;" horiz-adv-x="903" 
d="M186 467v103h185q63 0 107.5 13.5t72 39t40 63t12.5 84.5q0 48 -12.5 87t-40 66t-72 41.5t-107.5 14.5h-255l2 103h253q166 0 255 -79.5t89 -229.5q0 -88 -40 -151.5t-123 -98.5q45 -14 76 -38t50 -57t27.5 -73t8.5 -85v-98q0 -42 7 -84t30 -68v-20h-116q-12 14 -18.5 38
t-9.5 50t-3.5 49t-0.5 36v96q0 93 -52.5 145.5t-152.5 52.5h-212zM825 22q0 -45 -9.5 -90t-27.5 -86.5t-44 -78.5t-59 -67l-71 53q46 62 70 125t24 142v143h117v-141z" />
    <glyph glyph-name="uni0508" unicode="&#x508;" horiz-adv-x="1704" 
d="M944 1348h-462v-580q0 -194 -19.5 -338.5t-62.5 -240t-112 -142.5t-168 -47h-44v106h34q68 0 117 37.5t80 117.5t45.5 205.5t14.5 301.5v688h692v-1111q-1 -128 42.5 -194t118.5 -66q62 1 110.5 32.5t81.5 89t50.5 139t18.5 183.5q1 100 -14 201t-40 201l112 1
q22 -98 40 -199t16 -204q-2 -139 -31.5 -242.5t-80.5 -171.5t-118.5 -102t-144.5 -34q-62 -2 -112 18.5t-85.5 65t-55.5 114.5t-23 168v1003z" />
    <glyph glyph-name="uni0509" unicode="&#x509;" horiz-adv-x="1425" 
d="M833 1082v-737q-1 -129 41 -196t114 -67q55 1 97 28t71 76.5t44.5 120t16.5 157.5q2 95 -13 191t-41 190l108 1l22 -94t19 -95t13 -96.5t4 -96.5q-2 -123 -29.5 -214t-73.5 -151t-107 -90t-131 -30q-60 -2 -107.5 18.5t-82 65t-53.5 114.5t-22 168v632h-332v-355
q0 -154 -15 -270.5t-48.5 -194.5t-86.5 -117.5t-128 -39.5h-48l1 110h37q94 0 136 123t42 389v460h552z" />
    <glyph glyph-name="uni050A" unicode="&#x50a;" horiz-adv-x="1723" 
d="M1030 1456v-1111q-1 -128 42.5 -194t118.5 -66q63 1 111 32.5t81 89t50.5 139t18.5 183.5q2 100 -13.5 201t-40.5 201l112 1q23 -98 41.5 -199t16.5 -204q-2 -139 -32.5 -242.5t-81 -171.5t-118.5 -102t-145 -34q-62 -2 -112 18.5t-85 65t-55.5 114.5t-23.5 168v321h-624
v-666h-116v1456h116v-683h624v683h115z" />
    <glyph glyph-name="uni050B" unicode="&#x50b;" horiz-adv-x="1462" 
d="M732 489h-476v-489h-111v1082h111v-490h476v490h110v-737q-1 -129 41 -196t114 -67q55 1 97 28t71 76.5t44.5 120t16.5 157.5q2 95 -13.5 191t-40.5 190l108 1l22 -94t19 -95t13 -96.5t4 -96.5q-2 -123 -29.5 -214t-73.5 -151t-107 -90t-131 -30q-60 -2 -107.5 18.5
t-82 65t-53.5 114.5t-22 168v144z" />
    <glyph glyph-name="uni050C" unicode="&#x50c;" horiz-adv-x="1103" 
d="M603 -21q-105 0 -192 47t-149.5 129.5t-96.5 195.5t-34 246v262q0 133 34 246t96.5 195.5t149.5 129.5t192 47q93 0 162.5 -19.5t123.5 -57.5l-37 -99q-54 33 -114.5 50.5t-134.5 17.5q-84 0 -150.5 -40t-112.5 -109t-70 -161.5t-24 -197.5v-264q0 -106 24 -199
t70 -162.5t112.5 -110t150.5 -40.5q69 1 121.5 25t89 68t55.5 106.5t21 140.5q1 90 -11 181t-31 180h112q16 -88 30.5 -179t13.5 -182q-2 -113 -35 -196.5t-88 -139t-127 -83t-151 -27.5z" />
    <glyph glyph-name="uni050D" unicode="&#x50d;" horiz-adv-x="921" 
d="M516 82q57 1 95.5 18t62 46t34 68.5t11.5 86.5q0 57 -5 118t-15 118h108q9 -58 16 -117.5t6 -118.5q-2 -82 -26 -142.5t-65.5 -100.5t-98 -59.5t-123.5 -19.5q-96 0 -170.5 44t-125.5 118.5t-77.5 172.5t-26.5 206v42q0 108 25.5 206t74 172t119.5 118t163 44
q156 0 230 -63l-31 -97q-38 27 -89 41.5t-110 14.5q-72 0 -123.5 -38.5t-84 -101t-48 -140.5t-15.5 -156v-42q0 -80 17 -158t52.5 -140.5t90 -101t129.5 -38.5z" />
    <glyph glyph-name="uni050E" unicode="&#x50e;" horiz-adv-x="1257" 
d="M473 1348h-425v108h968v-108h-428v-1003q-1 -128 43 -194t119 -66q62 1 110 32.5t81 89t50.5 139t19.5 183.5q1 100 -14 201t-41 201l112 1q23 -98 41 -199t15 -204q-2 -139 -31.5 -242.5t-80.5 -171.5t-118.5 -102t-143.5 -34q-62 -2 -112 18.5t-85.5 65t-56 114.5
t-23.5 168v1003z" />
    <glyph glyph-name="uni050F" unicode="&#x50f;" horiz-adv-x="1139" 
d="M397 979h-320v103h761v-103h-329v-634q-1 -129 43 -196t120 -67q55 1 97 26t71 71t44.5 111t16.5 146q1 88 -14 177t-40 177h108l22 -87t19 -88.5t13 -89t4 -89.5q-2 -116 -29.5 -201.5t-73.5 -142.5t-107.5 -85t-130.5 -28q-62 -2 -111 18.5t-84.5 65t-55.5 114.5
t-24 168v634z" />
    <glyph glyph-name="uni0510" unicode="&#x510;" horiz-adv-x="1180" 
d="M614 688q-175 0 -266 -70t-91 -226q0 -69 24 -125.5t70 -96.5t113.5 -62t154.5 -22q77 0 140 24t108 67t69.5 101t24.5 126h115q0 -111 -40 -191t-104.5 -131.5t-146.5 -76.5t-166 -25q-104 0 -191.5 27.5t-151 81t-99 131t-35.5 176.5q0 134 63.5 223t190.5 127
q-114 45 -175 131.5t-61 194.5q0 99 32.5 175t92.5 127t145 77t189 26q90 0 170 -28t140 -80.5t95 -127t35 -167.5h-114q0 67 -25.5 121.5t-69.5 93t-103.5 59.5t-127.5 21q-90 0 -154.5 -22.5t-106.5 -62t-62 -93t-20 -115.5q0 -63 19 -114.5t60 -88.5t105 -57t154 -20h155
v-108h-155z" />
    <glyph glyph-name="uni2000" unicode="&#x2000;" horiz-adv-x="917" 
 />
    <glyph glyph-name="uni2001" unicode="&#x2001;" horiz-adv-x="1795" 
 />
    <glyph glyph-name="uni2002" unicode="&#x2002;" horiz-adv-x="917" 
 />
    <glyph glyph-name="uni2003" unicode="&#x2003;" horiz-adv-x="1795" 
 />
    <glyph glyph-name="uni2004" unicode="&#x2004;" horiz-adv-x="625" 
 />
    <glyph glyph-name="uni2005" unicode="&#x2005;" horiz-adv-x="478" 
 />
    <glyph glyph-name="uni2006" unicode="&#x2006;" horiz-adv-x="332" 
 />
    <glyph glyph-name="uni2007" unicode="&#x2007;" horiz-adv-x="1007" 
 />
    <glyph glyph-name="uni2008" unicode="&#x2008;" horiz-adv-x="510" 
 />
    <glyph glyph-name="uni2009" unicode="&#x2009;" horiz-adv-x="391" 
 />
    <glyph glyph-name="uni200A" unicode="&#x200a;" horiz-adv-x="216" 
 />
    <glyph glyph-name="uni200B" unicode="&#x200b;" horiz-adv-x="40" 
 />
    <glyph glyph-name="endash" unicode="&#x2013;" horiz-adv-x="1162" 
d="M999.011 685h-841.209v104h841.209v-104z" />
    <glyph glyph-name="emdash" unicode="&#x2014;" horiz-adv-x="1370" 
d="M1261.98 685h-1121.58v104h1121.58v-104z" />
    <glyph glyph-name="underscoredbl" unicode="&#x2017;" horiz-adv-x="820" 
d="M798 -346h-746v103h746v-103zM798 -103h-746v103h746v-103z" />
    <glyph glyph-name="quoteleft" unicode="&#x2018;" horiz-adv-x="353" 
d="M102 1232q0 92 33 177t90 145l66 -52q-39 -63 -59 -125.5t-20 -142.5v-115h-110v113z" />
    <glyph glyph-name="quoteright" unicode="&#x2019;" horiz-adv-x="353" 
d="M258 1420q0 -92 -32.5 -177.5t-90.5 -145.5l-65 53q38 62 58 125t20 142v119h110v-116z" />
    <glyph glyph-name="quotesinglbase" unicode="&#x201a;" horiz-adv-x="345" 
d="M242 89q0 -45 -8.5 -90t-24.5 -86.5t-39 -78.5t-51 -67l-66 52q39 63 58.5 126t19.5 141v118h111v-115z" />
    <glyph glyph-name="quotereversed" unicode="&#x201b;" horiz-adv-x="354" 
d="M55.0156 1420q0 -92 32.498 -177.5t90.4941 -145.5l64.9961 53q-37.9971 62 -57.9961 125t-19.999 142v119h-109.993v-116z" />
    <glyph glyph-name="quotedblleft" unicode="&#x201c;" horiz-adv-x="572" 
d="M104 1232q0 92 33 177t90 145l66 -52q-39 -63 -59 -125.5t-20 -142.5v-115h-110v113zM325 1232q0 92 33 177t90 145l66 -52q-39 -63 -59 -125.5t-20 -142.5v-115h-110v113z" />
    <glyph glyph-name="quotedblright" unicode="&#x201d;" horiz-adv-x="577" 
d="M264 1420q0 -92 -32.5 -177.5t-90.5 -145.5l-65 53q38 62 58 125t20 142v119h110v-116zM479 1420q0 -92 -32.5 -177.5t-90.5 -145.5l-65 53q38 62 58 125t20 142v119h110v-116z" />
    <glyph glyph-name="quotedblbase" unicode="&#x201e;" horiz-adv-x="556" 
d="M242 89q0 -94 -33 -182t-90 -150l-66 53q39 65 58.5 130t19.5 146v151h111v-148zM448 89q0 -94 -32.5 -182t-90.5 -150l-65 53q39 65 58 130t19 146v151h111v-148z" />
    <glyph glyph-name="dagger" unicode="&#x2020;" horiz-adv-x="987" 
d="M908 975h-358v-975h-111v975h-362v107h362v374h111v-374h358v-107z" />
    <glyph glyph-name="daggerdbl" unicode="&#x2021;" horiz-adv-x="1011" 
d="M922 0h-366v-416h-113v416h-352v103h352v874h-352v105h352v374h113v-374h366v-105h-366v-874h366v-103z" />
    <glyph glyph-name="bullet" unicode="&#x2022;" horiz-adv-x="662" 
d="M146 783q0 39 13 72t37 57t58.5 37.5t76.5 13.5q43 0 77.5 -13.5t58.5 -37.5t37 -57t13 -72v-65q0 -39 -12.5 -71.5t-36.5 -56.5t-58.5 -37t-77.5 -13t-77.5 13t-58.5 37t-37 56.5t-13 71.5v65z" />
    <glyph glyph-name="uni2025" unicode="&#x2025;" horiz-adv-x="826" 
d="M160 73q0 36 22.5 60.5t62.5 24.5t63 -24.5t23 -60.5q0 -35 -23 -58t-63 -23t-62.5 23t-22.5 58zM508 73q0 36 22.5 60.5t62.5 24.5t63 -24.5t23 -60.5q0 -35 -23 -58t-63 -23t-62.5 23t-22.5 58z" />
    <glyph glyph-name="ellipsis" unicode="&#x2026;" horiz-adv-x="1152" 
d="M160 73q0 36 22.5 60.5t62.5 24.5t63 -24.5t23 -60.5q0 -35 -23 -58t-63 -23t-62.5 23t-22.5 58zM508 73q0 36 22.5 60.5t62.5 24.5t63 -24.5t23 -60.5q0 -35 -23 -58t-63 -23t-62.5 23t-22.5 58zM841 73q0 36 22.5 60.5t62.5 24.5t63 -24.5t23 -60.5q0 -35 -23 -58
t-63 -23t-62.5 23t-22.5 58z" />
    <glyph glyph-name="perthousand" unicode="&#x2030;" horiz-adv-x="1713" 
d="M728 357q0 61 17 116t48 95.5t75.5 64.5t100.5 24q69 0 119 -38t79 -101q29 63 80 101t120 38q56 0 100.5 -24t76 -64.5t48.5 -95.5t17 -116v-78q0 -62 -17 -116.5t-48 -95t-75.5 -64.5t-99.5 -24q-69 0 -121 38t-81 101q-29 -63 -78.5 -101t-118.5 -38q-56 0 -100.5 24
t-76 64.5t-48.5 95t-17 116.5v78zM94 1176q0 62 17 116.5t48 95.5t75.5 65t99.5 24q56 0 101 -24t76.5 -65t48.5 -95.5t17 -116.5v-77q0 -61 -17 -115.5t-48 -95t-76 -64.5t-100 -24q-56 0 -100.5 24t-76 64.5t-48.5 95t-17 115.5v77zM815 279q0 -40 9.5 -78t28.5 -68
t48.5 -48t68.5 -18t68 18t47.5 47.5t28 67.5t9.5 79v78q0 42 -9.5 80.5t-28.5 68t-48 46.5t-68 17t-67.5 -17t-48 -46.5t-29 -68t-9.5 -80.5v-78zM181 1099q0 -40 9.5 -78t28.5 -67.5t48.5 -47.5t68.5 -18t68 18t47.5 47.5t28 67.5t9.5 78v77q0 40 -9.5 78.5t-28.5 68.5
t-48.5 48t-68.5 18q-38 0 -67 -18t-48 -48t-28.5 -68.5t-9.5 -78.5v-77zM1211 279q0 -40 9.5 -78t28.5 -68t48 -48t68 -18t67.5 18t47 47.5t28 67.5t9.5 79v78q0 42 -9.5 80.5t-28 68t-47.5 46.5t-68 17t-67.5 -17t-47.5 -46.5t-28.5 -68t-9.5 -80.5v-78zM376 120l-66 49
l597 1138l67 -49z" />
    <glyph glyph-name="guilsinglleft" unicode="&#x2039;" horiz-adv-x="552" 
d="M223 555l229 -389h-93l-248 380v19l248 379h93z" />
    <glyph glyph-name="guilsinglright" unicode="&#x203a;" horiz-adv-x="552" 
d="M195 944l248 -384v-19l-248 -380h-95l229 389l-229 394h95z" />
    <glyph glyph-name="fraction" unicode="&#x2044;" horiz-adv-x="813" 
d="M138 120l-66 49l597 1138l67 -49z" />
    <glyph glyph-name="uni2074" unicode="&#x2074;" horiz-adv-x="664" 
d="M500 944h104v-90h-104v-186h-96v186h-332l-3 68l330 535h101v-513zM171 944h233v376l-24 -45z" />
    <glyph glyph-name="nsuperior" unicode="&#x207f;" horiz-adv-x="764" 
d="M202 1453l19 -136q32 69 82.5 109t117.5 40q53 0 95.5 -17.5t72.5 -55t46 -95.5t16 -139v-508h-103v494q0 62 -11 104.5t-31 69t-48.5 38t-63.5 11.5q-66 0 -107.5 -44t-60.5 -116v-557h-103v802h79z" />
    <glyph glyph-name="lira" unicode="&#x20a4;" horiz-adv-x="1026" 
d="M661 476h-290l3 -107q1 -83 -13 -150.5t-43 -112.5h626v-106h-843v106h79q22 7 37.5 34.5t25 65t13.5 81t3 82.5l-3 107h-156v91h153l-4 168h-149v92h146l-5 212q0 103 25.5 184.5t71.5 137.5t110 85.5t140 29.5q79 0 141 -28.5t105 -79.5t65 -122.5t22 -157.5h-114
q0 75 -18.5 128.5t-50 87t-73 49.5t-86.5 16q-49 0 -90 -21.5t-70.5 -63.5t-46 -103.5t-16.5 -141.5l5 -212h300v-92h-297l4 -168h293v-91z" />
    <glyph glyph-name="peseta" unicode="&#x20a7;" horiz-adv-x="1448" 
d="M284 585v-585h-111v1456h294q102 0 176 -33t122 -91t71 -137.5t23 -173.5t-23 -174t-71 -138t-122 -91t-176 -33h-183zM284 689h183q81 0 135.5 28t86.5 74t45.5 105.5t13.5 122.5q0 64 -13.5 124.5t-45.5 106.5t-86.5 74t-135.5 28h-183v-663zM1103 1358v-276h185v-100
h-185v-719q0 -56 9.5 -90.5t25.5 -53.5t36.5 -25.5t43.5 -6.5q22 0 43 3.5t37 6.5l3 -100q-18 -8 -47.5 -12.5t-61.5 -4.5q-43 0 -79.5 14t-63.5 47t-42 87.5t-15 135.5v718h-167v100h167v276h111z" />
    <glyph glyph-name="Euro" unicode="&#x20ac;" horiz-adv-x="996" 
d="M711 562h-346v-15q0 -115 24 -201.5t68 -144.5t106.5 -87t139.5 -29q49 0 95.5 8.5t88.5 25.5l10 -109q-45 -14 -94.5 -22t-100.5 -8q-100 0 -183 35.5t-142.5 107t-92.5 177.5t-33 247v15h-160v90h160v163h-160v92h160q0 141 33 247.5t92 178t142 107.5t182 36
q52 0 99 -8.5t98 -22.5l-10 -111q-42 16 -89 25.5t-97 9.5q-77 0 -139.5 -28.5t-106 -85.5t-67 -143.5t-23.5 -202.5v-2h346v-92h-346v-163h346v-90z" />
    <glyph glyph-name="uni2105" unicode="&#x2105;" horiz-adv-x="1306" 
d="M576 1035q0 -48 -15.5 -90.5t-44 -75t-69.5 -51t-92 -18.5q-53 0 -96 24t-74 64.5t-48 95t-17 115.5v77q0 62 17 116.5t47.5 95.5t73.5 65t95 24q51 0 92.5 -18.5t70.5 -51t44.5 -75.5t15.5 -91h-87q0 28 -8.5 55t-25 47.5t-42.5 33t-60 12.5q-35 0 -61.5 -18t-45.5 -48
t-28.5 -68.5t-9.5 -78.5v-77q0 -40 9.5 -78t28.5 -67.5t46.5 -47.5t62.5 -18q34 0 59.5 13t42 34t24.5 47.5t8 52.5h87zM723 357q0 61 17 116t48 95.5t75.5 64.5t100.5 24t100.5 -24t76 -64.5t48.5 -95.5t17 -116v-78q0 -62 -17 -116.5t-48 -95t-75.5 -64.5t-99.5 -24
q-56 0 -101 24t-76.5 64.5t-48.5 95t-17 116.5v78zM811 279q0 -40 9.5 -78t28.5 -68t48 -48t69 -18q39 0 67.5 18t47 47.5t28 67.5t9.5 79v78q0 42 -9.5 80.5t-28.5 68t-48 46.5t-68 17q-38 0 -67 -17t-48 -46.5t-28.5 -68t-9.5 -80.5v-78zM384 120l-66 49l597 1138l67 -49z
" />
    <glyph glyph-name="uni2113" unicode="&#x2113;" horiz-adv-x="844" 
d="M613 -21q-80 0 -139 32t-98 91.5t-58.5 143t-19.5 185.5v38q-46 -18 -95.5 -28t-103.5 -10v116q57 0 106 12t93 34v574q0 89 15 159.5t43.5 119t69.5 74.5t92 26q44 0 81 -22t64 -62.5t42 -99.5t15 -132v-37q0 -92 -20.5 -186.5t-59.5 -182t-97 -163.5t-133 -130v-100
q0 -72 10 -135t33.5 -109.5t62.5 -73.5t97 -27v-107zM410 674q51 50 88.5 113.5t62 132t36.5 138.5t12 133v39q0 108 -25.5 158.5t-65.5 50.5q-54 0 -81 -68.5t-27 -203.5v-493z" />
    <glyph glyph-name="uni2116" unicode="&#x2116;" horiz-adv-x="1797" 
d="M1651 432h-505v99h505v-99zM1119 1132q0 75 19 137.5t54.5 107.5t86.5 70t114 25q64 0 115 -25t86.5 -70t54.5 -107.5t19 -137.5v-108q0 -75 -19 -137t-54 -107t-86 -69.5t-114 -24.5q-64 0 -115 24.5t-87 69.5t-55 107t-19 137v108zM1218 1024q0 -52 10.5 -96t32 -76.5
t55 -50.5t79.5 -18q44 0 76.5 18t54.5 50.5t32.5 76.5t10.5 96v108q0 51 -11 95t-32.5 76.5t-54.5 51t-78 18.5q-44 0 -77 -18.5t-54.5 -51t-32.5 -76.5t-11 -95v-108zM962 0h-120l-565 1241v-1241h-111v1456h120l567 -1242v1242h109v-1456z" />
    <glyph glyph-name="trademark" unicode="&#x2122;" horiz-adv-x="1104" 
d="M865 1334l-126 -415h-44l-126 421v-421h-64v537h80l132 -428l132 428h79v-537h-63v415zM437 1386h-132v-467h-64v467h-132v70h328v-70z" />
    <glyph glyph-name="estimated" unicode="&#x212e;" horiz-adv-x="1298" 
d="M1043 94q-85 -53 -178 -83.5t-192 -30.5q-72 0 -139.5 20t-125.5 57t-106 88t-82 113.5t-52.5 134t-18.5 148.5t20.5 148.5t57 134t86 113.5t108 88t122.5 57t130 20q103 0 193 -41t157 -113t106 -171t39 -216v-47h-768v-328q55 -51 125 -80.5t148 -29.5q94 0 186.5 29.5
t181.5 92.5zM673 1008q-75 0 -145.5 -32.5t-127.5 -89.5v-277h540v286q-53 52 -121.5 82.5t-145.5 30.5z" />
    <glyph glyph-name="oneeighth" unicode="&#x215b;" horiz-adv-x="1358" 
d="M391 646h-98v660l-192 -69v92l277 107h13v-790zM336 120l-66 49l597 1138l67 -49zM1214 582q0 -61 -30.5 -107t-81.5 -71q59 -25 94.5 -74.5t35.5 -117.5q0 -56 -19 -97.5t-51.5 -69.5t-77 -42t-95.5 -14q-53 0 -98 14t-78 42t-51.5 69.5t-18.5 97.5q0 69 35 118.5
t95 74.5q-52 25 -82 70.5t-30 106.5q0 53 17 93.5t47 68.5t71.5 42t90.5 14t90.5 -14t72 -42t47.5 -68.5t17 -93.5zM1135 217q0 66 -42 103.5t-106 37.5q-65 0 -105.5 -37.5t-40.5 -103.5t41 -103t107 -37q64 0 105 37t41 103zM1118 578q0 29 -10 53.5t-27 42t-41.5 27
t-52.5 9.5q-57 0 -92.5 -35t-35.5 -97q0 -60 35.5 -95t94.5 -35q57 0 93 35t36 95z" />
    <glyph glyph-name="threeeighths" unicode="&#x215c;" horiz-adv-x="1514" 
d="M289 1102h66q37 0 65 10.5t46.5 28.5t28 42.5t9.5 52.5t-8 52.5t-24.5 42.5t-42 28.5t-60.5 10.5q-29 0 -54.5 -9t-44 -26t-29 -41t-10.5 -54h-97q0 50 18.5 90.5t50 69.5t74 44.5t91.5 15.5q52 0 95 -14.5t73.5 -43t47.5 -70t17 -94.5q0 -57 -31.5 -104t-90.5 -71
q68 -21 101.5 -69t33.5 -119q0 -54 -18.5 -96t-51.5 -71t-78 -44t-97 -15q-46 0 -90 13.5t-78.5 42t-56 71.5t-21.5 103h98q0 -31 11 -57t31 -45t48 -29.5t61 -10.5q70 0 108 38t38 104q0 76 -44.5 108.5t-118.5 32.5h-66v82zM492 120l-66 49l597 1138l67 -49zM1354 582
q0 -61 -30.5 -107t-81.5 -71q59 -25 94.5 -74.5t35.5 -117.5q0 -56 -19 -97.5t-51.5 -69.5t-77 -42t-95.5 -14q-53 0 -98 14t-78 42t-51.5 69.5t-18.5 97.5q0 69 35 118.5t95 74.5q-52 25 -82 70.5t-30 106.5q0 53 17 93.5t47 68.5t71.5 42t90.5 14t90.5 -14t72 -42
t47.5 -68.5t17 -93.5zM1275 217q0 66 -42 103.5t-106 37.5q-65 0 -105.5 -37.5t-40.5 -103.5t41 -103t107 -37q64 0 105 37t41 103zM1258 578q0 29 -10 53.5t-27 42t-41.5 27t-52.5 9.5q-57 0 -92.5 -35t-35.5 -97q0 -60 35.5 -95t94.5 -35q57 0 93 35t36 95z" />
    <glyph glyph-name="fiveeighths" unicode="&#x215d;" horiz-adv-x="1497" 
d="M134 1058l41 392h391v-92h-311l-24 -226q17 11 51.5 24t79.5 13q52 0 94 -17.5t71.5 -50t45.5 -79.5t16 -107q0 -55 -14 -103t-43 -84t-74 -57t-106 -21q-44 0 -85 14t-73 42t-53 70t-24 97h95q6 -68 44.5 -101.5t95.5 -33.5q74 0 107 48t33 130q0 76 -39 123t-111 47
q-26 0 -45.5 -4t-34.5 -11t-27 -16.5l-24 -19.5zM465 120l-66 49l597 1138l67 -49zM1335 582q0 -61 -30.5 -107t-81.5 -71q59 -25 94.5 -74.5t35.5 -117.5q0 -56 -19 -97.5t-51.5 -69.5t-77 -42t-95.5 -14q-53 0 -98 14t-78 42t-51.5 69.5t-18.5 97.5q0 69 35 118.5t95 74.5
q-52 25 -82 70.5t-30 106.5q0 53 17 93.5t47 68.5t71.5 42t90.5 14t90.5 -14t72 -42t47.5 -68.5t17 -93.5zM1256 217q0 66 -42 103.5t-106 37.5q-65 0 -105.5 -37.5t-40.5 -103.5t41 -103t107 -37q64 0 105 37t41 103zM1239 578q0 29 -10 53.5t-27 42t-41.5 27t-52.5 9.5
q-57 0 -92.5 -35t-35.5 -97q0 -60 35.5 -95t94.5 -35q57 0 93 35t36 95z" />
    <glyph glyph-name="seveneighths" unicode="&#x215e;" horiz-adv-x="1419" 
d="M612 1389l-305 -727h-102l305 698h-403v91h505v-62zM380 120l-66 49l597 1138l67 -49zM1271 582q0 -61 -30.5 -107t-81.5 -71q59 -25 94.5 -74.5t35.5 -117.5q0 -56 -19 -97.5t-51.5 -69.5t-77 -42t-95.5 -14q-53 0 -98 14t-78 42t-51.5 69.5t-18.5 97.5q0 69 35 118.5
t95 74.5q-52 25 -82 70.5t-30 106.5q0 53 17 93.5t47 68.5t71.5 42t90.5 14t90.5 -14t72 -42t47.5 -68.5t17 -93.5zM1192 217q0 66 -42 103.5t-106 37.5q-65 0 -105.5 -37.5t-40.5 -103.5t41 -103t107 -37q64 0 105 37t41 103zM1175 578q0 29 -10 53.5t-27 42t-41.5 27
t-52.5 9.5q-57 0 -92.5 -35t-35.5 -97q0 -60 35.5 -95t94.5 -35q57 0 93 35t36 95z" />
    <glyph glyph-name="partialdiff" unicode="&#x2202;" horiz-adv-x="1021" 
d="M503 1022q49 0 93.5 -14t83.5 -39t71.5 -60t58.5 -77q-8 140 -36.5 248.5t-73.5 182.5t-105.5 112.5t-130.5 38.5q-74 0 -130 -23t-112 -67l-19 97q19 15 44 32.5t58 32.5t74.5 25.5t94.5 10.5q105 0 188.5 -52.5t141 -156.5t88 -259t30.5 -359v-65q0 -140 -29 -259
t-82.5 -206t-130 -136.5t-170.5 -49.5q-93 0 -167 38.5t-126 107t-80 163t-28 206.5v32q0 108 27.5 199t78.5 157t124 103t164 37zM512 918q-72 0 -127 -32t-91.5 -86t-55 -125t-18.5 -149v-32q0 -83 18.5 -157.5t55 -131t90.5 -90t126 -33.5q75 0 131 42.5t94 115t57 168.5
t19 203v58q-7 31 -26.5 74t-55.5 82t-89.5 66t-127.5 27z" />
    <glyph glyph-name="product" unicode="&#x220f;" horiz-adv-x="1183" 
d="M1017 -241h-112v1593h-628v-1593h-112v1697h852v-1697z" />
    <glyph glyph-name="summation" unicode="&#x2211;" horiz-adv-x="1035" 
d="M700 578l-496 -743h809v-104h-939v94l507 766l-507 770v95h881v-104h-751l496 -749v-25z" />
    <glyph glyph-name="minus" unicode="&#x2212;" horiz-adv-x="1021" 
d="M860 685h-701v104h701v-104z" />
    <glyph glyph-name="radical" unicode="&#x221a;" horiz-adv-x="995" 
d="M442 242l11 -59l11 59l348 1214h115l-428 -1456h-87l-207 639h-131v105h213z" />
    <glyph glyph-name="infinity" unicode="&#x221e;" horiz-adv-x="1848" 
d="M1720 522q0 -109 -28 -207.5t-80 -173t-125.5 -118.5t-163.5 -44q-57 0 -104.5 18.5t-87.5 49.5t-73 72t-59 86.5t-46 92t-35 88.5q-15 -42 -35 -88.5t-46 -92t-58.5 -86.5t-72.5 -72t-87.5 -49.5t-103.5 -18.5q-91 0 -164.5 44t-125.5 118.5t-80 173t-28 207.5v37
q0 109 28 207.5t79.5 173t125 118.5t163.5 44q56 0 104 -18.5t88 -49.5t73 -72t59 -86t46 -91.5t35 -88.5q15 42 35 88.5t46.5 91.5t59.5 86t73 72t88 49.5t105 18.5q90 0 162.5 -44t124.5 -118.5t80 -173t28 -207.5v-37zM227 522q0 -84 18.5 -163.5t54.5 -141t90 -98.5
t125 -37q59 0 106.5 29.5t84.5 74.5t64.5 99t46 102.5t28 85l12.5 47.5v42q-2 10 -12 46t-28.5 84.5t-46 102.5t-65 99t-85.5 74.5t-107 29.5q-70 0 -123.5 -37.5t-89.5 -99t-54.5 -140.5t-18.5 -162v-37zM1609 559q0 83 -18.5 162t-54.5 140.5t-89 99t-122 37.5
q-59 0 -107.5 -29.5t-86 -74.5t-65 -99t-46 -102.5t-28.5 -84.5t-12 -46v-42q2 -11 12 -47.5t28.5 -85t46 -102.5t65 -99t85 -74.5t106.5 -29.5q70 0 123.5 37t89.5 98.5t54.5 141t18.5 163.5v37z" />
    <glyph glyph-name="integral" unicode="&#x222b;" horiz-adv-x="477" 
d="M279 -98q0 -170 -68 -254.5t-189 -84.5q-26 0 -49 5t-47 15l13 100q13 -5 35 -10.5t39 -5.5q75 0 115.5 59t40.5 176v1314q0 166 70 253.5t194 87.5q29 0 58 -5t58 -14l-15 -98q-18 6 -37.5 9.5t-48.5 3.5q-81 0 -125 -62.5t-44 -174.5v-1314v0z" />
    <glyph glyph-name="approxequal" unicode="&#x2248;" horiz-adv-x="1009" 
d="M108 869q40 60 94 94t109 34q34 1 59 -4.5t46.5 -15.5t43 -23.5l48.5 -29.5l45 -28t40.5 -23t44 -15.5t55.5 -5.5q55 0 105.5 37.5t90.5 101.5l2 -129q-40 -60 -91.5 -93.5t-106.5 -33.5q-31 0 -54.5 5t-43.5 14.5t-40 22l-45 27.5q-27 16 -48.5 30t-43.5 24.5t-47.5 16
t-58.5 4.5q-55 0 -108 -37t-93 -102zM105 465q40 60 93.5 94t108.5 34q33 1 58 -4.5t47 -15.5t43.5 -23.5l48.5 -29.5l45 -28t40.5 -23t44 -15.5t54.5 -5.5q55 0 106 37.5t91 101.5l2 -128q-40 -60 -91.5 -93.5t-106.5 -33.5q-31 0 -54.5 5t-43.5 14.5t-40 22l-45 27.5
q-27 16 -48.5 30t-43.5 24.5t-47.5 16t-58.5 4.5q-55 0 -108 -37t-93 -102z" />
    <glyph glyph-name="notequal" unicode="&#x2260;" horiz-adv-x="990" 
d="M846 417h-443l-127 -263l-63 42l107 221h-175v108h228l147 303h-375v108h427l133 273l63 -42l-113 -231h191v-108h-243l-147 -303h390v-108z" />
    <glyph glyph-name="lessequal" unicode="&#x2264;" horiz-adv-x="919" 
d="M201 683.516l576 -268.207v-116.104l-693 341.109v89.1025l693 340.21v-116.104zM778 1h-701v104h701v-104z" />
    <glyph glyph-name="greaterequal" unicode="&#x2265;" horiz-adv-x="934" 
d="M715 697.116l-589 270.007v114.304l711 -340.21v-89.1016l-711 -341.109v113.402zM823 1h-701v104h701v-104z" />
    <glyph glyph-name="lozenge" unicode="&#x25ca;" horiz-adv-x="908" 
d="M408 1456h88l344 -729l-342 -727h-88l-346 727zM451 1317l-268 -590l271 -590l268 590z" />
    <glyph glyph-name="colon.lnum" unicode="&#xee01;" horiz-adv-x="487" 
d="M166 248q0 36 22.5 60.5t62.5 24.5t63 -24.5t23 -60.5q0 -35 -23 -58t-63 -23t-62.5 23t-22.5 58zM168 1169q0 36 22.5 60.5t62.5 24.5t63 -24.5t23 -60.5q0 -35 -23 -58t-63 -23t-62.5 23t-22.5 58z" />
    <glyph glyph-name="quotedblx" unicode="&#xee02;" horiz-adv-x="545" 
d="M206 668h-89v414h89v-414zM441 668h-89v414h89v-414z" />
    <glyph glyph-name="commaaccent" unicode="&#xf6c3;" horiz-adv-x="454" 
d="M284 101q0 -79 -25.5 -154.5t-76.5 -127.5l-65 52q31 54 46 106.5t15 120.5v80h106v-77z" />
    <glyph glyph-name="uniFEFF" unicode="&#xfeff;" horiz-adv-x="40" 
 />
    <glyph glyph-name="uniFFFC" unicode="&#xfffc;" horiz-adv-x="2094" 
d="M822 468q0 -49 -16.5 -89t-47 -69t-72.5 -45t-93 -16q-52 0 -94.5 16t-73 45t-47.5 69t-17 89v112q0 48 17 88.5t47 69.5t72.5 45t93.5 16t93.5 -16t73 -45t47.5 -69.5t17 -88.5v-112zM889 252v549h188q98 0 155 -36.5t57 -113.5q0 -38 -21 -69t-63 -47q50 -13 76 -48
t26 -80q0 -77 -52.5 -116t-144.5 -39h-221zM730 580q0 69 -37 108t-102 39q-64 0 -101 -39t-37 -108v-112q0 -69 37 -108t103 -39q64 0 100.5 39t36.5 108v112zM1684 803h92v-378q0 -40 -14 -71.5t-39 -53.5t-59.5 -34t-74.5 -12q-88 0 -142.5 40.5t-54.5 123.5h93
q0 -47 28 -69t76 -22q41 0 68 27t27 71v378zM88 -398v315h113v-202h196v-113h-309zM1717 -398v113h199v202h111v-315h-310zM88 1169v285h309v-116h-196v-169h-113zM1717 1338v116h310v-285h-111v169h-199zM984 496v-169h126q52 0 77.5 22t25.5 61q0 38 -24.5 61t-73.5 25h-5
h-126zM1318 1338v116h278v-116h-278zM919 1338v116h277v-116h-277zM520 1338v116h276v-116h-276zM1318 -398v113h278v-113h-278zM919 -398v113h277v-113h-277zM520 -398v113h276v-113h-276zM984 566h93q118 0 118 80q0 41 -29 56t-89 15h-93v-151zM201 416h-113v252h113
v-252zM201 794h-113v250h113v-250zM201 41h-113v249h113v-249zM2027 416h-111v252h111v-252zM2027 794h-111v250h111v-250zM2027 41h-111v249h111v-249z" />
    <glyph glyph-name="uniFFFD" unicode="&#xfffd;" horiz-adv-x="2101" 
d="M1048 1618l959 -975l-959 -975l-956 975zM1131 402q0 25 2.5 45t10 36.5t20 30.5t33.5 28q34 18 64 44t52.5 57.5t36 68.5t13.5 78q0 64 -21.5 115.5t-62 88t-99.5 56t-133 19.5q-64 0 -119 -15t-96.5 -47.5t-65.5 -83t-25 -120.5h203q1 27 9.5 46.5t23 32t32.5 18.5
t38 6q57 0 85 -32t28 -84t-26.5 -90.5t-66.5 -64.5q-35 -25 -61 -46.5t-43 -47t-25.5 -58.5t-8.5 -81h202zM1131 311h-202v-170h202v170zM1056 -551h4v-4h-4v4zM1054 2163h4v-4h-4v4z" />
    <glyph glyph-name="zero.sup" horiz-adv-x="663" 
d="M569 326q0 -168 -63 -252.5t-174 -84.5q-110 0 -175 85t-65 252v136q0 168 64 253t174 85q111 0 175 -85t64 -253v-136zM472 472q0 115 -35.5 176.5t-106.5 61.5q-69 0 -105.5 -61.5t-36.5 -176.5v-156q0 -115 37 -177t107 -62t105 62t35 177v156z" />
    <glyph glyph-name="largerighthook" horiz-adv-x="686" 
d="M-60 835h190q111 0 201 -34.5t154 -105t99 -178t35 -253.5q0 -106 -23.5 -203.5t-71.5 -172.5t-120.5 -119.5t-170.5 -44.5l-1 100q73 0 125 35.5t85.5 96t49.5 140t16 168.5q0 119 -26.5 206t-75 144t-118.5 85t-158 28h-190v108z" />
    <glyph glyph-name="circumflexgravecomb" horiz-adv-x="804" 
d="M674 1242h-128l-154 172l-155 -172h-126l229 243h103zM165 1394h-91l-155 232h123z" />
    <glyph glyph-name="circumflexacutecomb" horiz-adv-x="787" 
d="M330 1495h104l229 -243h-127l-154 171l-154 -171h-128zM732 1635h125l-156 -232h-92z" />
    <glyph glyph-name="brevegravecomb" horiz-adv-x="819" 
d="M649 1456q0 -54 -18.5 -99.5t-53.5 -78.5t-85 -51t-113 -18t-113 18t-85 51t-54 78.5t-19 99.5h94q0 -33 9.5 -61.5t30.5 -50.5t54.5 -34.5t82.5 -12.5q48 0 81.5 13t54.5 34.5t31 50.5t10 61h93zM444 1444h-104l-165 216h140z" />
    <glyph glyph-name="commaaccentrotate" horiz-adv-x="430" 
d="M148 1332q0 37 8 73t21 67.5t29 58.5t32 47l69 -50q-26 -54 -37.5 -99t-11.5 -99v-126h-110v128z" />
    <glyph glyph-name="A.smcp" horiz-adv-x="978" 
d="M721 310h-465l-103 -310h-114l398 1165h105l395 -1165h-113zM291 413h396l-197 596z" />
    <glyph glyph-name="B.smcp" horiz-adv-x="954" 
d="M147 0v1165h316q82 0 147.5 -18.5t111.5 -57t71 -97t25 -137.5q0 -88 -42.5 -154t-122.5 -96q47 -11 84 -37.5t63 -63.5t39.5 -82t13.5 -94q0 -81 -24.5 -142t-69.5 -102.5t-108.5 -62.5t-141.5 -21h-362zM257 550v-447h252q111 0 172 59t61 165q0 47 -13.5 88t-41 71
t-70 47t-100.5 17h-260zM257 648h219q110 0 170.5 51t60.5 153q0 106 -62 157t-182 51h-206v-412z" />
    <glyph glyph-name="C.smcp" horiz-adv-x="1001" 
d="M905 367q-8 -89 -37 -160t-78.5 -120.5t-119 -76t-158.5 -26.5q-92 0 -166 38t-127 107t-81.5 167t-28.5 218v135q0 120 28.5 218t82 168t129 108t168.5 38q87 0 155.5 -26.5t117.5 -77t78 -122t37 -161.5h-112q-14 135 -79.5 208.5t-196.5 73.5q-71 0 -126 -30
t-93 -85.5t-58 -134t-20 -176.5v-136q0 -95 19 -174t56 -135t91.5 -87t125.5 -31q134 0 200 69.5t81 210.5h112z" />
    <glyph glyph-name="D.smcp" horiz-adv-x="1008" 
d="M147 0v1165h298q100 0 183.5 -38.5t143.5 -108.5t93.5 -168.5t33.5 -219.5v-97q0 -121 -33.5 -219.5t-94 -168t-145.5 -107.5t-188 -38h-291zM257 1060v-957h181q82 0 147.5 31t110.5 87.5t69 135.5t24 176v99q0 99 -24 178t-68.5 134.5t-108.5 85.5t-143 30h-188z" />
    <glyph glyph-name="E.smcp" horiz-adv-x="880" 
d="M735 552h-478v-449h552v-103h-662v1165h658v-105h-548v-404h478v-104z" />
    <glyph glyph-name="F.smcp" horiz-adv-x="867" 
d="M733 531h-476v-531h-110v1165h656v-105h-546v-424h476v-105z" />
    <glyph glyph-name="G.smcp" horiz-adv-x="1049" 
d="M917 139q-15 -22 -43 -49t-73 -50.5t-108 -39.5t-146 -16q-95 0 -174 37.5t-136 107t-88.5 169t-31.5 223.5v129q0 123 29 221t83 167t130.5 106t171.5 37q90 0 158.5 -26.5t115.5 -74t75 -112t37 -139.5h-111q-8 50 -26 95t-51 78.5t-81.5 53.5t-115.5 20
q-73 0 -129.5 -30t-95 -85.5t-58.5 -133.5t-20 -175v-131q0 -100 22.5 -180t64 -136.5t100.5 -87t132 -30.5q57 0 100 9.5t74.5 23.5t52.5 30.5t32 30.5v282h-269v100h379v-424z" />
    <glyph glyph-name="H.smcp" horiz-adv-x="1086" 
d="M938 0h-110v523h-571v-523h-110v1165h110v-538h571v538h110v-1165z" />
    <glyph glyph-name="I.smcp" horiz-adv-x="440" 
d="M276 0h-111v1165h111v-1165z" />
    <glyph glyph-name="J.smcp" horiz-adv-x="856" 
d="M602 1165h113v-829q0 -82 -23.5 -147.5t-65.5 -111t-100 -69.5t-126 -24q-72 0 -133.5 20.5t-105.5 63t-69 107t-25 151.5h111q0 -121 59 -180t163 -59q44 0 81 17t64 49.5t42 78.5t15 104v829z" />
    <glyph glyph-name="K.smcp" horiz-adv-x="973" 
d="M398 560l-141 -155v-405h-110v1165h110v-607l133 162l373 445h138l-426 -519l460 -646h-136z" />
    <glyph glyph-name="L.smcp" horiz-adv-x="824" 
d="M257 103h510v-103h-620v1165h110v-1062z" />
    <glyph glyph-name="M.smcp" horiz-adv-x="1323" 
d="M292 1165l368 -996l369 996h146v-1165h-110v473l11 532l-374 -1005h-83l-373 998l11 -525v-473h-110v1165h145z" />
    <glyph glyph-name="N.smcp" horiz-adv-x="1089" 
d="M942 0h-111l-574 973v-973h-110v1165h110l574 -972v972h111v-1165z" />
    <glyph glyph-name="O.smcp" horiz-adv-x="1045" 
d="M937 525q0 -124 -29.5 -224t-83.5 -170.5t-130.5 -108.5t-170.5 -38q-93 0 -169.5 38t-131.5 108.5t-85 170.5t-30 224v113q0 124 30 224.5t84 171t130.5 109t169.5 38.5q94 0 171 -38.5t131.5 -109t84 -171t29.5 -224.5v-113zM828 640q0 100 -20.5 180.5t-60 137
t-96.5 86.5t-130 30q-71 0 -127.5 -30t-96 -86.5t-60.5 -137t-21 -180.5v-115q0 -101 21.5 -181.5t61 -137t96.5 -87t128 -30.5q73 0 129.5 30.5t95.5 87t59.5 137t20.5 181.5v115z" />
    <glyph glyph-name="P.smcp" horiz-adv-x="958" 
d="M257 462v-462h-110v1165h367q88 0 155.5 -26t113.5 -73t69.5 -112.5t23.5 -144.5q0 -81 -23.5 -145.5t-69.5 -109t-113.5 -68.5t-155.5 -24h-257zM257 566h257q66 0 113.5 18.5t78 51t44.5 77t14 95.5t-14 96.5t-44.5 80t-78 55t-113.5 20.5h-257v-494z" />
    <glyph glyph-name="Q.smcp" horiz-adv-x="1045" 
d="M935 525q0 -168 -52.5 -290t-146.5 -187l189 -178l-75 -75l-217 205q-26 -8 -55 -12t-59 -4q-93 0 -169.5 38t-131 108.5t-85 170.5t-30.5 224v113q0 124 30 224.5t84.5 171t131 109t169.5 38.5q94 0 171 -38.5t132 -109t84.5 -171t29.5 -224.5v-113zM825 640
q0 100 -20.5 180.5t-60 137t-96.5 86.5t-130 30q-71 0 -127.5 -30t-95.5 -86.5t-60 -137t-21 -180.5v-115q0 -101 21 -181.5t60.5 -137t96 -87t127.5 -30.5q73 0 130 30.5t96 87t59.5 137t20.5 181.5v115z" />
    <glyph glyph-name="R.smcp" horiz-adv-x="978" 
d="M541 467h-285v-467h-111v1165h349q84 0 151 -23.5t114 -68.5t72 -110.5t25 -149.5q0 -59 -15 -110t-43 -91.5t-66.5 -70t-86.5 -46.5l256 -485v-10h-119zM256 571h254q58 0 102.5 19.5t73.5 52t44 76t15 91.5q0 56 -16 102t-48 79t-79 51t-108 18h-238v-489z" />
    <glyph glyph-name="S.smcp" horiz-adv-x="921" 
d="M732 289q0 45 -12.5 80t-43.5 64.5t-82 53.5t-127 47q-81 24 -146.5 53.5t-111.5 69.5t-70.5 93.5t-24.5 124.5q0 69 26.5 125t74 96.5t113.5 62.5t145 22q84 0 151.5 -27t115 -74.5t73 -111.5t25.5 -138h-111q0 53 -17 98.5t-49 78.5t-80 51.5t-109 18.5t-107.5 -16
t-77.5 -43t-46.5 -63.5t-15.5 -77.5q0 -40 14 -73t46 -61t84.5 -53t130.5 -48q80 -24 143.5 -54.5t108 -72.5t68.5 -97t24 -127t-27 -129t-76 -96.5t-116 -60.5t-147 -21q-72 0 -143 20t-127.5 63t-91.5 110t-35 162h111q0 -71 25 -119t65.5 -78t91.5 -43t104 -13
q59 0 106 14.5t80 41.5t50.5 64.5t17.5 82.5z" />
    <glyph glyph-name="T.smcp" horiz-adv-x="929" 
d="M872 1060h-353v-1060h-111v1060h-352v105h816v-105z" />
    <glyph glyph-name="U.smcp" horiz-adv-x="1012" 
d="M882 1165v-785q0 -99 -29.5 -173.5t-80.5 -124t-119.5 -74t-146.5 -24.5q-80 0 -149 24.5t-119 74t-78.5 124t-28.5 173.5v785h109v-785q0 -73 20 -128t55 -91.5t84 -55t107 -18.5t107 18.5t84 55t54.5 91.5t19.5 128v785h111z" />
    <glyph glyph-name="V.smcp" horiz-adv-x="962" 
d="M460 216l21 -83l21 82l301 950h120l-388 -1165h-108l-388 1165h121z" />
    <glyph glyph-name="W.smcp" horiz-adv-x="1360" 
d="M359 288l23 -140l28 130l224 887h102l220 -889l27 -129l24 142l186 876h111l-263 -1165h-107l-234 934l-15 73l-14 -73l-240 -934h-106l-263 1165h111z" />
    <glyph glyph-name="X.smcp" horiz-adv-x="952" 
d="M475 684l278 481h133l-344 -575l358 -590h-133l-291 493l-290 -493h-131l355 590l-346 575h132z" />
    <glyph glyph-name="Y.smcp" horiz-adv-x="931" 
d="M464 541l302 624h127l-374 -741v-424h-112v430l-371 735h127z" />
    <glyph glyph-name="Z.smcp" horiz-adv-x="928" 
d="M218 103h628v-103h-764v85l606 975h-590v105h727v-82z" />
    <glyph glyph-name="zero.smcp" horiz-adv-x="902" 
d="M794 488q0 -124 -23.5 -218.5t-67.5 -158t-107.5 -95.5t-143.5 -32t-144 32t-108.5 95.5t-68.5 158t-24 218.5v189q0 124 24 218.5t68 158t107.5 95.5t143.5 32t144 -32t108.5 -95.5t68 -158t23.5 -218.5v-189zM683 694q0 181 -58.5 281.5t-174.5 100.5
q-115 0 -173.5 -100.5t-58.5 -281.5v-220q0 -90 15 -162t44.5 -122t73.5 -76.5t101 -26.5q58 0 101 26.5t72 76.5t43.5 122t14.5 162v220z" />
    <glyph glyph-name="one.smcp" horiz-adv-x="902" 
d="M557 0h-112v1016l-293 -110v109l388 153h17v-1168z" />
    <glyph glyph-name="two.smcp" horiz-adv-x="902" 
d="M818 0h-700v91l360 426q49 57 83 104t55 87.5t30 75.5t9 69q0 50 -13.5 91t-40 70.5t-65.5 45.5t-90 16q-61 0 -106 -19t-75 -52.5t-45 -80.5t-15 -103h-111q0 74 24 139.5t69 114.5t110.5 77.5t148.5 28.5q73 0 132.5 -22.5t101.5 -65t64.5 -102.5t22.5 -135
q0 -54 -18 -107t-48 -105t-70 -104l-83 -105l-292 -332h562v-103z" />
    <glyph glyph-name="three.smcp" horiz-adv-x="902" 
d="M322 644h96q60 0 105.5 16.5t75.5 45.5t45.5 68t15.5 84q0 47 -13 87t-39.5 69t-67.5 45.5t-97 16.5q-48 0 -89.5 -15t-72 -43t-48 -68t-17.5 -90h-110q0 71 25.5 130t70.5 101.5t106.5 66t133.5 23.5q74 0 135 -21.5t104 -63t66.5 -102t23.5 -138.5q0 -40 -11 -78.5
t-33.5 -72.5t-56 -62t-77.5 -46q104 -32 151 -106.5t47 -173.5q0 -80 -26 -142t-72.5 -104.5t-109.5 -64.5t-137 -22q-68 0 -132.5 20t-114 61.5t-79.5 104t-30 147.5h111q0 -51 18 -93t50 -72.5t77.5 -47.5t99.5 -17q110 0 172 59.5t62 168.5q0 60 -19 103t-53.5 70.5
t-82.5 40.5t-107 13h-96v102z" />
    <glyph glyph-name="four.smcp" horiz-adv-x="902" 
d="M688 389h164v-104h-164v-285h-111v285h-508l-1 75l502 805h118v-776zM195 389h382v615l-37 -73z" />
    <glyph glyph-name="five.smcp" horiz-adv-x="902" 
d="M166 592l58 573h563v-111h-470l-38 -366q14 10 34.5 21t46.5 20t56.5 14.5t65.5 5.5q75 0 136.5 -26t105.5 -75t68 -119t24 -158q0 -82 -20 -153t-62 -123t-106.5 -81.5t-153.5 -29.5q-61 0 -119 20.5t-104 61t-76 101.5t-36 142h107q6 -55 25.5 -96.5t49.5 -69.5t69 -42
t84 -14q59 0 102.5 19.5t72 56.5t42 90.5t13.5 120.5q0 60 -16 110t-47 85.5t-76.5 55.5t-103.5 20q-41 0 -71 -6t-54 -16.5t-43.5 -25t-38.5 -32.5z" />
    <glyph glyph-name="six.smcp" horiz-adv-x="902" 
d="M661 1174v-106h-13q-96 0 -171 -29.5t-127.5 -86t-81.5 -138.5t-35 -187q40 60 106.5 100.5t152.5 40.5q79 0 138.5 -31t99 -83.5t59 -122.5t19.5 -149q0 -84 -23 -156.5t-66 -126.5t-105 -84.5t-140 -30.5q-83 0 -148 33t-110.5 91.5t-69.5 137.5t-24 172v105
q0 150 31.5 270.5t96.5 205t163 130t232 45.5h16zM470 663q-41 0 -78.5 -13t-69 -36.5t-55 -55.5t-35.5 -69v-71q0 -78 19 -139.5t52 -104t77 -65t94 -22.5q52 0 93.5 23t70.5 62.5t44.5 93t15.5 113.5q0 59 -14 110.5t-42.5 90t-71.5 61t-100 22.5z" />
    <glyph glyph-name="seven.smcp" horiz-adv-x="902" 
d="M809 1094l-464 -1094h-116l460 1060h-613v105h733v-71z" />
    <glyph glyph-name="eight.smcp" horiz-adv-x="902" 
d="M777 862q0 -46 -12.5 -86.5t-35 -74t-54 -60t-70.5 -44.5q45 -18 81.5 -45.5t62.5 -64.5t40.5 -81t14.5 -95q0 -81 -27.5 -142t-75 -102t-112 -62t-137.5 -21q-75 0 -139.5 21t-112.5 62t-75 102t-27 142q0 102 53.5 176.5t144.5 110.5q-78 35 -124.5 104t-46.5 160
q0 77 24.5 136.5t68 100t103 61.5t129.5 21q69 0 129 -21t104 -61.5t69 -100t25 -136.5zM693 314q0 52 -18.5 94.5t-51 73t-77 47t-96.5 16.5q-53 0 -97.5 -16.5t-76.5 -47t-49.5 -73t-17.5 -94.5q0 -54 17.5 -96.5t50 -71.5t77 -44t98.5 -15q52 0 96 15t76.5 44t50.5 71.5
t18 96.5zM666 860q0 48 -16.5 87.5t-45 68t-68.5 44.5t-86 16q-47 0 -86 -15t-67.5 -43t-44 -68t-15.5 -90q0 -48 15.5 -87.5t44 -67t68 -42.5t87.5 -15q46 0 85.5 15t68 42.5t44.5 67t16 87.5z" />
    <glyph glyph-name="nine.smcp" horiz-adv-x="902" 
d="M266 94q106 0 180.5 31.5t122.5 87.5t71.5 134.5t26.5 173.5q-39 -63 -104 -102.5t-152 -39.5q-78 0 -137.5 32t-100 85.5t-61.5 124.5t-21 149q0 84 23.5 158.5t68 131t107.5 89t143 32.5q87 0 151.5 -34t108 -95.5t65 -147.5t21.5 -191v-93q0 -135 -26.5 -250.5
t-86.5 -200t-158 -132t-242 -47.5h-19l1 104h18zM428 480q46 0 85 16t69.5 42t52 60t33.5 70v62q0 85 -17.5 150t-48.5 108.5t-74.5 65.5t-94.5 22q-54 0 -96.5 -25t-72 -67t-45 -96.5t-15.5 -114.5q0 -57 14.5 -109.5t43 -93.5t70 -65.5t96.5 -24.5z" />
    <glyph glyph-name="brevetildecomb" horiz-adv-x="819" 
d="M615 1445q0 -47 -16.5 -86t-47 -67.5t-74 -44t-98.5 -15.5t-99 15.5t-74.5 44t-47 67.5t-16.5 86h94q0 -28 7.5 -53.5t24.5 -45t44.5 -31t66.5 -11.5t66 11.5t44 31t24.5 45t7.5 53.5h94zM611 1693q0 -34 -10.5 -63.5t-28.5 -51.5t-43 -34.5t-54 -12.5q-34 0 -56.5 13
t-41 28t-38 28t-46.5 13q-32 0 -54.5 -25t-22.5 -67l-58 15q0 33 10 62.5t28 51t43 34t54 12.5q30 0 52.5 -13t42.5 -28.5t40.5 -28.5t46.5 -13q32 0 55 27.5t23 69.5z" />
    <glyph glyph-name="one.sup" horiz-adv-x="663" 
d="M415 0h-98v660l-192 -69v92l277 107h13v-790z" />
    <glyph glyph-name="two.sup" horiz-adv-x="663" 
d="M583 0h-484v76l242 283q61 71 87 121.5t26 91.5q0 62 -33 100t-96 38q-37 0 -64.5 -12t-45.5 -33.5t-27 -51t-9 -63.5h-97q0 51 16.5 96.5t47.5 79.5t76 54t101 20q52 0 94.5 -15.5t72 -45t45.5 -71.5t16 -95q0 -38 -12 -74t-33 -71t-49.5 -70.5t-61.5 -72.5l-174 -196
h362v-89z" />
    <glyph glyph-name="three.sup" horiz-adv-x="663" 
d="M244 442h66q37 0 65 10.5t46.5 28.5t28 42.5t9.5 52.5t-8 52.5t-24.5 42.5t-42 28.5t-60.5 10.5q-29 0 -54.5 -9t-44 -26t-29 -41t-10.5 -54h-97q0 50 18.5 90.5t50 69.5t74 44.5t91.5 15.5q52 0 95 -14.5t73.5 -43t47.5 -70t17 -94.5q0 -57 -31.5 -104t-90.5 -71
q68 -21 101.5 -69t33.5 -119q0 -54 -18.5 -96t-51.5 -71t-78 -44t-97 -15q-46 0 -90 13.5t-78.5 42t-56 71.5t-21.5 103h98q0 -31 11 -57t31 -45t48 -29.5t61 -10.5q70 0 108 38t38 104q0 76 -44.5 108.5t-118.5 32.5h-66v82z" />
    <glyph glyph-name="four.sup" horiz-adv-x="663" 
d="M500 276h104v-90h-104v-186h-96v186h-332l-3 68l330 535h101v-513zM171 276h233v376l-24 -45z" />
    <glyph glyph-name="five.sup" horiz-adv-x="663" 
d="M125 397l41 392h391v-92h-311l-24 -226q17 11 51.5 24t79.5 13q52 0 94 -17.5t71.5 -50t45.5 -79.5t16 -107q0 -55 -14 -103t-43 -84t-74 -57t-106 -21q-44 0 -85 14t-73 42t-53 70t-24 97h95q6 -68 44.5 -101.5t95.5 -33.5q74 0 107 48t33 130q0 76 -39 123t-111 47
q-26 0 -45.5 -4t-34.5 -11t-27 -16.5l-24 -19.5z" />
    <glyph glyph-name="six.sup" horiz-adv-x="663" 
d="M478 797v-91h-11q-118 0 -189.5 -67.5t-81.5 -205.5q27 38 70 63t100 25q53 0 93 -20.5t67 -56t40.5 -83t13.5 -102.5q0 -57 -16.5 -106.5t-47 -86t-73.5 -57t-96 -20.5q-56 0 -102 21.5t-78.5 60.5t-50 94t-17.5 123v67q0 107 24.5 189.5t71 138.5t114 85t153.5 29h16z
M342 432q-26 0 -49 -8t-42.5 -22t-34 -33t-21.5 -41v-48q0 -48 11.5 -86t31.5 -64t47.5 -39.5t59.5 -13.5t57.5 14.5t43.5 39t28 57.5t10 70t-9 69t-27 55t-44.5 36.5t-61.5 13.5z" />
    <glyph glyph-name="seven.sup" horiz-adv-x="663" 
d="M576 727l-305 -727h-102l305 698h-403v91h505v-62z" />
    <glyph glyph-name="eight.sup" horiz-adv-x="663" 
d="M557 582q0 -61 -30.5 -107t-81.5 -71q59 -25 94.5 -74.5t35.5 -117.5q0 -56 -19 -97.5t-51.5 -69.5t-77 -42t-95.5 -14q-53 0 -98 14t-78 42t-51.5 69.5t-18.5 97.5q0 69 35 118.5t95 74.5q-52 25 -82 70.5t-30 106.5q0 53 17 93.5t47 68.5t71.5 42t90.5 14t90.5 -14
t72 -42t47.5 -68.5t17 -93.5zM478 217q0 66 -42 103.5t-106 37.5q-65 0 -105.5 -37.5t-40.5 -103.5t41 -103t107 -37q64 0 105 37t41 103zM461 578q0 29 -10 53.5t-27 42t-41.5 27t-52.5 9.5q-57 0 -92.5 -35t-35.5 -97q0 -60 35.5 -95t94.5 -35q57 0 93 35t36 95z" />
    <glyph glyph-name="nine.sup" horiz-adv-x="663" 
d="M206 80q128 0 189 67.5t68 191.5q-27 -38 -69 -61t-94 -23t-92.5 20.5t-68 56t-42 84t-14.5 104.5q0 57 16.5 108t47.5 89t75 60.5t98 22.5q57 0 102 -21.5t76 -63t47 -100.5t16 -134v-63q0 -99 -21 -178t-64.5 -133.5t-110 -84t-158.5 -29.5h-14l1 87h12zM320 341
q28 0 51 9t41 23.5t31 33.5t21 39v53q0 106 -39.5 158t-104.5 52q-33 0 -58.5 -15.5t-43.5 -41.5t-27.5 -60.5t-9.5 -71.5q0 -36 9 -68.5t26.5 -57t43.5 -39t60 -14.5z" />
    <glyph glyph-name="crossbar" horiz-adv-x="774" 
d="M646 685h-518v104h518v-104z" />
    <glyph glyph-name="ringacute" horiz-adv-x="610" 
d="M399 1673h122l-173 -187h-79zM165 1280q0 33 10.5 61.5t29 49t42.5 32.5t51 12t50.5 -12t41.5 -32.5t28 -49t10 -61.5t-10 -60.5t-28 -47.5t-41.5 -31.5t-50.5 -11.5t-51 11.5t-42.5 31.5t-29 47.5t-10.5 60.5zM225 1280q0 -37 21.5 -61.5t51.5 -24.5q29 0 50 24.5
t21 61.5q0 39 -21 64.5t-50 25.5q-30 0 -51.5 -25.5t-21.5 -64.5z" />
    <glyph glyph-name="dasiaoxia" horiz-adv-x="723" 
d="M330 1159l97 318h118v-17l-152 -314h-63v13zM145 1239q0 81 35.5 146.5t99.5 102.5l46 -50q-40 -39 -58.5 -87.5t-18.5 -117.5v-88h-104v94z" />
    <glyph glyph-name="cyrillictic" horiz-adv-x="379" 
d="M244 -355h-111v480h111v-480z" />
    <glyph glyph-name="cyrillichookleft" horiz-adv-x="457" 
d="M227 43q70 -52 107.5 -120t37.5 -136q0 -42 -12.5 -74.5t-34 -54t-51 -32.5t-62.5 -11q-52 0 -86 14.5t-55 29.5l21 86q16 -10 39.5 -21t56.5 -11q27 0 43.5 9t26 22t13 27.5t3.5 26.5q0 30 -9.5 56.5t-24.5 51.5t-34.5 48l-40.5 46z" />
    <glyph glyph-name="cyrillichook" horiz-adv-x="437" 
d="M281 135v-224q0 -170 -68 -259t-190 -89q-25 0 -47 4.5t-46 14.5l11 106q14 -6 39.5 -11t42.5 -5q71 0 109 61.5t38 177.5v224h111z" />
    <glyph glyph-name="circumflexhookcomb" horiz-adv-x="909" 
d="M674 1252h-114l-168 186l-168 -186h-113l220 243h121zM630 1379l-1 113q62 5 88 19t26 52q0 22 -11.5 37t-30 24t-43 12.5t-50.5 3.5l5 74q100 0 156.5 -40t56.5 -109q0 -33 -10 -57t-27 -40t-39 -25t-47 -12v-52h-73z" />
    <glyph glyph-name="g.alt" horiz-adv-x="947" 
d="M873 981h-145q37 -45 57 -103t20 -126v-22q0 -69 -25 -131t-70.5 -108.5t-108.5 -73.5t-139 -27q-64 0 -121 20q-21 -20 -40 -50.5t-19 -76.5q0 -29 8.5 -47.5t23.5 -29t34 -15t40 -4.5h152q75 0 136 -17.5t104.5 -53.5t67 -90.5t23.5 -127.5q0 -57 -29 -117
t-84.5 -108.5t-137 -79.5t-185.5 -31q-90 0 -159 22.5t-115.5 61t-70.5 90t-24 108.5q0 51 14 94t37 78t54 62t65 46q-26 20 -41 52.5t-15 78.5q0 34 7.5 63t20 52t28.5 41.5t32 33.5q-71 46 -111.5 121t-40.5 164v22q0 76 25.5 140.5t71 111t109 72.5t138.5 26
q65 0 122 -20h290zM371 83q-23 0 -44 3q-31 -11 -58.5 -32t-48 -50.5t-32.5 -65.5t-12 -75q0 -41 15.5 -76.5t47.5 -62.5t81 -42.5t115 -15.5q78 0 139 21.5t102 55.5t62.5 75t21.5 80q0 41 -11.5 75t-38 58.5t-68.5 38t-102 13.5h-169zM227 730q0 -44 16.5 -86.5
t47.5 -75.5t74 -53.5t97 -20.5q53 0 96 20.5t73 53.5t46.5 75.5t16.5 86.5v22q0 49 -16.5 93.5t-47.5 78.5t-74 54t-96 20t-95.5 -20t-73.5 -54t-47.5 -78.5t-16.5 -93.5v-22z" />
    <glyph glyph-name="one.lnum" horiz-adv-x="793" 
d="M551 0h-112v1309l-329 -147v114l422 185h19v-1461z" />
    <glyph glyph-name="circumflextildecomb" horiz-adv-x="806" 
d="M674 1252h-114l-168 171l-168 -171h-113l238 233h86zM610 1695q0 -31 -9.5 -58t-26.5 -47t-39.5 -31.5t-48.5 -11.5q-32 0 -53.5 13.5t-39.5 30t-36.5 30.5t-45.5 14q-14 0 -26 -7.5t-21 -20.5t-14.5 -30t-5.5 -36l-56 14q0 30 9.5 58.5t26 50.5t39 35.5t48.5 13.5
q29 0 50.5 -13.5t40.5 -30t38.5 -30t45.5 -13.5q28 0 48 23.5t20 61.5z" />
    <glyph glyph-name="chi.alt" horiz-adv-x="964" 
d="M156 1093q54 0 92 -26.5t64 -65.5t44 -83l32 -80l123 -332l250 576h115l-311 -721l181 -487l28 -71.5t29.5 -60.5t33.5 -42t40 -16q12 0 35 1.5t35 4.5l-21 -105q-9 -5 -26.5 -8.5t-29.5 -3.5q-42 0 -73 17t-56 50t-47 82.5t-47 114.5l-142 385l-275 -636h-117l338 782
l-157 428l-29 73.5t-32 60.5t-40.5 41t-53.5 15q-10 0 -28.5 -2t-29.5 -4l-3 101q12 5 36 8.5t42 3.5z" />
    <glyph glyph-name="alpha.alt" horiz-adv-x="1048" 
d="M782 296q-19 -70 -48 -128.5t-69.5 -100.5t-91.5 -65t-113 -23q-83 0 -148 38.5t-109.5 108t-68 167.5t-23.5 217v21q0 128 23.5 233t68 180t109.5 116.5t149 41.5q61 0 111 -23t90 -64.5t69 -99.5t48 -129l36 296h109l-83 -542l88 -540h-108zM223 510q0 -92 15 -170.5
t46.5 -135.5t80.5 -89.5t117 -32.5q55 0 99 32.5t76.5 89t54.5 131.5t33 160v78q-9 71 -27.5 146t-50 137t-77 102t-107.5 40q-68 0 -117.5 -36.5t-81 -100t-46.5 -148.5t-15 -182v-21z" />
    <glyph glyph-name="delta.alt" horiz-adv-x="1001" 
d="M816 1456v-102h-434q22 -24 51 -50l62.5 -57l70 -67.5t74.5 -79.5q59 -63 107.5 -129t83 -136t53.5 -145t19 -154v-32q0 -114 -28 -210t-80.5 -166t-126.5 -109.5t-167 -39.5t-168 39.5t-127.5 109.5t-80.5 166t-28 210v32q0 101 28.5 188t82 152.5t128.5 105t168 45.5
q11 1 32 0.5t42 -8.5q-43 50 -92 98.5l-97 93.5l-90 85.5t-70 73.5v86h587zM208 504q0 -84 18.5 -160.5t55.5 -134.5t92 -92.5t127 -34.5t126 34.5t91 92.5t55.5 134.5t18.5 160.5v32q0 72 -14.5 133.5t-36.5 111t-48 85t-50 56.5q-24 8 -56.5 13t-60.5 5
q-78 0 -137.5 -33.5t-99.5 -89t-60.5 -129t-20.5 -152.5v-32z" />
    <glyph glyph-name="R.alt" horiz-adv-x="1174" 
d="M289 655v-655h-114v1455h421q198 0 302.5 -101.5t104.5 -301.5q0 -57 -14.5 -109.5t-42 -96.5t-68.5 -78.5t-93 -56.5q60 -18 100 -50t65 -76t35.5 -98.5t10.5 -116.5v-136q0 -62 12.5 -117.5t45.5 -92.5v-24h-117q-17 20 -27.5 49t-16.5 61t-8.5 65t-2.5 61v132
q0 66 -17.5 119t-51 90.5t-82.5 57.5t-112 20h-330zM289 761h293q84 0 142.5 22.5t95 61.5t53 92t16.5 115q0 70 -17.5 125t-53.5 93t-91.5 58t-131.5 20h-306v-587z" />
    <glyph glyph-name="K.alt" horiz-adv-x="1140" 
d="M454 682h-163v-682h-114v1456h114v-667h156l464 667h144l-499 -715l536 -741h-142z" />
    <glyph glyph-name="k.alt" horiz-adv-x="891" 
d="M378 526h-115v-526h-112v1536h112v-905h106l325 451h133l-360 -494l399 -588h-133z" />
    <glyph glyph-name="K.alt2" horiz-adv-x="1152" 
d="M291 704v-704h-114v1456h114v-678h10l562 678h148l-594 -719l629 -737h-146z" />
    <glyph glyph-name="k.alt2" horiz-adv-x="874" 
d="M275 516h-12v-516h-112v1560h112v-940h7l376 462h145l-423 -509l453 -573h-138z" />
    <glyph glyph-name="breveacutecomb" horiz-adv-x="799" 
d="M629 1456q0 -46 -17 -84.5t-49 -66t-78 -43t-103 -15.5t-103 15.5t-78.5 43t-49.5 66t-17 84.5h95q0 -28 8 -53.5t26.5 -44.5t47.5 -30t71 -11q41 0 70 11.5t47 30.5t26.5 44t8.5 53h95zM444 1656h99l-142 -206h-70z" />
    <glyph glyph-name="brevehookcomb" horiz-adv-x="795" 
d="M613 1456q0 -45 -16.5 -83t-47.5 -65.5t-75.5 -42.5t-99.5 -15q-56 0 -100.5 15t-75.5 42.5t-47.5 65.5t-16.5 83h91q0 -28 8 -52.5t26 -43t46 -29.5t69 -11q39 0 67 11t46 29.5t26 43.5t8 52h92zM339 1456l-1 107q70 5 101 21.5t31 56.5q0 22 -13.5 36.5t-35.5 23.5
t-50 13t-58 4l6 63q112 0 175.5 -37.5t63.5 -103.5q0 -32 -11.5 -55t-30.5 -38.5t-44 -24t-53 -11.5v-55h-80z" />
    <glyph glyph-name="seven.alt" horiz-adv-x="996" 
d="M891 1352q-101 -139 -176 -278t-127.5 -287.5t-85 -312t-49.5 -351.5l-10 -123h-112l10 123q19 192 57 360.5t93.5 320t127 287t158.5 261.5h-692v104h806v-104z" />
    <glyph glyph-name="G.alt" horiz-adv-x="1221" 
d="M1059 538q0 -131 -31 -235t-87.5 -176t-136.5 -110t-179 -38q-105 0 -194 45.5t-153 130t-100 204t-36 268.5v212q0 146 34.5 263.5t96.5 200.5t148 128t190 45q105 0 183.5 -33t133.5 -90.5t86.5 -136.5t42.5 -171h-113q-9 65 -31.5 123.5t-61.5 103t-98 71t-142 26.5
q-80 0 -145.5 -38t-112 -107.5t-72 -167t-25.5 -215.5v-214q0 -123 27 -223t75.5 -171t116 -109.5t149.5 -38.5q73 0 132 26.5t101 81.5t64.5 140.5t22.5 204.5v61h-313v106h428v-167z" />
    <glyph glyph-name="C.ss06" horiz-adv-x="1198" 
d="M1094 454q-11 -108 -45 -196t-91.5 -150t-137 -95.5t-180.5 -33.5q-112 0 -206 53.5t-162.5 149t-106.5 227.5t-38 289v59q0 157 37 289t103.5 228t160 149.5t207.5 53.5q99 0 179.5 -33.5t139 -95.5t94 -150t46.5 -198h-114q-11 85 -37 153.5t-68.5 116.5t-102 73.5
t-137.5 25.5q-90 0 -162.5 -46t-123.5 -127t-79 -193t-28 -244v-61q0 -133 29 -245.5t81.5 -194t126 -127.5t161.5 -46q78 0 137 24.5t100 71.5t66.5 115.5t36.5 157.5h114z" />
    <glyph glyph-name="G.ss06" horiz-adv-x="1253" 
d="M1099 173q-15 -27 -48.5 -60.5t-86 -63.5t-125 -50t-166.5 -20q-118 0 -218 53.5t-173 151t-114 233.5t-41 300v32q0 162 38 295.5t105.5 229.5t161 149t204.5 53q108 0 189.5 -33t138.5 -90.5t90.5 -136.5t44.5 -171h-115q-10 65 -33 123.5t-64 103t-102.5 71
t-148.5 26.5q-88 0 -160.5 -46.5t-124.5 -129t-80.5 -195.5t-28.5 -247v-34q0 -138 32 -254t89 -200t136 -131t174 -47q65 0 117.5 12.5t91.5 31.5t65 41.5t38 41.5v374h-319v106h433v-519z" />
    <glyph glyph-name="D.ss06" horiz-adv-x="1220" 
d="M177 0v1456h347q121 0 224.5 -50t179.5 -142.5t119.5 -222.5t43.5 -289v-50q0 -159 -43 -288.5t-120 -221.5t-182.5 -142t-230.5 -50h-338zM291 1348v-1242h224q103 0 188 43.5t146 122t94 188.5t33 242v53q0 135 -33.5 244.5t-93.5 187t-143.5 119.5t-182.5 42h-232z
" />
    <glyph glyph-name="O.ss06" horiz-adv-x="1274" 
d="M1145 702q0 -158 -38.5 -290.5t-106 -228.5t-161 -150t-202.5 -54q-108 0 -201 54t-161.5 150t-108 228.5t-39.5 290.5v51q0 158 39 291t107.5 229t161.5 150t201 54q109 0 202 -54t161.5 -150t107 -229t38.5 -291v-51zM1032 755q0 133 -29.5 245t-82 193.5t-125 127
t-159.5 45.5q-85 0 -157 -45.5t-125 -127t-83 -193.5t-30 -245v-53q0 -134 30 -246.5t83 -194.5t125.5 -127.5t157.5 -45.5q87 0 160 45.5t125 127.5t81 194.5t29 246.5v53z" />
    <glyph glyph-name="Q.ss06" horiz-adv-x="1275" 
d="M1145 702q0 -111 -19.5 -210.5t-55 -182.5t-85.5 -147.5t-112 -107.5l233 -222l-79 -79l-258 247q-63 -21 -132 -21q-108 0 -201 53.5t-161.5 149.5t-108 229t-39.5 291v45q0 158 39 292t107.5 231.5t161.5 152t201 54.5q109 0 202 -54.5t161.5 -152t107 -231.5
t38.5 -292v-45zM1032 749q0 133 -29.5 246.5t-82 195.5t-125 128.5t-159.5 46.5q-85 0 -157 -46.5t-125 -128.5t-83 -195.5t-30 -246.5v-47q0 -134 30 -247t83 -194.5t125.5 -127t157.5 -45.5q87 0 160 45.5t125 127t81 194.5t29 247v47z" />
    <glyph glyph-name="one.onum" horiz-adv-x="864" 
d="M574 0h-110v1013l-310 -162v112l394 202h26v-1165z" />
    <glyph glyph-name="two.onum" horiz-adv-x="1009" 
d="M907 0h-744v83l442 470q46 49 73 89.5t41 75t17.5 64t3.5 58.5q0 49 -13 92.5t-40.5 76.5t-70.5 52t-103 19q-59 0 -109 -21.5t-86.5 -61.5t-57 -97t-20.5 -127h-110q0 84 28.5 159t79.5 131t121 88.5t154 32.5t147.5 -26t106 -71.5t63.5 -107t21 -131.5
q0 -97 -43.5 -184t-125.5 -176l-356 -385h581v-103z" />
    <glyph glyph-name="three.onum" horiz-adv-x="978" 
d="M686 1060h-592v105h728v-90l-345 -437q83 -6 152 -40.5t118.5 -93t77 -139.5t27.5 -180q0 -128 -35.5 -227.5t-98.5 -167.5t-150 -103.5t-189 -35.5q-91 0 -174 25.5t-172 77.5l31 93q67 -41 144.5 -65.5t157.5 -24.5q91 0 160.5 31.5t117 87.5t72 132.5t24.5 165.5
q0 96 -24 166t-69 115t-109.5 67t-146.5 22h-57v67z" />
    <glyph glyph-name="four.onum" horiz-adv-x="1072" 
d="M849 102h166v-103h-166v-329h-111v329h-666v73l651 1093h126v-1063zM208 102h530v910l-36 -72z" />
    <glyph glyph-name="five.onum" horiz-adv-x="990" 
d="M139 412l79 752h651v-114h-563l-53 -493q48 55 112 80t149 26q84 0 151 -34t114.5 -97t73 -152t25.5 -198q0 -111 -29 -208.5t-84.5 -170t-137.5 -114t-187 -41.5q-89 0 -173.5 27t-161.5 87l38 93q58 -52 133.5 -77.5t163.5 -25.5q75 0 135.5 33t103 90.5t66 135.5
t23.5 169q0 76 -18.5 143.5t-53.5 118t-87.5 80t-119.5 29.5q-65 0 -107 -12.5t-70.5 -33.5t-46.5 -49.5t-35 -60.5z" />
    <glyph glyph-name="seven.onum" horiz-adv-x="939" 
d="M868 1085l-515 -1415h-114l512 1391h-669v104h786v-80z" />
    <glyph glyph-name="nine.onum" horiz-adv-x="1036" 
d="M416 -242q81 0 148.5 38.5t116.5 112t77.5 179.5t30.5 240q-51 -75 -127 -116t-167 -41q-87 0 -156.5 38.5t-119 105t-76 157t-26.5 195.5q0 115 29 210.5t79.5 164t119.5 106t150 37.5q92 0 167 -35t128 -106t82 -178t29 -250v-263q0 -167 -36 -297t-99.5 -219
t-150.5 -136t-190 -47q-57 0 -117 15.5t-114 47.5l24 98q46 -26 93 -41.5t105 -15.5zM499 274q61 0 109.5 20.5t84.5 54.5t60 76.5t37 86.5v113q0 227 -76.5 341.5t-214.5 114.5q-59 0 -108 -31t-84.5 -86t-55.5 -131t-20 -166q0 -77 18 -147.5t52.5 -125.5t84.5 -87.5
t113 -32.5z" />
    <glyph glyph-name="zero.onum" horiz-adv-x="1110" 
d="M986 563q0 -144 -33 -253t-90.5 -182.5t-136 -111t-169.5 -37.5t-170 37.5t-137.5 111t-92 182.5t-33.5 253v37q0 144 33.5 253t91.5 183t136.5 111.5t169.5 37.5t170 -37.5t137 -111.5t91 -183t33 -253v-37zM875 614q0 114 -24 201t-67 146.5t-101.5 89.5t-127.5 30
q-68 0 -126.5 -30t-101.5 -89.5t-67.5 -146.5t-24.5 -201v-63q0 -114 24.5 -201.5t68 -147t102 -90t127.5 -30.5t127.5 30.5t100.5 90t66 147t24 201.5v63z" />
    <glyph glyph-name="seven.lnum" horiz-adv-x="901" 
d="M823 1386l-501 -1386h-112l498 1352h-641v104h756v-70z" />
    <glyph glyph-name="b.ss06" horiz-adv-x="995" 
d="M904 530q0 -121 -26 -222t-73.5 -174t-115 -113.5t-150.5 -40.5q-100 0 -170.5 43.5t-115.5 120.5l-10 -144h-95v1536h110v-600q45 78 114 122t165 44q84 0 151.5 -39t115.5 -111t74 -173.5t26 -227.5v-21zM793 551q0 95 -18 176.5t-53 141t-87 93t-120 33.5
q-54 0 -96 -18t-73 -48t-52.5 -69t-35.5 -81v-494q15 -42 38.5 -78.5t55.5 -63t73 -42t92 -15.5q67 0 118.5 34t86.5 94t53 141t18 175v21z" />
    <glyph glyph-name="c.ss06" horiz-adv-x="938" 
d="M499 83q46 0 89 16.5t76.5 48t55 78.5t25.5 109h106q-3 -77 -32.5 -142.5t-77 -112.5t-110 -73.5t-132.5 -26.5q-97 0 -171.5 41.5t-125 114.5t-76.5 171.5t-26 212.5v42q0 114 26 212.5t76.5 171t125 114.5t170.5 42q74 0 137.5 -27t110.5 -77.5t74.5 -121.5t30.5 -159
h-106q-3 65 -23 117t-53 88.5t-76.5 56t-94.5 19.5q-77 0 -131 -36t-89 -96.5t-51 -139.5t-16 -164v-42q0 -86 16 -165t50.5 -139.5t89.5 -96.5t132 -36z" />
    <glyph glyph-name="d.ss06" horiz-adv-x="1006" 
d="M99 551q0 126 27.5 227.5t76.5 173.5t117 111t149 39q94 0 162 -42.5t113 -118.5v595h110v-1536h-98l-8 138q-45 -75 -114.5 -116.5t-166.5 -41.5q-80 0 -147.5 40.5t-116.5 113.5t-76.5 174t-27.5 222v21zM211 530q0 -94 18 -175t53.5 -141t87 -94t119.5 -34q49 0 89 14
t71.5 39.5t54.5 60t40 75.5v517q-15 40 -37 77t-52.5 65t-71 44.5t-92.5 16.5q-68 0 -120.5 -33.5t-88 -93t-53.5 -141t-18 -176.5v-21z" />
    <glyph glyph-name="g.ss06" horiz-adv-x="1003" 
d="M99 551q0 126 27 227.5t75.5 173.5t116.5 111t150 39q97 0 166.5 -45.5t114.5 -126.5l12 152h93v-1035q0 -113 -25 -201.5t-72.5 -150t-117 -94t-158.5 -32.5q-33 0 -70 5.5t-75 16.5t-74.5 27.5t-67.5 38.5l33 93q56 -37 118.5 -57.5t133.5 -20.5q67 0 116.5 25t82.5 73
t49 116.5t16 155.5v88q-45 -71 -114 -110.5t-163 -39.5q-81 0 -148.5 40.5t-116 113.5t-75.5 174t-27 222v21zM210 530q0 -94 18.5 -175t53.5 -141t87 -94t120 -34q50 0 90 14.5t71 40t54 60.5t39 77v511q-15 40 -36.5 77.5t-52 66t-71 45.5t-92.5 17q-68 0 -120.5 -33.5
t-88 -93t-54 -141t-18.5 -176.5v-21z" />
    <glyph glyph-name="o.ss06" horiz-adv-x="1014" 
d="M96 556q0 118 30 218t84 173t129.5 114t166.5 41t167 -41t130.5 -114t84.5 -173t30 -218v-32q0 -118 -30 -218t-84 -172.5t-129.5 -113t-166.5 -40.5q-92 0 -167.5 40.5t-130 113t-84.5 172.5t-30 218v32zM206 524q0 -89 20.5 -168.5t59.5 -140.5t95 -96.5t127 -35.5
q70 0 125.5 35.5t94.5 96.5t59.5 140.5t20.5 168.5v32q0 87 -21 167t-60 141t-95 97.5t-126 36.5t-125.5 -36.5t-94.5 -97.5t-59.5 -141t-20.5 -167v-32z" />
    <glyph glyph-name="p.ss06" horiz-adv-x="1003" 
d="M903 530q0 -121 -26 -222t-73.5 -174t-115 -113.5t-149.5 -40.5q-95 0 -165 38.5t-116 107.5v-542h-110v1498h93l12 -147q46 79 116 123t167 44q84 0 152 -39t115.5 -111t73.5 -173.5t26 -227.5v-21zM792 551q0 95 -18.5 176.5t-54.5 141t-89 93t-121 33.5
q-51 0 -91.5 -16t-71 -43.5t-52 -63.5t-36.5 -76v-530q16 -40 39.5 -73.5t54.5 -58t70.5 -38t88.5 -13.5q67 0 119.5 34.5t88.5 95t54.5 142t18.5 175.5v21z" />
    <glyph glyph-name="q.ss06" horiz-adv-x="1010" 
d="M99 545q0 126 27 229t75.5 175.5t117 112.5t152.5 40q94 0 162 -42t114 -117l10 139h97v-1498h-111v539q-46 -67 -114 -105t-160 -38q-83 0 -151 39.5t-117 111.5t-75.5 172t-26.5 221v21zM211 524q0 -94 18.5 -174.5t54 -140t87.5 -93t120 -33.5q47 0 86 13.5t70 37
t55 56.5t41 72v543q-16 38 -38.5 73t-53 61.5t-70 42.5t-88.5 16q-68 0 -120.5 -35t-88.5 -96t-54.5 -144t-18.5 -178v-21z" />
    <glyph glyph-name="c.ss07" horiz-adv-x="929" 
d="M490 83q43 0 83 15t72 43.5t53.5 69t29.5 92.5l102 -25q-9 -65 -38.5 -119.5t-74.5 -94t-103 -62t-124 -22.5q-97 0 -170 41.5t-122.5 114.5t-74.5 171.5t-25 212.5v42q0 114 25 212.5t74 171t122.5 114.5t169.5 42q70 0 129 -24t103 -67t72 -102.5t37 -131.5l-102 -26
q-9 57 -29.5 102.5t-51 77.5t-70.5 49.5t-88 17.5q-77 0 -130 -36t-86 -96.5t-48 -139.5t-15 -164v-42q0 -86 14.5 -165t47.5 -139.5t86.5 -96.5t131.5 -36z" />
    <glyph glyph-name="e.ss07" horiz-adv-x="933" 
d="M523 -20q-94 0 -172.5 39.5t-135 110t-88 167.5t-31.5 213v54q0 123 32 222.5t85.5 169.5t124 108t148.5 38q89 0 157 -34t113.5 -95.5t69 -147.5t23.5 -191v-103h-643v-21q0 -89 23 -167t65 -135.5t101.5 -91t131.5 -33.5q78 0 139 28t111 82l38 -85q-21 -25 -48.5 -48
t-63.5 -41t-80.5 -28.5t-99.5 -10.5zM486 998q-56 0 -104 -26t-84 -73.5t-59 -114.5t-30 -149h529v29q0 68 -15.5 128.5t-47 106.5t-79 72.5t-110.5 26.5z" />
    <glyph glyph-name="g.ss07" horiz-adv-x="996" 
d="M109 545q0 126 24 229t69.5 175.5t111 112.5t147.5 40q97 0 166.5 -45t114.5 -126l11 151h95v-1044q0 -110 -25 -197t-73 -147.5t-118 -92.5t-159 -32q-30 0 -65 4.5t-70.5 13.5t-69.5 23t-62 33l33 98q51 -33 109 -51t124 -18q67 0 116.5 24.5t82.5 71t49 113.5t16 152
v97q-45 -71 -113.5 -110.5t-162.5 -39.5q-81 0 -146 39.5t-110.5 111.5t-70 172t-24.5 221v21zM221 524q0 -94 15.5 -174.5t47.5 -139t81 -91.5t117 -33q50 0 90 14.5t71 40t54 60.5t39 77v512q-15 40 -36.5 77.5t-52 65.5t-71 45t-92.5 17q-68 0 -118 -34.5t-82 -95
t-47.5 -143t-15.5 -177.5v-21z" />
    <glyph glyph-name="six.alt" horiz-adv-x="996" 
d="M592 1476q50 0 101.5 -11.5t86.5 -33.5l-24 -97q-32 17 -67.5 27.5t-88.5 10.5q-72 0 -133.5 -33.5t-108 -102.5t-75.5 -173.5t-34 -246.5q45 67 115 107.5t166 40.5q84 0 151 -36.5t113.5 -101t71 -152t24.5 -189.5q0 -108 -25.5 -200.5t-73.5 -160t-116 -106
t-152 -38.5q-80 0 -150.5 34.5t-123 102t-83 166.5t-30.5 229v229q0 187 36 325.5t98 229.5t145 135.5t177 44.5zM512 862q-47 0 -88 -15t-75 -41t-59.5 -62t-41.5 -79v-153q0 -105 21.5 -185t58.5 -134.5t87 -82.5t108 -28q63 0 111 33t80.5 88.5t49 128.5t16.5 153
q0 79 -17 148t-50.5 120t-83.5 80t-117 29z" />
    <glyph glyph-name="nine.alt" horiz-adv-x="996" 
d="M417 83q73 0 133 33.5t103 98.5t67 160.5t24 220.5v19q-49 -74 -121 -113.5t-157 -39.5t-153 38.5t-116 105.5t-74 157.5t-26 194.5q0 116 28 211.5t77.5 164t117 106t146.5 37.5q89 0 161 -35t122.5 -106t78 -178t27.5 -251v-309q0 -151 -32 -266.5t-89 -193.5
t-135.5 -118t-172.5 -40q-54 0 -112.5 14.5t-111.5 46.5l26 98q44 -25 89 -40.5t100 -15.5zM471 566q57 0 102.5 20.5t79 54t56.5 75.5t35 86v115q0 226 -72 341t-202 115q-57 0 -104.5 -31t-82 -86.5t-53.5 -131.5t-19 -166q0 -76 17.5 -147t51 -125.5t82 -87t109.5 -32.5z
" />
    <glyph glyph-name="D.cn" horiz-adv-x="1167" 
d="M172 0v1456h343q115 0 211.5 -47t166.5 -134t108.5 -209.5t38.5 -272.5v-131q0 -150 -38.5 -272.5t-109 -209t-168.5 -133.5t-217 -47h-335zM286 1348v-1242h221q97 0 175 40.5t132.5 113.5t83.5 175.5t29 226.5v134q0 126 -29 228t-83 174t-130 111t-170 39h-229z" />
    <glyph glyph-name="Q.cn" horiz-adv-x="1208" 
d="M1079 650q0 -211 -62.5 -364t-175.5 -232l226 -229l-78 -79l-252 256q-32 -11 -66 -16.5t-71 -5.5q-107 0 -195.5 47.5t-151.5 134.5t-98 211t-35 277v154q0 153 34.5 277.5t97.5 212t151 135t195 47.5q109 0 198 -47.5t152 -135t97 -212t34 -277.5v-154zM965 806
q0 129 -24.5 232.5t-72 176t-115.5 111.5t-155 39q-84 0 -151.5 -39t-114.5 -111.5t-72.5 -176t-25.5 -232.5v-156q0 -129 25.5 -233t73.5 -177t115.5 -112t151.5 -39q87 0 155 39t114.5 112t71 177t24.5 233v156z" />
    <glyph glyph-name="a.cn" horiz-adv-x="964" 
d="M720 0q-8 26 -13 64.5t-7 78.5q-23 -33 -53 -62.5t-67.5 -52t-82 -35.5t-96.5 -13q-67 0 -121.5 23t-93.5 64.5t-60 97.5t-21 122q0 80 28.5 143.5t82 108t130 68t172.5 23.5h181v121q0 116 -58 182t-169 66q-51 0 -94 -17t-74 -46.5t-48.5 -68.5t-17.5 -84l-111 1
q0 60 25 117.5t71 102t111 71.5t144 27q73 0 133.5 -22t104.5 -66.5t68.5 -110.5t24.5 -154v-522q0 -28 2 -58t5.5 -58.5t9 -54t12.5 -44.5v-12h-118zM415 88q52 0 97.5 16t81.5 44.5t62.5 66t42.5 81.5v241h-164q-151 0 -234.5 -63.5t-83.5 -175.5q0 -44 13.5 -82t39 -66.5
t62 -45t83.5 -16.5z" />
    <glyph glyph-name="cyrillicbreve" horiz-adv-x="865" 
d="M716 1490q0 -57 -20 -104t-57 -81.5t-91 -53.5t-121 -19t-120.5 19t-91 53.5t-57.5 81.5t-20 104h102q0 -35 10 -65.5t32 -54t58 -37t87 -13.5q50 0 85.5 14t58 37t33 54t10.5 65h102z" />
    <glyph glyph-name="nonbreakingspace" unicode="&#xa0;" horiz-adv-x="460" 
 />
    <glyph glyph-name="uni00AD" unicode="&#xad;" horiz-adv-x="529" 
d="M463 590h-404v103h404v-103z" />
    <glyph glyph-name="Dcroat" unicode="&#x110;" horiz-adv-x="1197" 
d="M202 0v689h-128v104h128v663h343q115 0 210.5 -38t163.5 -112t105.5 -183t37.5 -250v-291q0 -141 -37.5 -250t-106 -182.5t-165.5 -111.5t-216 -38h-335zM592 689h-276v-583h221q98 0 174.5 31t129.5 91.5t80.5 149.5t27.5 204v294q0 117 -28 205t-80 147.5t-127 89.5
t-169 30h-229v-555h276v-104z" />
    <glyph glyph-name="Eth" unicode="&#xd0;" horiz-adv-x="1197" 
d="M202 0v689h-128v104h128v663h343q115 0 210.5 -38t163.5 -112t105.5 -183t37.5 -250v-291q0 -141 -37.5 -250t-106 -182.5t-165.5 -111.5t-216 -38h-335zM592 689h-276v-583h221q98 0 174.5 31t129.5 91.5t80.5 149.5t27.5 204v294q0 117 -28 205t-80 147.5t-127 89.5
t-169 30h-229v-555h276v-104z" />
    <glyph glyph-name="hbar" unicode="&#x127;" horiz-adv-x="1015" 
d="M563 1257h-274v-345q48 87 121.5 138.5t168.5 51.5q68 0 121.5 -22t91 -70t57.5 -123.5t20 -182.5v-704h-110v705q0 83 -14.5 139t-41.5 89.5t-65.5 48t-86.5 14.5q-50 0 -91.5 -20.5t-74.5 -54.5t-57 -78t-39 -92v-751h-111v1257h-133v104h133v175h111v-175h274v-104z
" />
    <glyph glyph-name="Tbar" unicode="&#x166;" horiz-adv-x="1067" 
d="M791 834h-200v-834h-115v834h-203v104h203v410h-413v108h942v-108h-414v-410h200v-104z" />
    <glyph glyph-name="tbar" unicode="&#x167;" horiz-adv-x="594" 
d="M315 1358v-276h185v-100h-185v-261h231v-104h-231v-354q0 -56 9.5 -90.5t25.5 -53.5t36.5 -25.5t43.5 -6.5q22 0 43 3.5t37 6.5l3 -100q-18 -8 -47.5 -12.5t-61.5 -4.5q-43 0 -79.5 14t-63.5 47t-42 87.5t-15 135.5v353h-176v104h176v261h-167v100h167v276h111z" />
    <glyph glyph-name="Agrave" unicode="&#xc0;" 
d="M834 407h-546l-124 -407h-119l464 1456h106l464 -1456h-119zM321 514h480l-240 781zM638 1560h-109l-226 280h144z" />
    <glyph glyph-name="Aacute" unicode="&#xc1;" 
d="M834 407h-546l-124 -407h-119l464 1456h106l464 -1456h-119zM321 514h480l-240 781zM684 1840h145l-231 -280h-105z" />
    <glyph glyph-name="Acircumflex" unicode="&#xc2;" 
d="M834 407h-546l-124 -407h-119l464 1456h106l464 -1456h-119zM321 514h480l-240 781zM802 1583v-10h-100l-138 182l-138 -182h-98v12l201 256h69z" />
    <glyph glyph-name="Atilde" unicode="&#xc3;" 
d="M834 407h-546l-124 -407h-119l464 1456h106l464 -1456h-119zM321 514h480l-240 781zM852 1810q0 -48 -13 -88t-35.5 -68t-52.5 -43.5t-65 -15.5q-44 0 -72.5 17t-52 38t-48 38t-60.5 17q-38 0 -64 -31.5t-26 -86.5l-81 3q0 48 12.5 87.5t35 67.5t53 43.5t65.5 15.5
q39 0 67.5 -17t54 -37.5t51 -37.5t60.5 -17q38 0 64.5 33t26.5 88z" />
    <glyph glyph-name="Adieresis" unicode="&#xc4;" 
d="M834 407h-546l-124 -407h-119l464 1456h106l464 -1456h-119zM321 514h480l-240 781zM271 1710q0 35 21.5 58.5t60.5 23.5q38 0 60.5 -23.5t22.5 -58.5q0 -34 -22.5 -57t-60.5 -23q-39 0 -60.5 23t-21.5 57zM708 1709q0 35 22 58.5t60 23.5q39 0 61 -23.5t22 -58.5
q0 -34 -22 -57t-61 -23q-38 0 -60 23t-22 57z" />
    <glyph glyph-name="Aring" unicode="&#xc5;" 
d="M834 407h-546l-124 -407h-119l464 1456h106l464 -1456h-119zM321 514h480l-240 781zM372 1716q0 40 15 75t41 61t61 41t76 15q40 0 75.5 -15t61.5 -41t41 -61t15 -75t-15 -74.5t-41 -59.5t-61.5 -39t-75.5 -14q-41 0 -76 14t-61 39t-41 59.5t-15 74.5zM449 1716
q0 -24 8.5 -45t24 -36.5t36.5 -24.5t47 -9q25 0 46.5 9t37.5 24.5t24.5 36.5t8.5 45q0 25 -8.5 47t-24.5 38t-37.5 25t-46.5 9q-26 0 -47 -9t-36.5 -25t-24 -38t-8.5 -47z" />
    <glyph glyph-name="Aringacute" unicode="&#x1fa;" 
d="M834 407h-546l-124 -407h-119l464 1456h106l464 -1456h-119zM321 514h480l-240 781zM667 1930h122l-173 -187h-79zM433 1537q0 33 10.5 61.5t29 49t42.5 32.5t51 12t50.5 -12t41.5 -32.5t28 -49t10 -61.5t-10 -60.5t-28 -47.5t-41.5 -31.5t-50.5 -11.5t-51 11.5
t-42.5 31.5t-29 47.5t-10.5 60.5zM493 1537q0 -37 21.5 -61.5t51.5 -24.5q29 0 50 24.5t21 61.5q0 39 -21 64.5t-50 25.5q-30 0 -51.5 -25.5t-21.5 -64.5z" />
    <glyph glyph-name="Ccedilla" unicode="&#xc7;" horiz-adv-x="1158" 
d="M1045 454q-16 -245 -132 -359.5t-321 -114.5q-105 0 -189.5 41t-143.5 118t-91 187.5t-32 249.5v313q0 137 32 246t92 184.5t146 116t195 40.5q99 0 177.5 -28t135.5 -86t90 -148t41 -214h-116q-8 100 -31 170t-63.5 114t-98.5 64t-135 20q-85 0 -150 -32.5t-109.5 -93.5
t-67 -150t-22.5 -201v-315q0 -111 21.5 -201.5t64 -154.5t106 -99t148.5 -35q80 0 140 18.5t101 61.5t64.5 113.5t31.5 174.5h116zM636 -9l-10 -64q25 -4 49.5 -14.5t44 -30.5t31 -50.5t11.5 -75.5t-16.5 -81.5t-48 -63t-77.5 -41t-106 -14.5l-6 79q31 0 60.5 7t52.5 21
t37 36.5t14 54.5q0 29 -9 48.5t-27 31.5t-45.5 18.5t-64.5 10.5l25 128h85z" />
    <glyph glyph-name="Egrave" unicode="&#xc8;" horiz-adv-x="1018" 
d="M851 697h-565v-591h650v-106h-764v1456h759v-108h-645v-545h565v-106zM614 1566h-109l-226 280h144z" />
    <glyph glyph-name="Eacute" unicode="&#xc9;" horiz-adv-x="1018" 
d="M851 697h-565v-591h650v-106h-764v1456h759v-108h-645v-545h565v-106zM660 1846h145l-231 -280h-105z" />
    <glyph glyph-name="Ecircumflex" unicode="&#xca;" horiz-adv-x="1018" 
d="M851 697h-565v-591h650v-106h-764v1456h759v-108h-645v-545h565v-106zM778 1589v-10h-100l-138 182l-138 -182h-98v12l201 256h69z" />
    <glyph glyph-name="Edieresis" unicode="&#xcb;" horiz-adv-x="1018" 
d="M851 697h-565v-591h650v-106h-764v1456h759v-108h-645v-545h565v-106zM247 1716q0 35 21.5 58.5t60.5 23.5q38 0 60.5 -23.5t22.5 -58.5q0 -34 -22.5 -57t-60.5 -23q-39 0 -60.5 23t-21.5 57zM684 1715q0 35 22 58.5t60 23.5q39 0 61 -23.5t22 -58.5q0 -34 -22 -57
t-61 -23q-38 0 -60 23t-22 57z" />
    <glyph glyph-name="Igrave" unicode="&#xcc;" horiz-adv-x="500" 
d="M307 0h-114v1456h114v-1456zM325 1566h-109l-226 280h144z" />
    <glyph glyph-name="Iacute" unicode="&#xcd;" horiz-adv-x="500" 
d="M307 0h-114v1456h114v-1456zM370 1846h145l-231 -280h-105z" />
    <glyph glyph-name="Icircumflex" unicode="&#xce;" horiz-adv-x="500" 
d="M307 0h-114v1456h114v-1456zM489 1589v-10h-100l-138 182l-138 -182h-98v12l201 256h69z" />
    <glyph glyph-name="Idieresis" unicode="&#xcf;" horiz-adv-x="500" 
d="M307 0h-114v1456h114v-1456zM-42 1716q0 35 21.5 58.5t60.5 23.5q38 0 60.5 -23.5t22.5 -58.5q0 -34 -22.5 -57t-60.5 -23q-39 0 -60.5 23t-21.5 57zM395 1715q0 35 22 58.5t60 23.5q39 0 61 -23.5t22 -58.5q0 -34 -22 -57t-61 -23q-38 0 -60 23t-22 57z" />
    <glyph glyph-name="Ntilde" unicode="&#xd1;" horiz-adv-x="1262" 
d="M1088 0h-114l-687 1240v-1240h-115v1456h115l688 -1242v1242h113v-1456zM918 1810q0 -48 -13 -88t-35.5 -68t-52.5 -43.5t-65 -15.5q-44 0 -72.5 17t-52 38t-48 38t-60.5 17q-38 0 -64 -31.5t-26 -86.5l-81 3q0 48 12.5 87.5t35 67.5t53 43.5t65.5 15.5q39 0 67.5 -17
t54 -37.5t51 -37.5t60.5 -17q38 0 64.5 33t26.5 88z" />
    <glyph glyph-name="Ograve" unicode="&#xd2;" horiz-adv-x="1208" 
d="M1075 570q0 -144 -32.5 -254.5t-93.5 -185t-148 -112.5t-196 -38q-108 0 -195 38t-149 112.5t-95.5 185t-33.5 254.5v314q0 144 33 254.5t94.5 185.5t148.5 113.5t195 38.5q109 0 196.5 -38.5t148.5 -113.5t94 -185.5t33 -254.5v-314zM960 886q0 239 -92 359t-265 120
q-169 0 -263 -120t-94 -359v-316q0 -240 95 -360.5t264 -120.5q174 0 264.5 120t90.5 361v316zM677 1571h-109l-226 280h144z" />
    <glyph glyph-name="Oacute" unicode="&#xd3;" horiz-adv-x="1208" 
d="M1075 570q0 -144 -32.5 -254.5t-93.5 -185t-148 -112.5t-196 -38q-108 0 -195 38t-149 112.5t-95.5 185t-33.5 254.5v314q0 144 33 254.5t94.5 185.5t148.5 113.5t195 38.5q109 0 196.5 -38.5t148.5 -113.5t94 -185.5t33 -254.5v-314zM960 886q0 239 -92 359t-265 120
q-169 0 -263 -120t-94 -359v-316q0 -240 95 -360.5t264 -120.5q174 0 264.5 120t90.5 361v316zM723 1851h145l-231 -280h-105z" />
    <glyph glyph-name="Ocircumflex" unicode="&#xd4;" horiz-adv-x="1208" 
d="M1075 570q0 -144 -32.5 -254.5t-93.5 -185t-148 -112.5t-196 -38q-108 0 -195 38t-149 112.5t-95.5 185t-33.5 254.5v314q0 144 33 254.5t94.5 185.5t148.5 113.5t195 38.5q109 0 196.5 -38.5t148.5 -113.5t94 -185.5t33 -254.5v-314zM960 886q0 239 -92 359t-265 120
q-169 0 -263 -120t-94 -359v-316q0 -240 95 -360.5t264 -120.5q174 0 264.5 120t90.5 361v316zM841 1594v-10h-100l-138 182l-138 -182h-98v12l201 256h69z" />
    <glyph glyph-name="Otilde" unicode="&#xd5;" horiz-adv-x="1208" 
d="M1075 570q0 -144 -32.5 -254.5t-93.5 -185t-148 -112.5t-196 -38q-108 0 -195 38t-149 112.5t-95.5 185t-33.5 254.5v314q0 144 33 254.5t94.5 185.5t148.5 113.5t195 38.5q109 0 196.5 -38.5t148.5 -113.5t94 -185.5t33 -254.5v-314zM960 886q0 239 -92 359t-265 120
q-169 0 -263 -120t-94 -359v-316q0 -240 95 -360.5t264 -120.5q174 0 264.5 120t90.5 361v316zM891 1821q0 -48 -13 -88t-35.5 -68t-52.5 -43.5t-65 -15.5q-44 0 -72.5 17t-52 38t-48 38t-60.5 17q-38 0 -64 -31.5t-26 -86.5l-81 3q0 48 12.5 87.5t35 67.5t53 43.5
t65.5 15.5q39 0 67.5 -17t54 -37.5t51 -37.5t60.5 -17q38 0 64.5 33t26.5 88z" />
    <glyph glyph-name="Odieresis" unicode="&#xd6;" horiz-adv-x="1208" 
d="M1075 570q0 -144 -32.5 -254.5t-93.5 -185t-148 -112.5t-196 -38q-108 0 -195 38t-149 112.5t-95.5 185t-33.5 254.5v314q0 144 33 254.5t94.5 185.5t148.5 113.5t195 38.5q109 0 196.5 -38.5t148.5 -113.5t94 -185.5t33 -254.5v-314zM960 886q0 239 -92 359t-265 120
q-169 0 -263 -120t-94 -359v-316q0 -240 95 -360.5t264 -120.5q174 0 264.5 120t90.5 361v316zM310 1721q0 35 21.5 58.5t60.5 23.5q38 0 60.5 -23.5t22.5 -58.5q0 -34 -22.5 -57t-60.5 -23q-39 0 -60.5 23t-21.5 57zM747 1720q0 35 22 58.5t60 23.5q39 0 61 -23.5t22 -58.5
q0 -34 -22 -57t-61 -23q-38 0 -60 23t-22 57z" />
    <glyph glyph-name="Ugrave" unicode="&#xd9;" horiz-adv-x="1168" 
d="M1018 1456v-1027q0 -123 -34.5 -208.5t-93.5 -139t-137.5 -77.5t-167.5 -24q-92 0 -171 24t-137.5 77.5t-91.5 139t-33 208.5v1027h114v-1027q0 -95 23.5 -160.5t66 -106t101 -58.5t128.5 -18t128.5 18t100.5 58.5t65.5 106t23.5 160.5v1027h115zM664 1560h-109l-226 280
h144z" />
    <glyph glyph-name="Uacute" unicode="&#xda;" horiz-adv-x="1168" 
d="M1018 1456v-1027q0 -123 -34.5 -208.5t-93.5 -139t-137.5 -77.5t-167.5 -24q-92 0 -171 24t-137.5 77.5t-91.5 139t-33 208.5v1027h114v-1027q0 -95 23.5 -160.5t66 -106t101 -58.5t128.5 -18t128.5 18t100.5 58.5t65.5 106t23.5 160.5v1027h115zM710 1840h145l-231 -280
h-105z" />
    <glyph glyph-name="Ucircumflex" unicode="&#xdb;" horiz-adv-x="1168" 
d="M1018 1456v-1027q0 -123 -34.5 -208.5t-93.5 -139t-137.5 -77.5t-167.5 -24q-92 0 -171 24t-137.5 77.5t-91.5 139t-33 208.5v1027h114v-1027q0 -95 23.5 -160.5t66 -106t101 -58.5t128.5 -18t128.5 18t100.5 58.5t65.5 106t23.5 160.5v1027h115zM828 1583v-10h-100
l-138 182l-138 -182h-98v12l201 256h69z" />
    <glyph glyph-name="Udieresis" unicode="&#xdc;" horiz-adv-x="1168" 
d="M1018 1456v-1027q0 -123 -34.5 -208.5t-93.5 -139t-137.5 -77.5t-167.5 -24q-92 0 -171 24t-137.5 77.5t-91.5 139t-33 208.5v1027h114v-1027q0 -95 23.5 -160.5t66 -106t101 -58.5t128.5 -18t128.5 18t100.5 58.5t65.5 106t23.5 160.5v1027h115zM297 1710
q0 35 21.5 58.5t60.5 23.5q38 0 60.5 -23.5t22.5 -58.5q0 -34 -22.5 -57t-60.5 -23q-39 0 -60.5 23t-21.5 57zM734 1709q0 35 22 58.5t60 23.5q39 0 61 -23.5t22 -58.5q0 -34 -22 -57t-61 -23q-38 0 -60 23t-22 57z" />
    <glyph glyph-name="Yacute" unicode="&#xdd;" horiz-adv-x="1070" 
d="M534 664l363 792h131l-438 -908v-548h-114v548l-437 908h134zM655 1834h145l-231 -280h-105z" />
    <glyph glyph-name="agrave" unicode="&#xe0;" horiz-adv-x="964" 
d="M720 0q-8 27 -13 67.5t-7 82.5q-21 -34 -50 -64.5t-66.5 -54t-83.5 -37.5t-99 -14q-67 0 -121.5 19t-93.5 57t-60 95t-21 133q0 75 26 138.5t77.5 109.5t128.5 72t179 26h183v151q0 116 -57.5 166.5t-168.5 50.5q-52 0 -95.5 -16t-74.5 -44.5t-48 -68t-17 -86.5l-111 1
q0 63 25 120.5t71 101.5t111 70t144 26q73 0 133.5 -17.5t104.5 -56t68.5 -100t24.5 -149.5v-552q0 -28 2 -58t5.5 -58.5t9 -54t12.5 -44.5v-12h-118zM415 87q52 0 97.5 14.5t81.5 40t62.5 59.5t42.5 73v263h-167q-157 0 -236 -66t-79 -178q0 -107 52.5 -156.5t145.5 -49.5z
M581 1245h-109l-226 280h144z" />
    <glyph glyph-name="aacute" unicode="&#xe1;" horiz-adv-x="964" 
d="M720 0q-8 27 -13 67.5t-7 82.5q-21 -34 -50 -64.5t-66.5 -54t-83.5 -37.5t-99 -14q-67 0 -121.5 19t-93.5 57t-60 95t-21 133q0 75 26 138.5t77.5 109.5t128.5 72t179 26h183v151q0 116 -57.5 166.5t-168.5 50.5q-52 0 -95.5 -16t-74.5 -44.5t-48 -68t-17 -86.5l-111 1
q0 63 25 120.5t71 101.5t111 70t144 26q73 0 133.5 -17.5t104.5 -56t68.5 -100t24.5 -149.5v-552q0 -28 2 -58t5.5 -58.5t9 -54t12.5 -44.5v-12h-118zM415 87q52 0 97.5 14.5t81.5 40t62.5 59.5t42.5 73v263h-167q-157 0 -236 -66t-79 -178q0 -107 52.5 -156.5t145.5 -49.5z
M627 1525h145l-231 -280h-105z" />
    <glyph glyph-name="acircumflex" unicode="&#xe2;" horiz-adv-x="964" 
d="M720 0q-8 27 -13 67.5t-7 82.5q-21 -34 -50 -64.5t-66.5 -54t-83.5 -37.5t-99 -14q-67 0 -121.5 19t-93.5 57t-60 95t-21 133q0 75 26 138.5t77.5 109.5t128.5 72t179 26h183v151q0 116 -57.5 166.5t-168.5 50.5q-52 0 -95.5 -16t-74.5 -44.5t-48 -68t-17 -86.5l-111 1
q0 63 25 120.5t71 101.5t111 70t144 26q73 0 133.5 -17.5t104.5 -56t68.5 -100t24.5 -149.5v-552q0 -28 2 -58t5.5 -58.5t9 -54t12.5 -44.5v-12h-118zM415 87q52 0 97.5 14.5t81.5 40t62.5 59.5t42.5 73v263h-167q-157 0 -236 -66t-79 -178q0 -107 52.5 -156.5t145.5 -49.5z
M745 1268v-10h-100l-138 182l-138 -182h-98v12l201 256h69z" />
    <glyph glyph-name="atilde" unicode="&#xe3;" horiz-adv-x="964" 
d="M720 0q-8 27 -13 67.5t-7 82.5q-21 -34 -50 -64.5t-66.5 -54t-83.5 -37.5t-99 -14q-67 0 -121.5 19t-93.5 57t-60 95t-21 133q0 75 26 138.5t77.5 109.5t128.5 72t179 26h183v151q0 116 -57.5 166.5t-168.5 50.5q-52 0 -95.5 -16t-74.5 -44.5t-48 -68t-17 -86.5l-111 1
q0 63 25 120.5t71 101.5t111 70t144 26q73 0 133.5 -17.5t104.5 -56t68.5 -100t24.5 -149.5v-552q0 -28 2 -58t5.5 -58.5t9 -54t12.5 -44.5v-12h-118zM415 87q52 0 97.5 14.5t81.5 40t62.5 59.5t42.5 73v263h-167q-157 0 -236 -66t-79 -178q0 -107 52.5 -156.5t145.5 -49.5z
M795 1495q0 -48 -13 -88t-35.5 -68t-52.5 -43.5t-65 -15.5q-44 0 -72.5 17t-52 38t-48 38t-60.5 17q-38 0 -64 -31.5t-26 -86.5l-81 3q0 48 12.5 87.5t35 67.5t53 43.5t65.5 15.5q39 0 67.5 -17t54 -37.5t51 -37.5t60.5 -17q38 0 64.5 33t26.5 88z" />
    <glyph glyph-name="adieresis" unicode="&#xe4;" horiz-adv-x="964" 
d="M720 0q-8 27 -13 67.5t-7 82.5q-21 -34 -50 -64.5t-66.5 -54t-83.5 -37.5t-99 -14q-67 0 -121.5 19t-93.5 57t-60 95t-21 133q0 75 26 138.5t77.5 109.5t128.5 72t179 26h183v151q0 116 -57.5 166.5t-168.5 50.5q-52 0 -95.5 -16t-74.5 -44.5t-48 -68t-17 -86.5l-111 1
q0 63 25 120.5t71 101.5t111 70t144 26q73 0 133.5 -17.5t104.5 -56t68.5 -100t24.5 -149.5v-552q0 -28 2 -58t5.5 -58.5t9 -54t12.5 -44.5v-12h-118zM415 87q52 0 97.5 14.5t81.5 40t62.5 59.5t42.5 73v263h-167q-157 0 -236 -66t-79 -178q0 -107 52.5 -156.5t145.5 -49.5z
M214 1395q0 35 21.5 58.5t60.5 23.5q38 0 60.5 -23.5t22.5 -58.5q0 -34 -22.5 -57t-60.5 -23q-39 0 -60.5 23t-21.5 57zM651 1394q0 35 22 58.5t60 23.5q39 0 61 -23.5t22 -58.5q0 -34 -22 -57t-61 -23q-38 0 -60 23t-22 57z" />
    <glyph glyph-name="aring" unicode="&#xe5;" horiz-adv-x="964" 
d="M720 0q-8 27 -13 67.5t-7 82.5q-21 -34 -50 -64.5t-66.5 -54t-83.5 -37.5t-99 -14q-67 0 -121.5 19t-93.5 57t-60 95t-21 133q0 75 26 138.5t77.5 109.5t128.5 72t179 26h183v151q0 116 -57.5 166.5t-168.5 50.5q-52 0 -95.5 -16t-74.5 -44.5t-48 -68t-17 -86.5l-111 1
q0 63 25 120.5t71 101.5t111 70t144 26q73 0 133.5 -17.5t104.5 -56t68.5 -100t24.5 -149.5v-552q0 -28 2 -58t5.5 -58.5t9 -54t12.5 -44.5v-12h-118zM415 87q52 0 97.5 14.5t81.5 40t62.5 59.5t42.5 73v263h-167q-157 0 -236 -66t-79 -178q0 -107 52.5 -156.5t145.5 -49.5z
M315 1401q0 40 15 75t41 61t61 41t76 15q40 0 75.5 -15t61.5 -41t41 -61t15 -75t-15 -74.5t-41 -59.5t-61.5 -39t-75.5 -14q-41 0 -76 14t-61 39t-41 59.5t-15 74.5zM392 1401q0 -24 8.5 -45t24 -36.5t36.5 -24.5t47 -9q25 0 46.5 9t37.5 24.5t24.5 36.5t8.5 45
q0 25 -8.5 47t-24.5 38t-37.5 25t-46.5 9q-26 0 -47 -9t-36.5 -25t-24 -38t-8.5 -47z" />
    <glyph glyph-name="aringacute" unicode="&#x1fb;" horiz-adv-x="964" 
d="M720 0q-8 27 -13 67.5t-7 82.5q-21 -34 -50 -64.5t-66.5 -54t-83.5 -37.5t-99 -14q-67 0 -121.5 19t-93.5 57t-60 95t-21 133q0 75 26 138.5t77.5 109.5t128.5 72t179 26h183v151q0 116 -57.5 166.5t-168.5 50.5q-52 0 -95.5 -16t-74.5 -44.5t-48 -68t-17 -86.5l-111 1
q0 63 25 120.5t71 101.5t111 70t144 26q73 0 133.5 -17.5t104.5 -56t68.5 -100t24.5 -149.5v-552q0 -28 2 -58t5.5 -58.5t9 -54t12.5 -44.5v-12h-118zM415 87q52 0 97.5 14.5t81.5 40t62.5 59.5t42.5 73v263h-167q-157 0 -236 -66t-79 -178q0 -107 52.5 -156.5t145.5 -49.5z
M610 1616h122l-173 -187h-79zM376 1223q0 33 10.5 61.5t29 49t42.5 32.5t51 12t50.5 -12t41.5 -32.5t28 -49t10 -61.5t-10 -60.5t-28 -47.5t-41.5 -31.5t-50.5 -11.5t-51 11.5t-42.5 31.5t-29 47.5t-10.5 60.5zM436 1223q0 -37 21.5 -61.5t51.5 -24.5q29 0 50 24.5t21 61.5
q0 39 -21 64.5t-50 25.5q-30 0 -51.5 -25.5t-21.5 -64.5z" />
    <glyph glyph-name="ccedilla" unicode="&#xe7;" horiz-adv-x="929" 
d="M490 83q46 0 89 12t76.5 41t55 77.5t24.5 121.5h107q-4 -87 -33 -153.5t-77 -111t-110 -67.5t-132 -23q-195 0 -293.5 126t-98.5 374v122q0 248 98.5 374t292.5 126q74 0 137.5 -23.5t110 -71t74.5 -120t31 -170.5h-107q-3 75 -23 128.5t-52.5 87.5t-76 49.5t-94.5 15.5
q-77 0 -130 -26.5t-86 -77.5t-48 -124.5t-15 -167.5v-122q0 -95 14.5 -169t47.5 -124.5t86.5 -77t131.5 -26.5zM517 -9l-10 -64q25 -4 49.5 -14.5t44 -30.5t31 -50.5t11.5 -75.5t-16.5 -81.5t-48 -63t-77.5 -41t-106 -14.5l-6 79q31 0 60.5 7t52.5 21t37 36.5t14 54.5
q0 29 -9 48.5t-27 31.5t-45.5 18.5t-64.5 10.5l25 128h85z" />
    <glyph glyph-name="egrave" unicode="&#xe8;" horiz-adv-x="937" 
d="M505 -20q-90 0 -165 29.5t-129.5 90t-84.5 152.5t-30 218v123q0 136 32 232.5t85.5 158t124 90t148.5 28.5q178 0 270.5 -117.5t92.5 -359.5v-94h-643v-61q0 -99 22 -172t62 -121t96 -71.5t124 -23.5q84 0 146 28.5t113 88.5l58 -74q-22 -30 -51.5 -56t-69 -46
t-89.5 -31.5t-112 -11.5zM486 998q-59 0 -108.5 -20t-86 -63.5t-58.5 -112.5t-26 -167h531v29q-2 79 -18 141t-46.5 105t-77.5 65.5t-110 22.5zM569 1245h-109l-226 280h144z" />
    <glyph glyph-name="eacute" unicode="&#xe9;" horiz-adv-x="937" 
d="M505 -20q-90 0 -165 29.5t-129.5 90t-84.5 152.5t-30 218v123q0 136 32 232.5t85.5 158t124 90t148.5 28.5q178 0 270.5 -117.5t92.5 -359.5v-94h-643v-61q0 -99 22 -172t62 -121t96 -71.5t124 -23.5q84 0 146 28.5t113 88.5l58 -74q-22 -30 -51.5 -56t-69 -46
t-89.5 -31.5t-112 -11.5zM486 998q-59 0 -108.5 -20t-86 -63.5t-58.5 -112.5t-26 -167h531v29q-2 79 -18 141t-46.5 105t-77.5 65.5t-110 22.5zM615 1525h145l-231 -280h-105z" />
    <glyph glyph-name="ecircumflex" unicode="&#xea;" horiz-adv-x="937" 
d="M505 -20q-90 0 -165 29.5t-129.5 90t-84.5 152.5t-30 218v123q0 136 32 232.5t85.5 158t124 90t148.5 28.5q178 0 270.5 -117.5t92.5 -359.5v-94h-643v-61q0 -99 22 -172t62 -121t96 -71.5t124 -23.5q84 0 146 28.5t113 88.5l58 -74q-22 -30 -51.5 -56t-69 -46
t-89.5 -31.5t-112 -11.5zM486 998q-59 0 -108.5 -20t-86 -63.5t-58.5 -112.5t-26 -167h531v29q-2 79 -18 141t-46.5 105t-77.5 65.5t-110 22.5zM733 1268v-10h-100l-138 182l-138 -182h-98v12l201 256h69z" />
    <glyph glyph-name="edieresis" unicode="&#xeb;" horiz-adv-x="937" 
d="M505 -20q-90 0 -165 29.5t-129.5 90t-84.5 152.5t-30 218v123q0 136 32 232.5t85.5 158t124 90t148.5 28.5q178 0 270.5 -117.5t92.5 -359.5v-94h-643v-61q0 -99 22 -172t62 -121t96 -71.5t124 -23.5q84 0 146 28.5t113 88.5l58 -74q-22 -30 -51.5 -56t-69 -46
t-89.5 -31.5t-112 -11.5zM486 998q-59 0 -108.5 -20t-86 -63.5t-58.5 -112.5t-26 -167h531v29q-2 79 -18 141t-46.5 105t-77.5 65.5t-110 22.5zM202 1395q0 35 21.5 58.5t60.5 23.5q38 0 60.5 -23.5t22.5 -58.5q0 -34 -22.5 -57t-60.5 -23q-39 0 -60.5 23t-21.5 57z
M639 1394q0 35 22 58.5t60 23.5q39 0 61 -23.5t22 -58.5q0 -34 -22 -57t-61 -23q-38 0 -60 23t-22 57z" />
    <glyph glyph-name="igrave" unicode="&#xec;" horiz-adv-x="431" 
d="M270 0h-111v1082h111v-1082zM292 1233h-109l-226 280h144z" />
    <glyph glyph-name="iacute" unicode="&#xed;" horiz-adv-x="431" 
d="M270 0h-111v1082h111v-1082zM337 1513h145l-231 -280h-105z" />
    <glyph glyph-name="icircumflex" unicode="&#xee;" horiz-adv-x="431" 
d="M270 0h-111v1082h111v-1082zM456 1256v-10h-100l-138 182l-138 -182h-98v12l201 256h69z" />
    <glyph glyph-name="idieresis" unicode="&#xef;" horiz-adv-x="431" 
d="M270 0h-111v1082h111v-1082zM-75 1383q0 35 21.5 58.5t60.5 23.5q38 0 60.5 -23.5t22.5 -58.5q0 -34 -22.5 -57t-60.5 -23q-39 0 -60.5 23t-21.5 57zM362 1382q0 35 22 58.5t60 23.5q39 0 61 -23.5t22 -58.5q0 -34 -22 -57t-61 -23q-38 0 -60 23t-22 57z" />
    <glyph glyph-name="ntilde" unicode="&#xf1;" horiz-adv-x="986" 
d="M254 1082l3 -172q48 88 122.5 140t169.5 52q68 0 121.5 -22t91 -70t57.5 -123.5t20 -182.5v-704h-110v705q0 83 -14.5 139t-41.5 89.5t-65.5 48t-86.5 14.5q-50 0 -91.5 -20.5t-74.5 -54.5t-57 -78t-39 -92v-751h-111v1082h106zM791 1494q0 -48 -13 -88t-35.5 -68
t-52.5 -43.5t-65 -15.5q-44 0 -72.5 17t-52 38t-48 38t-60.5 17q-38 0 -64 -31.5t-26 -86.5l-81 3q0 48 12.5 87.5t35 67.5t53 43.5t65.5 15.5q39 0 67.5 -17t54 -37.5t51 -37.5t60.5 -17q38 0 64.5 33t26.5 88z" />
    <glyph glyph-name="ograve" unicode="&#xf2;" horiz-adv-x="1005" 
d="M106 596q0 123 29 217t81 158.5t124.5 97.5t160.5 33q89 0 162 -33t125 -97.5t80.5 -158.5t28.5 -217v-112q0 -123 -28.5 -217t-80.5 -157.5t-124.5 -96.5t-160.5 -33q-89 0 -162 33t-125 96.5t-81 157.5t-29 217v112zM218 484q0 -93 19 -167t55.5 -126t89.5 -80t121 -28
q72 0 125 28t88 80t52.5 126t17.5 167v112q0 91 -19 165.5t-55.5 127t-89.5 81t-121 28.5q-67 0 -119.5 -28.5t-89 -81t-55.5 -127t-19 -165.5v-112zM580 1245h-109l-226 280h144z" />
    <glyph glyph-name="oacute" unicode="&#xf3;" horiz-adv-x="1005" 
d="M106 596q0 123 29 217t81 158.5t124.5 97.5t160.5 33q89 0 162 -33t125 -97.5t80.5 -158.5t28.5 -217v-112q0 -123 -28.5 -217t-80.5 -157.5t-124.5 -96.5t-160.5 -33q-89 0 -162 33t-125 96.5t-81 157.5t-29 217v112zM218 484q0 -93 19 -167t55.5 -126t89.5 -80t121 -28
q72 0 125 28t88 80t52.5 126t17.5 167v112q0 91 -19 165.5t-55.5 127t-89.5 81t-121 28.5q-67 0 -119.5 -28.5t-89 -81t-55.5 -127t-19 -165.5v-112zM626 1525h145l-231 -280h-105z" />
    <glyph glyph-name="ocircumflex" unicode="&#xf4;" horiz-adv-x="1005" 
d="M106 596q0 123 29 217t81 158.5t124.5 97.5t160.5 33q89 0 162 -33t125 -97.5t80.5 -158.5t28.5 -217v-112q0 -123 -28.5 -217t-80.5 -157.5t-124.5 -96.5t-160.5 -33q-89 0 -162 33t-125 96.5t-81 157.5t-29 217v112zM218 484q0 -93 19 -167t55.5 -126t89.5 -80t121 -28
q72 0 125 28t88 80t52.5 126t17.5 167v112q0 91 -19 165.5t-55.5 127t-89.5 81t-121 28.5q-67 0 -119.5 -28.5t-89 -81t-55.5 -127t-19 -165.5v-112zM744 1268v-10h-100l-138 182l-138 -182h-98v12l201 256h69z" />
    <glyph glyph-name="otilde" unicode="&#xf5;" horiz-adv-x="1005" 
d="M106 596q0 123 29 217t81 158.5t124.5 97.5t160.5 33q89 0 162 -33t125 -97.5t80.5 -158.5t28.5 -217v-112q0 -123 -28.5 -217t-80.5 -157.5t-124.5 -96.5t-160.5 -33q-89 0 -162 33t-125 96.5t-81 157.5t-29 217v112zM218 484q0 -93 19 -167t55.5 -126t89.5 -80t121 -28
q72 0 125 28t88 80t52.5 126t17.5 167v112q0 91 -19 165.5t-55.5 127t-89.5 81t-121 28.5q-67 0 -119.5 -28.5t-89 -81t-55.5 -127t-19 -165.5v-112zM794 1494q0 -48 -13 -88t-35.5 -68t-52.5 -43.5t-65 -15.5q-44 0 -72.5 17t-52 38t-48 38t-60.5 17q-38 0 -64 -31.5
t-26 -86.5l-81 3q0 48 12.5 87.5t35 67.5t53 43.5t65.5 15.5q39 0 67.5 -17t54 -37.5t51 -37.5t60.5 -17q38 0 64.5 33t26.5 88z" />
    <glyph glyph-name="odieresis" unicode="&#xf6;" horiz-adv-x="1005" 
d="M106 596q0 123 29 217t81 158.5t124.5 97.5t160.5 33q89 0 162 -33t125 -97.5t80.5 -158.5t28.5 -217v-112q0 -123 -28.5 -217t-80.5 -157.5t-124.5 -96.5t-160.5 -33q-89 0 -162 33t-125 96.5t-81 157.5t-29 217v112zM218 484q0 -93 19 -167t55.5 -126t89.5 -80t121 -28
q72 0 125 28t88 80t52.5 126t17.5 167v112q0 91 -19 165.5t-55.5 127t-89.5 81t-121 28.5q-67 0 -119.5 -28.5t-89 -81t-55.5 -127t-19 -165.5v-112zM213 1395q0 35 21.5 58.5t60.5 23.5q38 0 60.5 -23.5t22.5 -58.5q0 -34 -22.5 -57t-60.5 -23q-39 0 -60.5 23t-21.5 57z
M650 1394q0 35 22 58.5t60 23.5q39 0 61 -23.5t22 -58.5q0 -34 -22 -57t-61 -23q-38 0 -60 23t-22 57z" />
    <glyph glyph-name="ugrave" unicode="&#xf9;" horiz-adv-x="986" 
d="M728 129q-43 -70 -112.5 -109.5t-172.5 -39.5q-67 0 -122 22.5t-94 71.5t-60.5 126.5t-21.5 188.5v693h110v-695q0 -86 16 -143.5t44 -92.5t64.5 -50t77.5 -15q58 0 102.5 15t77 42t54.5 64.5t35 82.5v792h112v-1082h-108zM574 1245h-109l-226 280h144z" />
    <glyph glyph-name="uacute" unicode="&#xfa;" horiz-adv-x="986" 
d="M728 129q-43 -70 -112.5 -109.5t-172.5 -39.5q-67 0 -122 22.5t-94 71.5t-60.5 126.5t-21.5 188.5v693h110v-695q0 -86 16 -143.5t44 -92.5t64.5 -50t77.5 -15q58 0 102.5 15t77 42t54.5 64.5t35 82.5v792h112v-1082h-108zM620 1525h145l-231 -280h-105z" />
    <glyph glyph-name="ucircumflex" unicode="&#xfb;" horiz-adv-x="986" 
d="M728 129q-43 -70 -112.5 -109.5t-172.5 -39.5q-67 0 -122 22.5t-94 71.5t-60.5 126.5t-21.5 188.5v693h110v-695q0 -86 16 -143.5t44 -92.5t64.5 -50t77.5 -15q58 0 102.5 15t77 42t54.5 64.5t35 82.5v792h112v-1082h-108zM738 1268v-10h-100l-138 182l-138 -182h-98v12
l201 256h69z" />
    <glyph glyph-name="udieresis" unicode="&#xfc;" horiz-adv-x="986" 
d="M728 129q-43 -70 -112.5 -109.5t-172.5 -39.5q-67 0 -122 22.5t-94 71.5t-60.5 126.5t-21.5 188.5v693h110v-695q0 -86 16 -143.5t44 -92.5t64.5 -50t77.5 -15q58 0 102.5 15t77 42t54.5 64.5t35 82.5v792h112v-1082h-108zM207 1395q0 35 21.5 58.5t60.5 23.5
q38 0 60.5 -23.5t22.5 -58.5q0 -34 -22.5 -57t-60.5 -23q-39 0 -60.5 23t-21.5 57zM644 1394q0 35 22 58.5t60 23.5q39 0 61 -23.5t22 -58.5q0 -34 -22 -57t-61 -23q-38 0 -60 23t-22 57z" />
    <glyph glyph-name="yacute" unicode="&#xfd;" horiz-adv-x="857" 
d="M436 183l258 899h119l-381 -1255q-12 -37 -30 -83t-48 -86t-73.5 -67.5t-105.5 -27.5q-9 0 -20 1.5t-22.5 3.5t-21.5 4.5t-16 4.5l-1 102q10 -3 26.5 -5t24.5 -2q40 0 70.5 12.5t54 37t41.5 61t32 84.5l42 140l-340 1075h122zM570 1525h145l-231 -280h-105z" />
    <glyph glyph-name="ydieresis" unicode="&#xff;" horiz-adv-x="857" 
d="M436 183l258 899h119l-381 -1255q-12 -37 -30 -83t-48 -86t-73.5 -67.5t-105.5 -27.5q-9 0 -20 1.5t-22.5 3.5t-21.5 4.5t-16 4.5l-1 102q10 -3 26.5 -5t24.5 -2q40 0 70.5 12.5t54 37t41.5 61t32 84.5l42 140l-340 1075h122zM157 1395q0 35 21.5 58.5t60.5 23.5
q38 0 60.5 -23.5t22.5 -58.5q0 -34 -22.5 -57t-60.5 -23q-39 0 -60.5 23t-21.5 57zM594 1394q0 35 22 58.5t60 23.5q39 0 61 -23.5t22 -58.5q0 -34 -22 -57t-61 -23q-38 0 -60 23t-22 57z" />
    <glyph glyph-name="Amacron" unicode="&#x100;" 
d="M834 407h-546l-124 -407h-119l464 1456h106l464 -1456h-119zM321 514h480l-240 781zM848 1681h-570v99h570v-99z" />
    <glyph glyph-name="amacron" unicode="&#x101;" horiz-adv-x="964" 
d="M720 0q-8 27 -13 67.5t-7 82.5q-21 -34 -50 -64.5t-66.5 -54t-83.5 -37.5t-99 -14q-67 0 -121.5 19t-93.5 57t-60 95t-21 133q0 75 26 138.5t77.5 109.5t128.5 72t179 26h183v151q0 116 -57.5 166.5t-168.5 50.5q-52 0 -95.5 -16t-74.5 -44.5t-48 -68t-17 -86.5l-111 1
q0 63 25 120.5t71 101.5t111 70t144 26q73 0 133.5 -17.5t104.5 -56t68.5 -100t24.5 -149.5v-552q0 -28 2 -58t5.5 -58.5t9 -54t12.5 -44.5v-12h-118zM415 87q52 0 97.5 14.5t81.5 40t62.5 59.5t42.5 73v263h-167q-157 0 -236 -66t-79 -178q0 -107 52.5 -156.5t145.5 -49.5z
M791 1366h-570v99h570v-99z" />
    <glyph glyph-name="Abreve" unicode="&#x102;" 
d="M834 407h-546l-124 -407h-119l464 1456h106l464 -1456h-119zM321 514h480l-240 781zM853 1808q0 -57 -20 -104t-57 -81.5t-91 -53.5t-121 -19t-120.5 19t-91 53.5t-57.5 81.5t-20 104h102q0 -35 10 -65.5t32 -54t58 -37t87 -13.5q50 0 85.5 14t58 37t33 54t10.5 65h102z
" />
    <glyph glyph-name="abreve" unicode="&#x103;" horiz-adv-x="964" 
d="M720 0q-8 27 -13 67.5t-7 82.5q-21 -34 -50 -64.5t-66.5 -54t-83.5 -37.5t-99 -14q-67 0 -121.5 19t-93.5 57t-60 95t-21 133q0 75 26 138.5t77.5 109.5t128.5 72t179 26h183v151q0 116 -57.5 166.5t-168.5 50.5q-52 0 -95.5 -16t-74.5 -44.5t-48 -68t-17 -86.5l-111 1
q0 63 25 120.5t71 101.5t111 70t144 26q73 0 133.5 -17.5t104.5 -56t68.5 -100t24.5 -149.5v-552q0 -28 2 -58t5.5 -58.5t9 -54t12.5 -44.5v-12h-118zM415 87q52 0 97.5 14.5t81.5 40t62.5 59.5t42.5 73v263h-167q-157 0 -236 -66t-79 -178q0 -107 52.5 -156.5t145.5 -49.5z
M796 1493q0 -57 -20 -104t-57 -81.5t-91 -53.5t-121 -19t-120.5 19t-91 53.5t-57.5 81.5t-20 104h102q0 -35 10 -65.5t32 -54t58 -37t87 -13.5q50 0 85.5 14t58 37t33 54t10.5 65h102z" />
    <glyph glyph-name="Aogonek" unicode="&#x104;" 
d="M615 1456l464 -1456h-19l-55 -53t-48 -55.5t-33.5 -59.5t-12.5 -65q0 -35 15 -59.5t55 -24.5q31 0 52.5 11t35.5 21l12 -85q-19 -15 -48.5 -29.5t-74.5 -14.5q-64 0 -105 42.5t-41 127.5q0 65 38 129.5t109 118.5l-125 403h-546l-124 -407h-119l464 1456h106zM321 514
h480l-240 781z" />
    <glyph glyph-name="aogonek" unicode="&#x105;" horiz-adv-x="964" 
d="M719 2q-8 28 -12.5 67.5t-6.5 80.5q-21 -34 -50 -64.5t-66.5 -54t-83.5 -37.5t-99 -14q-67 0 -121.5 19t-93.5 57t-60 95t-21 133q0 75 26 138.5t77.5 109.5t128.5 72t179 26h183v151q0 116 -57.5 166.5t-168.5 50.5q-52 0 -95.5 -16t-74.5 -44.5t-48 -68t-17 -86.5
l-111 1q0 63 25 120.5t71 101.5t111 70t144 26q73 0 133.5 -17.5t104.5 -56t68.5 -100t24.5 -149.5v-552q0 -28 2 -58t5.5 -58.5t9 -54t12.5 -44.5v-12h-16l-55 -53t-48 -55.5t-33.5 -59.5t-12.5 -65q0 -35 15 -59.5t55 -24.5q31 0 52.5 11t35.5 21l12 -85
q-19 -15 -48.5 -29.5t-74.5 -14.5q-64 0 -105 42.5t-41 127.5q0 65 38 128.5t107 117.5zM415 87q52 0 97.5 14.5t81.5 40t62.5 59.5t42.5 73v263h-167q-157 0 -236 -66t-79 -178q0 -107 52.5 -156.5t145.5 -49.5z" />
    <glyph glyph-name="Cacute" unicode="&#x106;" horiz-adv-x="1158" 
d="M1045 454q-16 -245 -132 -359.5t-321 -114.5q-105 0 -189.5 41t-143.5 118t-91 187.5t-32 249.5v313q0 137 32 246t92 184.5t146 116t195 40.5q99 0 177.5 -28t135.5 -86t90 -148t41 -214h-116q-8 100 -31 170t-63.5 114t-98.5 64t-135 20q-85 0 -150 -32.5t-109.5 -93.5
t-67 -150t-22.5 -201v-315q0 -111 21.5 -201.5t64 -154.5t106 -99t148.5 -35q80 0 140 18.5t101 61.5t64.5 113.5t31.5 174.5h116zM710 1867h145l-231 -280h-105z" />
    <glyph glyph-name="cacute" unicode="&#x107;" horiz-adv-x="929" 
d="M490 83q46 0 89 12t76.5 41t55 77.5t24.5 121.5h107q-4 -87 -33 -153.5t-77 -111t-110 -67.5t-132 -23q-195 0 -293.5 126t-98.5 374v122q0 248 98.5 374t292.5 126q74 0 137.5 -23.5t110 -71t74.5 -120t31 -170.5h-107q-3 75 -23 128.5t-52.5 87.5t-76 49.5t-94.5 15.5
q-77 0 -130 -26.5t-86 -77.5t-48 -124.5t-15 -167.5v-122q0 -95 14.5 -169t47.5 -124.5t86.5 -77t131.5 -26.5zM591 1525h145l-231 -280h-105z" />
    <glyph glyph-name="Ccircumflex" unicode="&#x108;" horiz-adv-x="1158" 
d="M1045 454q-16 -245 -132 -359.5t-321 -114.5q-105 0 -189.5 41t-143.5 118t-91 187.5t-32 249.5v313q0 137 32 246t92 184.5t146 116t195 40.5q99 0 177.5 -28t135.5 -86t90 -148t41 -214h-116q-8 100 -31 170t-63.5 114t-98.5 64t-135 20q-85 0 -150 -32.5t-109.5 -93.5
t-67 -150t-22.5 -201v-315q0 -111 21.5 -201.5t64 -154.5t106 -99t148.5 -35q80 0 140 18.5t101 61.5t64.5 113.5t31.5 174.5h116zM828 1610v-10h-100l-138 182l-138 -182h-98v12l201 256h69z" />
    </font>
</defs>
</svg>
